<?xml version="1.0" encoding="utf-8"?>
<!-- Generator: Adobe Illustrator 18.1.0, SVG Export Plug-In . SVG Version: 6.00 Build 0)  -->
<svg version="1.1" id="Ebene_1" xmlns="http://www.w3.org/2000/svg" xmlns:xlink="http://www.w3.org/1999/xlink" x="0px" y="0px"
	 viewBox="0 0 595.28 497.833" enable-background="new 0 0 595.28 497.833" xml:space="preserve">
<g>
	<g>
		<path fill="#405D6E" d="M10.892,406.781C5.19,406.781,0,411.794,0,417.273c0,2.2,0.698,4.284,2.062,6.244
			c6.55,9.856,21.397,14.993,32.68,14.993c19.318,0,39.831-12.114,39.831-34.56c0-23.441-18.762-30.814-33.84-36.764
			c-11.759-4.626-18.967-7.808-18.967-14.727c0-5.532,4.422-11.123,14.31-11.123c6.195,0,11.421,2.715,15.105,7.857
			c2.444,3.266,5.27,4.946,8.381,4.946c5.893,0,10.879-4.817,10.879-10.523c0-2.182-0.578-4.199-1.68-5.834
			c-6.506-10.057-19.944-17.056-32.685-17.056c-17.562,0-35.32,10.914-35.32,31.734c0,21.438,17.598,28.29,31.721,33.823
			c11.314,4.395,21.086,8.212,21.086,17.669c0,6.906-6.466,13.923-18.82,13.923c-3.777,0-10.852-0.871-15.518-6.595
			C16.736,408.399,13.776,406.781,10.892,406.781z"/>
	</g>
	<path fill="#405D6E" d="M336.363,0H184.671c-22.922,0-41.52,18.584-41.52,41.52v151.688c0,22.931,18.598,41.524,41.52,41.524
		h151.692c22.936,0,41.528-18.593,41.528-41.524V41.52C377.892,18.584,359.299,0,336.363,0z M224.772,43.955
		c24.517-24.517,63.353-25.943,89.554-4.351c0.977,1.013,1.6,2.364,1.6,3.884c0,1.502-0.604,2.849-1.564,3.853
		c-12.798,12.812-74.826,74.827-86.229,86.234c-1.004,0.894-2.302,1.467-3.76,1.467c-1.662,0-3.146-0.725-4.177-1.876
		C198.856,106.969,200.375,68.36,224.772,43.955z M298.523,185.71c-24.423,24.433-63.077,25.921-89.278,4.538
		c-1.111-1.018-1.813-2.475-1.813-4.12c0-1.529,0.622-2.871,1.6-3.889c12.932-12.927,74.542-74.537,86.096-86.082
		c1.004-0.96,2.346-1.569,3.849-1.569c1.538,0,2.924,0.649,3.928,1.645C324.449,122.434,323.027,161.225,298.523,185.71z"/>
	<g>
		<path fill="#405D6E" d="M488.688,320.61h-0.596c-20.62,0-37.205,16.762-37.205,37.396v43.328c0,1.245-0.124,2.507,0,3.733v82.385
			c0,5.725,4.648,10.382,10.382,10.382c5.732,0,10.381-4.657,10.381-10.382v-53.908c3.946,3.515,10.532,5.182,16.442,5.182h0.596
			c20.619,0,36.342-17.843,36.342-38.458V356.97C525.029,336.319,509.307,320.61,488.688,320.61z M504.818,401.333
			c0,11.301-7.226,16.118-16.131,16.118h-0.596c-8.906,0-16.141-4.817-16.141-16.118v-43.328c0-8.91,7.234-16.118,16.141-16.118
			h0.596c8.905,0,16.131,7.208,16.131,16.118V401.333z"/>
	</g>
	<path fill="#405D6E" d="M429.214,330.653c-0.257-5.515-4.759-9.897-10.332-9.897c-5.581,0-10.069,4.382-10.327,9.897h-0.062v71.36
		c0,8.697-7.065,15.745-15.749,15.745h-0.587c-8.719,0-15.767-7.048-15.767-15.745v-70.667c0-0.066,0.026-0.146,0.026-0.209
		c0-0.08-0.026-0.164-0.026-0.227v-0.258h-0.017c-0.258-5.515-4.773-9.897-10.337-9.897c-5.564,0-10.069,4.382-10.327,9.897h-0.08
		v71.36c0,20.126,16.38,36.534,36.528,36.534h0.587c20.131,0,36.524-16.407,36.524-36.534v-71.36H429.214z"/>
	<path fill="#405D6E" d="M166.202,330.653c-0.258-5.515-4.764-9.897-10.337-9.897c-5.563,0-10.07,4.382-10.328,9.897h-0.053v71.36
		c0,8.697-7.061,15.745-15.771,15.745h-0.569c-8.692,0-15.749-7.048-15.749-15.745v-70.667c0-0.066,0.009-0.146,0.009-0.209
		c0-0.08-0.009-0.164-0.009-0.227v-0.258h-0.027c-0.267-5.515-4.777-9.897-10.323-9.897c-5.581,0-10.088,4.382-10.346,9.897h-0.08
		v71.36c0,20.126,16.389,36.534,36.524,36.534h0.569c20.153,0,36.534-16.407,36.534-36.534v-71.36H166.202z"/>
	<path fill="#405D6E" d="M277.628,320.756h-0.578c-10.248,0-19.5,4.253-26.144,11.061c-6.639-6.777-15.869-10.994-26.099-10.994
		h-0.569c-20.14,0-36.529,16.371-36.529,36.516v71.355h0.053c0.249,5.52,4.755,9.914,10.328,9.914
		c5.573,0,10.079-4.395,10.328-9.914h0.062v-71.355c0-8.715,7.048-15.763,15.758-15.763h0.569c8.488,0,15.376,6.692,15.74,15.087
		c0,0.209-0.036,0.404-0.036,0.613v71.369h0.054c0.093,2.071,0.795,3.995,1.924,5.568c1.876,2.648,4.951,4.395,8.462,4.395
		c5.568,0,10.074-4.395,10.332-9.914h0.071v-71.355c0-0.24-0.018-0.467-0.027-0.693c0.329-8.408,7.235-15.132,15.723-15.132h0.578
		c8.71,0,15.758,7.061,15.758,15.763v70.671c0,0.067-0.018,0.134-0.018,0.214c0,0.08,0.018,0.146,0.018,0.227v0.258h0.036
		c0.249,5.502,4.746,9.901,10.328,9.901c5.572,0,10.069-4.399,10.327-9.901h0.089v-71.369
		C314.166,337.132,297.768,320.756,277.628,320.756z"/>
	<g>
		<path fill="#405D6E" d="M572.774,320.69c-11.367,0-20.606,9.265-20.606,20.611c0,11.381,9.239,20.615,20.606,20.615
			c11.367,0,20.603-9.234,20.603-20.615C593.377,329.955,584.142,320.69,572.774,320.69z M572.774,356.921
			c-8.595,0-15.611-7.017-15.611-15.62c0-8.595,7.017-15.563,15.611-15.563c8.603,0,15.607,6.968,15.607,15.563
			C588.382,349.904,581.378,356.921,572.774,356.921z"/>
	</g>
	<g>
		<path fill="#405D6E" d="M566.375,333.915c0-1.404,1.066-2.195,2.195-2.195h5.288c3.902,0,6.453,2.391,6.453,5.999
			c0,2.844-1.751,4.897-4.497,5.412l3.821,4.12c0.596,0.649,0.916,1.164,0.916,1.893c0,0.631-0.561,2.035-2.249,2.035
			c-1.129,0-1.528-0.404-2.08-1.08l-5.386-6.808h-0.062v5.546c0,1.551-0.924,2.342-2.204,2.342c-1.262,0-2.195-0.791-2.195-2.342
			V333.915z M570.774,340.047h2.889c1.44,0,2.267-0.96,2.267-2.168c0-1.32-1.023-2.093-2.267-2.093h-2.889V340.047z"/>
	</g>
</g>
<g>
</g>
<g>
</g>
<g>
</g>
<g>
</g>
<g>
</g>
<g>
</g>
</svg>
