<svg xmlns="http://www.w3.org/2000/svg" xmlns:xlink="http://www.w3.org/1999/xlink" width="274.23mm" height="161.18mm" viewBox="0 0 777.35 456.9">
  <defs>
    <style>
      .cls-1, .cls-33 {
        fill: #fff;
      }

      .cls-11, .cls-16, .cls-17, .cls-18, .cls-2, .cls-21, .cls-22, .cls-32, .cls-6, .cls-7 {
        fill: none;
      }

      .cls-16, .cls-17, .cls-18, .cls-2, .cls-22 {
        stroke: #5889c7;
      }

      .cls-11, .cls-2, .cls-21, .cls-22 {
        stroke-miterlimit: 10;
      }

      .cls-3 {
        isolation: isolate;
      }

      .cls-10, .cls-4, .cls-5 {
        fill: #90b4df;
      }

      .cls-12, .cls-15, .cls-31, .cls-4, .cls-5, .cls-9 {
        opacity: 0.3;
      }

      .cls-4, .cls-9 {
        mix-blend-mode: multiply;
      }

      .cls-11, .cls-6 {
        stroke: #5e8ac7;
      }

      .cls-16, .cls-18, .cls-32, .cls-33, .cls-6 {
        stroke-linecap: round;
      }

      .cls-16, .cls-17, .cls-18, .cls-32, .cls-33, .cls-6 {
        stroke-linejoin: round;
      }

      .cls-11, .cls-16, .cls-17, .cls-21, .cls-22, .cls-32, .cls-33, .cls-6 {
        stroke-width: 1.5px;
      }

      .cls-8 {
        fill: #5e8ac7;
      }

      .cls-13 {
        clip-path: url(#clip-path);
      }

      .cls-14 {
        fill: #5889c7;
      }

      .cls-15, .cls-19 {
        fill: #82aedd;
      }

      .cls-20 {
        fill: #5089c2;
      }

      .cls-21 {
        stroke: #5089c2;
      }

      .cls-23 {
        fill: #91b4df;
        fill-opacity: 0.3;
      }

      .cls-24 {
        mask: url(#mask);
      }

      .cls-25 {
        fill: #5c8bc8;
      }

      .cls-26 {
        mask: url(#mask-2);
      }

      .cls-27 {
        fill: #82afdd;
      }

      .cls-28 {
        fill: #426895;
      }

      .cls-29, .cls-31 {
        fill: #92b5e0;
      }

      .cls-30 {
        fill: #5d8bc8;
      }

      .cls-32, .cls-33 {
        stroke: #5d8bc8;
      }
    </style>
    <clipPath id="clip-path" transform="translate(-4.03 -2.93)">
      <circle class="cls-2" cx="210.91" cy="194.23" r="27.67"/>
    </clipPath>
    <mask id="mask" x="19.85" y="281.83" width="64.62" height="40.06" maskUnits="userSpaceOnUse">
      <g transform="translate(-4.03 -2.93)">
        <g id="b">
          <polygon id="a" class="cls-1" points="23.88 284.75 23.88 324.82 88.5 324.82 88.5 284.75 23.88 284.75"/>
        </g>
      </g>
    </mask>
    <mask id="mask-2" x="19.85" y="281.83" width="72.3" height="43.44" maskUnits="userSpaceOnUse">
      <g transform="translate(-4.03 -2.93)">
        <g id="d">
          <polygon id="c" class="cls-1" points="23.88 328.2 96.18 328.2 96.18 284.75 23.88 284.75 23.88 328.2"/>
        </g>
      </g>
    </mask>
  </defs>
  <title>illu-icons-overview</title>
  <g class="cls-3">
    <g id="Layer_1" data-name="Layer 1">
      <path class="cls-4" d="M248.15,19.82v1.85a8.65,8.65,0,0,1-17,0h-.73a8.65,8.65,0,0,1-17,0h-.74a8.65,8.65,0,0,1-17,0H195a8.65,8.65,0,0,1-17,0V19.82a8.65,8.65,0,0,0,17,0h.73a8.65,8.65,0,0,0,17,0h.74a8.65,8.65,0,0,0,17,0h.73a8.65,8.65,0,0,0,17,0Z" transform="translate(-4.03 -2.93)"/>
      <path class="cls-4" d="M187.53,84H210.8a2.64,2.64,0,0,0,2.64-2.64v-3A2.64,2.64,0,0,1,210.8,81H187.53a2.64,2.64,0,0,1-2.64-2.64v3A2.64,2.64,0,0,0,187.53,84Z" transform="translate(-4.03 -2.93)"/>
      <path class="cls-4" d="M221.5,49.87h18.79a2.43,2.43,0,0,0,2.43-2.43V45.37c0,1.34-1.94,2.68-2.79,2.68H222.1c-1.34,0-3-1.09-3-2.43v1.82A2.43,2.43,0,0,0,221.5,49.87Z" transform="translate(-4.03 -2.93)"/>
      <path class="cls-4" d="M416.59,82h-43c-6.94,0-8.51-3.06-8.51-8.07v0l3-43.84c.2-3,1.65-4,2.75-5.5a0,0,0,0,0,0-.06,9.06,9.06,0,0,0-5.7,8.57l-4,43.84h0A8.81,8.81,0,0,0,369.61,86h43c2.71,0,5.13-2.36,6.68-4.47A8,8,0,0,1,416.59,82Z" transform="translate(-4.03 -2.93)"/>
      <path class="cls-5" d="M27.92,60.1,49.5,23.87a5,5,0,0,1,3.12-2.29l18.16-5c1.59-.37,2.86-.86,4.33-.44h0a9.17,9.17,0,0,0-6.57-.92l-18.15,5a5,5,0,0,0-3.12,2.29L25.7,58.71a7.75,7.75,0,0,0,2.69,10.63l1.46.87A7.75,7.75,0,0,1,27.92,60.1Z" transform="translate(-4.03 -2.93)"/>
      <path class="cls-6" d="M248.32,73.27V10.55c0-1.44-1.74-3.18-3.88-3.18H181.6a3.88,3.88,0,0,0-3.88,3.88V80.1A3.88,3.88,0,0,1,173.84,84h-3.72" transform="translate(-4.03 -2.93)"/>
      <circle class="cls-6" cx="244.29" cy="75.64" r="5.2"/>
      <g>
        <path class="cls-6" d="M195,19a8.65,8.65,0,0,1-17,0" transform="translate(-4.03 -2.93)"/>
        <path class="cls-6" d="M212.7,19a8.65,8.65,0,0,1-17,0" transform="translate(-4.03 -2.93)"/>
        <path class="cls-6" d="M230.43,19a8.65,8.65,0,0,1-17,0" transform="translate(-4.03 -2.93)"/>
        <path class="cls-6" d="M248.15,19a8.65,8.65,0,0,1-17,0" transform="translate(-4.03 -2.93)"/>
      </g>
      <path class="cls-6" d="M210.06,81.16H188.27a2.64,2.64,0,0,1-2.64-2.64V35.82a2.64,2.64,0,0,1,2.64-2.64h21.79a2.64,2.64,0,0,1,2.64,2.64V78.53A2.64,2.64,0,0,1,210.06,81.16Z" transform="translate(-4.03 -2.93)"/>
      <rect class="cls-6" x="215.65" y="30.25" width="22.35" height="14.44" rx="2.43" ry="2.43"/>
      <circle class="cls-4" cx="204.17" cy="53.46" r="1.88"/>
      <line class="cls-6" x1="378.06" y1="21.08" x2="394.31" y2="21.08"/>
      <path class="cls-6" d="M407.59,24a8.81,8.81,0,0,1,8.51,9.08l5,43.84A8.81,8.81,0,0,1,412.59,86h-43a8.81,8.81,0,0,1-8.51-9.08l4-43.84A8.81,8.81,0,0,1,373.61,24" transform="translate(-4.03 -2.93)"/>
      <circle class="cls-6" cx="374.19" cy="33.67" r="5.2"/>
      <circle class="cls-6" cx="398.21" cy="33.67" r="5.2"/>
      <path class="cls-6" d="M402.24,30.9V13a8.45,8.45,0,0,0-8.45-8.45h-7.12A8.45,8.45,0,0,0,378.22,13V30.9" transform="translate(-4.03 -2.93)"/>
      <path class="cls-6" d="M75.11,15.65a9.17,9.17,0,0,0-6.57-.92l-18.15,5A5,5,0,0,0,47.27,22L25.7,58.22a7.75,7.75,0,0,0,2.69,10.63l23,13.72a7.75,7.75,0,0,0,10.63-2.69L83.6,43.72a5,5,0,0,0,.5-3.91L80.89,26" transform="translate(-4.03 -2.93)"/>
      <path class="cls-6" d="M70.64,25.85a19.37,19.37,0,0,1,27.33-2" transform="translate(-4.03 -2.93)"/>
      <line class="cls-7" x1="-7.54" y1="-2.93" x2="-7.54" y2="-2.93"/>
      <circle class="cls-6" cx="67.12" cy="30.04" r="5.2" transform="translate(2.93 69.4) rotate(-59.21)"/>
      <circle class="cls-8" cx="204.17" cy="52.62" r="1.88"/>
      <circle class="cls-5" cx="712.52" cy="36.45" r="5.85"/>
      <g class="cls-9">
        <path class="cls-10" d="M725.15,78.82h-14a1.77,1.77,0,0,1-1.77-1.77V56.3C702.61,52.51,698,47.28,698,39c0-12.21,9.9-20.11,22.12-20.11l3.27,0,45.79-.49a2.45,2.45,0,0,0-1.74-.75l-46.38-.5-3.27,0A22.12,22.12,0,0,0,707,58.56V78a3.06,3.06,0,0,0,3.06,3.06h12.71a3.06,3.06,0,0,0,3-2.33A3.07,3.07,0,0,1,725.15,78.82Z" transform="translate(-4.03 -2.93)"/>
      </g>
      <path class="cls-4" d="M538.35,47.83s5.31,19.5,25,22c17.21,2.19,23.57-7.93,23.57-7.93l1.7,1.69a27.66,27.66,0,0,1-25.26,10C538.35,70.12,538.35,47.83,538.35,47.83Z" transform="translate(-4.03 -2.93)"/>
      <ellipse class="cls-11" cx="562.49" cy="43.65" rx="28.64" ry="4.25"/>
      <path class="cls-6" d="M586.66,65.54a28.71,28.71,0,0,1-48.74-18.67" transform="translate(-4.03 -2.93)"/>
      <path class="cls-6" d="M595.12,47a28.14,28.14,0,0,1-.56,4.18" transform="translate(-4.03 -2.93)"/>
      <path class="cls-6" d="M591,52.76a5.93,5.93,0,1,1-4.12,9.13" transform="translate(-4.03 -2.93)"/>
      <path class="cls-6" d="M590.7,70.21c8.37,1.48,13.71,3.72,13.71,6.24,0,4.46-16.8,8.07-37.53,8.07s-37.53-3.61-37.53-8.07c0-2.45,5.09-4.65,13.12-6.13" transform="translate(-4.03 -2.93)"/>
      <ellipse class="cls-4" cx="562.35" cy="43.59" rx="24.39" ry="2.3"/>
      <circle class="cls-6" cx="563.39" cy="28.41" r="5.06"/>
      <circle class="cls-6" cx="712.52" cy="35.54" r="5.06"/>
      <circle class="cls-6" cx="563.39" cy="14.78" r="3.7"/>
      <circle class="cls-6" cx="563.39" cy="3.58" r="2.83"/>
      <path class="cls-4" d="M575.23,72.89a24.44,24.44,0,0,1-8.52,1.33,25.29,25.29,0,0,1-8.26-1.17c-3.05.68-4.9,1.7-4.9,2.84,0,2,6.16,3.69,13.75,3.69S581,77.93,581,75.9C581,74.65,578.74,73.56,575.23,72.89Z" transform="translate(-4.03 -2.93)"/>
      <path class="cls-6" d="M725.53,67.92V59.64a22.13,22.13,0,0,0,13.84-17.54L767.61,36a2.46,2.46,0,0,0,1.94-2.41V19.94a2.46,2.46,0,0,0-2.44-2.46L720.73,17l-3.27,0A22.12,22.12,0,0,0,706.7,58.36V77.83a3.06,3.06,0,0,0,3.06,3.06h12.71a3.06,3.06,0,0,0,3.06-3.06" transform="translate(-4.03 -2.93)"/>
      <line class="cls-6" x1="711.69" y1="78.45" x2="711.69" y2="88.01"/>
      <line class="cls-6" x1="768.44" y1="17.41" x2="776.6" y2="17.41"/>
      <line class="cls-6" x1="768.44" y1="21.41" x2="776.6" y2="21.41"/>
      <line class="cls-6" x1="768.44" y1="29.42" x2="776.6" y2="29.42"/>
      <line class="cls-6" x1="768.44" y1="25.41" x2="776.6" y2="25.41"/>
      <path class="cls-5" d="M736.86,39.21c0,.32,0,.63,0,.94.36,0,.55-1,.55-1.48A17.46,17.46,0,0,0,723.08,21s0,0,0,.05v.08a.64.64,0,0,1,0,.15A18.51,18.51,0,0,1,736.86,39.21Z" transform="translate(-4.03 -2.93)"/>
      <path class="cls-6" d="M723.3,21.92a18.22,18.22,0,0,1,13,17.45" transform="translate(-4.03 -2.93)"/>
      <g>
        <g class="cls-12">
          <path class="cls-10" d="M87.07,202.72H80.74l.17.19a1,1,0,0,1,.21.4,3.6,3.6,0,0,1,.94,2.15.73.73,0,0,1,0,.23h2.18a3.36,3.36,0,0,0,3.34-3A3.34,3.34,0,0,1,87.07,202.72Z" transform="translate(-4.03 -2.93)"/>
        </g>
        <g class="cls-12">
          <path class="cls-10" d="M70.51,205.69a1.1,1.1,0,0,1,0-.89v0a1.08,1.08,0,0,1,0-.2,12.69,12.69,0,0,1,.53-1.5,1.18,1.18,0,0,1,.24-.36H48.74A1.09,1.09,0,0,1,49,203l.07.14a4.93,4.93,0,0,1,1,1.79.85.85,0,0,1-.06.72Z" transform="translate(-4.03 -2.93)"/>
        </g>
        <g class="cls-12">
          <path class="cls-10" d="M38.55,205.39a1,1,0,0,1,.12-.59l.1-.2a11.8,11.8,0,0,1,.52-1.26,1,1,0,0,1,.26-.33l.1-.2a.77.77,0,0,1,.06-.09H32.24a1,1,0,0,1-1-1l-1.75-36.82H29a.59.59,0,0,0-.59.59V203.1A2.59,2.59,0,0,0,31,205.69h7.57A1,1,0,0,1,38.55,205.39Z" transform="translate(-4.03 -2.93)"/>
        </g>
        <path class="cls-8" d="M44.29,212.17A6.17,6.17,0,1,1,50.46,206,6.18,6.18,0,0,1,44.29,212.17Zm0-10.75A4.58,4.58,0,1,0,48.87,206,4.58,4.58,0,0,0,44.29,201.43Z" transform="translate(-4.03 -2.93)"/>
        <g class="cls-12">
          <circle class="cls-10" cx="40.26" cy="203.08" r="3.14"/>
        </g>
        <g class="cls-12">
          <circle class="cls-10" cx="72.13" cy="203.08" r="3.14"/>
        </g>
        <path class="cls-8" d="M76.15,212.17A6.17,6.17,0,1,1,82.32,206,6.18,6.18,0,0,1,76.15,212.17Zm0-10.75A4.58,4.58,0,1,0,80.73,206,4.58,4.58,0,0,0,76.15,201.43Z" transform="translate(-4.03 -2.93)"/>
        <path class="cls-8" d="M38.91,206.8H30.58A3.84,3.84,0,0,1,26.75,203v-36.2a3.4,3.4,0,0,1,3.39-3.39H60.85a4,4,0,0,1,4,4v17.22a.8.8,0,1,1-1.59,0V167.35A2.38,2.38,0,0,0,60.85,165H30.14a1.8,1.8,0,0,0-1.8,1.8V203a2.24,2.24,0,0,0,2.24,2.24h8.33a.8.8,0,1,1,0,1.59Z" transform="translate(-4.03 -2.93)"/>
        <path class="cls-8" d="M64,206.8H49.66a.8.8,0,1,1,0-1.59H64a.8.8,0,1,1,0,1.59Z" transform="translate(-4.03 -2.93)"/>
        <path class="cls-8" d="M70.78,206.8H64a.8.8,0,1,1,0-1.59h6.75a.8.8,0,1,1,0,1.59Z" transform="translate(-4.03 -2.93)"/>
        <path class="cls-8" d="M84.81,206.8H81.52a.8.8,0,1,1,0-1.59h3.28a2.67,2.67,0,0,0,2.67-2.67v-9.81A13.46,13.46,0,0,0,74,179.29H71.09a.8.8,0,1,1,0-1.59H74a15.05,15.05,0,0,1,15,15v9.81A4.26,4.26,0,0,1,84.81,206.8Z" transform="translate(-4.03 -2.93)"/>
        <path class="cls-8" d="M24.29,168.18H4.83a.8.8,0,1,1,0-1.59H24.29a.8.8,0,1,1,0,1.59Z" transform="translate(-4.03 -2.93)"/>
        <path class="cls-8" d="M24.29,173.36H8a.8.8,0,0,1,0-1.59H24.29a.8.8,0,0,1,0,1.59Z" transform="translate(-4.03 -2.93)"/>
        <path class="cls-8" d="M24.29,178.31H11.2a.8.8,0,1,1,0-1.59H24.29a.8.8,0,1,1,0,1.59Z" transform="translate(-4.03 -2.93)"/>
      </g>
      <path class="cls-6" d="M853.83,310.7" transform="translate(-4.03 -2.93)"/>
      <g>
        <g>
          <g class="cls-13">
            <g>
              <path class="cls-14" d="M224.1,234.11H197.71a3.24,3.24,0,0,1-3.23-3.23V185.53a3.24,3.24,0,0,1,3.23-3.23H224.1a3.24,3.24,0,0,1,3.23,3.23v45.35A3.24,3.24,0,0,1,224.1,234.11Zm-26.39-50.22a1.64,1.64,0,0,0-1.64,1.64v45.35a1.64,1.64,0,0,0,1.64,1.64H224.1a1.64,1.64,0,0,0,1.64-1.64V185.53a1.64,1.64,0,0,0-1.64-1.64Z" transform="translate(-4.03 -2.93)"/>
              <path class="cls-14" d="M210.91,215.91a7.71,7.71,0,1,1,7.7-7.71A7.71,7.71,0,0,1,210.91,215.91Zm0-13.81A6.11,6.11,0,1,0,217,208.2,6.12,6.12,0,0,0,210.91,202.09Z" transform="translate(-4.03 -2.93)"/>
              <path class="cls-14" d="M212.66,209.95l-.19-.13c-.15-.11-.15-.23,0-.39a2.15,2.15,0,0,0,.46-1.26.91.91,0,0,0-.86-1c-1.21,0-1,2.86-2.79,2.86a1.66,1.66,0,0,1-1.6-1.53h-.5a.24.24,0,0,1-.27-.26v-.07c0-.17.08-.26.24-.26h.53a2.36,2.36,0,0,1,.42-1.22.26.26,0,0,1,.37-.07l.21.11a.24.24,0,0,1,.07.38,2,2,0,0,0-.33,1,1,1,0,0,0,.85,1.06c1.16,0,.92-2.86,2.78-2.86a1.64,1.64,0,0,1,1.63,1.56h.49c.17,0,.27.08.27.26v.07c0,.17-.08.26-.24.26h-.52a2.72,2.72,0,0,1-.58,1.43A.24.24,0,0,1,212.66,209.95Z" transform="translate(-4.03 -2.93)"/>
              <g>
                <path class="cls-14" d="M198.58,228H197V189.31l.68-.1a4,4,0,0,0,3.29-3.05l.14-.62h17v1.6H202.33a5.6,5.6,0,0,1-3.75,3.51Z" transform="translate(-4.03 -2.93)"/>
                <path class="cls-14" d="M224.83,228h-1.6V190.65a5.6,5.6,0,0,1-3.75-3.51H203.74v-1.6h17l.14.62a4,4,0,0,0,3.29,3.05l.68.1Z" transform="translate(-4.03 -2.93)"/>
              </g>
              <g>
                <path class="cls-2" d="M218.08,231.17H201.73a4.77,4.77,0,0,0-3.95-3.67v-38" transform="translate(-4.03 -2.93)"/>
                <path class="cls-2" d="M203.74,231.17h16.34A4.77,4.77,0,0,1,224,227.5v-38" transform="translate(-4.03 -2.93)"/>
              </g>
            </g>
          </g>
          <circle class="cls-2" cx="206.88" cy="191.31" r="27.67"/>
        </g>
        <path class="cls-14" d="M210.91,222.7a28.47,28.47,0,1,1,28.47-28.47A28.5,28.5,0,0,1,210.91,222.7Zm0-55.34a26.87,26.87,0,1,0,26.87,26.87A26.9,26.9,0,0,0,210.91,167.36Z" transform="translate(-4.03 -2.93)"/>
        <path class="cls-15" d="M210.91,218.71a27.67,27.67,0,0,1-27.62-26.07c0,.53,0,1.06,0,1.6a27.67,27.67,0,1,0,55.34,0c0-.54,0-1.07,0-1.6A27.67,27.67,0,0,1,210.91,218.71Z" transform="translate(-4.03 -2.93)"/>
        <path class="cls-14" d="M210.91,164.67a.8.8,0,0,1-.8-.8V144.72a.8.8,0,1,1,1.6,0v19.16A.8.8,0,0,1,210.91,164.67Z" transform="translate(-4.03 -2.93)"/>
        <path class="cls-14" d="M210.91,145.39a5.19,5.19,0,1,1,5.19-5.19A5.19,5.19,0,0,1,210.91,145.39Zm0-8.78a3.59,3.59,0,1,0,3.59,3.59A3.6,3.6,0,0,0,210.91,136.61Z" transform="translate(-4.03 -2.93)"/>
        <path class="cls-14" d="M191.6,171.33a.8.8,0,0,1-.56-.23L181.9,162a.8.8,0,0,1,1.13-1.13l9.14,9.14a.8.8,0,0,1-.56,1.36Z" transform="translate(-4.03 -2.93)"/>
        <path class="cls-14" d="M179.27,163.39a5.19,5.19,0,1,1,3.67-8.86h0a5.19,5.19,0,0,1-3.67,8.86Zm0-8.78a3.59,3.59,0,0,0-2.54,6.13,3.68,3.68,0,0,0,5.08,0,3.59,3.59,0,0,0,0-5.08h0A3.58,3.58,0,0,0,179.27,154.61Z" transform="translate(-4.03 -2.93)"/>
        <line class="cls-16" x1="235.37" y1="158.89" x2="226.23" y2="168.02"/>
        <path class="cls-14" d="M242.59,163.8a5.18,5.18,0,1,1,3.67-1.52A5.17,5.17,0,0,1,242.59,163.8Zm0-8.78a3.59,3.59,0,1,0,2.54,1.05A3.58,3.58,0,0,0,242.59,155Z" transform="translate(-4.03 -2.93)"/>
      </g>
      <g>
        <path class="cls-15" d="M408,218.46h-40.3a7.34,7.34,0,0,1-7.34-7.34v2.34a7.34,7.34,0,0,0,7.34,7.34H408a7.34,7.34,0,0,0,7.34-7.34v-2.34A7.34,7.34,0,0,1,408,218.46Z" transform="translate(-4.03 -2.93)"/>
        <rect class="cls-17" x="365.52" y="175.53" width="36.68" height="10.51" rx="0.78" ry="0.78"/>
        <path class="cls-15" d="M371.62,187.84a.91.91,0,0,1-.91-.91v-8.48h-.26a.91.91,0,0,0-.91.91v8.7a.91.91,0,0,0,.91.91h34.87a.91.91,0,0,0,.91-.91v-.22Z" transform="translate(-4.03 -2.93)"/>
        <path class="cls-14" d="M372.12,197.8a.12.12,0,0,1,.13-.13h.68V195c0-.1,0-.2,0-.2h0a1,1,0,0,1-.18.21l-.3.3a.11.11,0,0,1-.17,0l0-.05a.11.11,0,0,1,0-.17l.66-.66a.2.2,0,0,1,.15-.07h.12a.11.11,0,0,1,.12.13v3.16H374a.12.12,0,0,1,.13.13v.06a.12.12,0,0,1-.13.13h-1.7a.12.12,0,0,1-.13-.13Z" transform="translate(-4.03 -2.93)"/>
        <path class="cls-14" d="M381.69,197.86c0-1.27,1.85-1.43,1.85-2.41a.69.69,0,0,0-.75-.69.94.94,0,0,0-.73.39.12.12,0,0,1-.18,0l-.06,0a.11.11,0,0,1,0-.17,1.24,1.24,0,0,1,1-.54,1,1,0,0,1,1.1,1c0,1.21-1.83,1.38-1.84,2.34h1.77a.12.12,0,0,1,.13.13V198a.12.12,0,0,1-.13.13h-2a.13.13,0,0,1-.14-.13Z" transform="translate(-4.03 -2.93)"/>
        <path class="cls-14" d="M392.39,197.56l.06-.08c.05-.06.11-.06.17,0a1.29,1.29,0,0,0,.83.34.8.8,0,0,0,.83-.78.81.81,0,0,0-.91-.77h-.14a.13.13,0,0,1-.14-.09l0,0a.15.15,0,0,1,0-.17l.84-1a2,2,0,0,1,.19-.2h-1.52a.12.12,0,0,1-.13-.13v-.06a.12.12,0,0,1,.13-.13h1.85c.08,0,.13,0,.13.12v0a.22.22,0,0,1-.06.16l-1,1.18a1.09,1.09,0,0,1,1.13,1.06,1.15,1.15,0,0,1-1.19,1.13,1.65,1.65,0,0,1-1.06-.41A.12.12,0,0,1,392.39,197.56Z" transform="translate(-4.03 -2.93)"/>
        <path class="cls-14" d="M372,204.46v0a.23.23,0,0,1,0-.16l1.67-2.23a.18.18,0,0,1,.15-.08h.16a.11.11,0,0,1,.12.13v2.17h.39a.11.11,0,0,1,.12.12v.06c0,.08,0,.12-.11.12h-.4v.87a.11.11,0,0,1-.12.13H374a.12.12,0,0,1-.13-.13v-.87h-1.68A.11.11,0,0,1,372,204.46Zm1.8-.18v-1.51c0-.15,0-.34,0-.34h0s-.09.15-.18.28l-1.21,1.57h1.38Z" transform="translate(-4.03 -2.93)"/>
        <path class="cls-14" d="M381.74,205.15l.06-.07a.11.11,0,0,1,.17,0,1,1,0,0,0,.73.33.86.86,0,0,0,.9-.85.87.87,0,0,0-.91-.85,1.24,1.24,0,0,0-.57.16.2.2,0,0,1-.17,0h0a.14.14,0,0,1-.09-.15l.17-1.53a.12.12,0,0,1,.13-.12h1.5a.12.12,0,0,1,.13.13v.06a.12.12,0,0,1-.13.13h-1.31l-.1.92a1.56,1.56,0,0,1,0,.21h0a1.14,1.14,0,0,1,.55-.14,1.18,1.18,0,0,1,1.24,1.18,1.21,1.21,0,0,1-1.25,1.19,1.33,1.33,0,0,1-1-.42A.11.11,0,0,1,381.74,205.15Z" transform="translate(-4.03 -2.93)"/>
        <path class="cls-14" d="M394,202a1.56,1.56,0,0,1,.55.1.11.11,0,0,1,.07.16l0,.08c0,.08-.09.09-.16.07a1.08,1.08,0,0,0-.41-.08c-.76,0-1.14.75-1.21,1.46h0a1.13,1.13,0,0,1,.93-.43,1.09,1.09,0,0,1,1.11,1.15,1.13,1.13,0,0,1-1.13,1.22c-.79,0-1.3-.72-1.3-1.69S392.9,202,394,202Zm-.29,3.4a.86.86,0,0,0,0-1.72c-.48,0-.87.32-.87.63C392.82,204.77,393.18,205.41,393.73,205.41Z" transform="translate(-4.03 -2.93)"/>
        <path class="cls-14" d="M373.8,210a3,3,0,0,1,.2-.33h-1.83a.12.12,0,0,1-.13-.13v-.06a.12.12,0,0,1,.13-.13h2.09c.08,0,.13,0,.13.12v0a.35.35,0,0,1,0,.16l-1.59,3.19a.15.15,0,0,1-.15.09h-.1c-.1,0-.13-.06-.09-.15Z" transform="translate(-4.03 -2.93)"/>
        <path class="cls-14" d="M382.33,211a.85.85,0,0,1-.46-.73c0-.47.36-.91,1.09-.91s1.1.37,1.1.93a1.52,1.52,0,0,1-.45,1,.87.87,0,0,1,.53.78,1.11,1.11,0,0,1-1.2,1,1.13,1.13,0,0,1-1.23-1.08A1.25,1.25,0,0,1,382.33,211Zm.62,1.76a.79.79,0,0,0,.84-.7c0-.49-.57-.62-1.17-.9a1,1,0,0,0-.52.82A.82.82,0,0,0,382.95,212.79Zm.77-2.44c0-.41-.31-.64-.75-.64s-.73.27-.73.59c0,.48.57.63,1.1.86A1.27,1.27,0,0,0,383.71,210.35Z" transform="translate(-4.03 -2.93)"/>
        <path class="cls-14" d="M392.66,212.77c0-.08.08-.09.16-.07a1.09,1.09,0,0,0,.41.08c.76,0,1.14-.75,1.21-1.46h0a1.14,1.14,0,0,1-.93.43,1.09,1.09,0,0,1-1.11-1.16,1.12,1.12,0,0,1,1.13-1.21c.78,0,1.3.72,1.3,1.69s-.47,2-1.59,2a1.59,1.59,0,0,1-.54-.1.1.1,0,0,1-.07-.16Zm1.78-2c0-.46-.36-1.09-.91-1.09a.86.86,0,0,0,.05,1.72C394.05,211.44,394.43,211.11,394.43,210.81Z" transform="translate(-4.03 -2.93)"/>
        <g>
          <line class="cls-18" x1="397.7" y1="192.06" x2="400.6" y2="194.96"/>
          <line class="cls-18" x1="400.6" y1="192.06" x2="397.7" y2="194.96"/>
        </g>
        <g>
          <line class="cls-18" x1="397.63" y1="201.92" x2="401.24" y2="201.92"/>
          <polyline class="cls-18" points="398.51 203.43 397.05 201.9 398.51 200.4"/>
        </g>
        <polyline class="cls-18" points="397.63 208.21 398.93 209.52 401.05 207.21"/>
        <g class="cls-12">
          <rect class="cls-19" x="366.24" y="163.16" width="34.8" height="2.34"/>
        </g>
        <rect class="cls-17" x="370.53" y="133.91" width="3.94" height="12.12"/>
        <path class="cls-20" d="M426.23,156.22l.14-.2c.11-.16.24-.16.41-.05a2.26,2.26,0,0,0,1.33.48,1,1,0,0,0,1.07-.9c0-1.27-3-1.07-3-2.93a1.75,1.75,0,0,1,1.61-1.68v-.53a.25.25,0,0,1,.28-.29h.07c.18,0,.27.09.27.25v.56a2.48,2.48,0,0,1,1.29.44.27.27,0,0,1,.08.39l-.11.22c-.09.16-.23.18-.4.08a2.06,2.06,0,0,0-1.1-.35,1,1,0,0,0-1.11.89c0,1.21,3,1,3,2.92a1.72,1.72,0,0,1-1.64,1.71v.51c0,.18-.09.29-.27.29h-.07c-.18,0-.28-.09-.28-.25v-.55a2.85,2.85,0,0,1-1.5-.61A.25.25,0,0,1,426.23,156.22Z" transform="translate(-4.03 -2.93)"/>
        <circle class="cls-21" cx="424.03" cy="151.46" r="6.04"/>
        <path class="cls-20" d="M417.39,140.36l.09-.12c.07-.1.15-.1.25,0a1.4,1.4,0,0,0,.82.29.59.59,0,0,0,.66-.56c0-.78-1.85-.66-1.85-1.8a1.08,1.08,0,0,1,1-1v-.33a.15.15,0,0,1,.17-.18h0c.11,0,.17.05.17.16v.34a1.52,1.52,0,0,1,.79.27.17.17,0,0,1,0,.24l-.07.13c-.06.1-.14.11-.25,0a1.27,1.27,0,0,0-.68-.21.62.62,0,0,0-.68.55c0,.75,1.85.59,1.85,1.8a1.06,1.06,0,0,1-1,1.05v.32c0,.11-.05.18-.17.18h0c-.11,0-.17-.05-.17-.16V141a1.75,1.75,0,0,1-.93-.37A.16.16,0,0,1,417.39,140.36Z" transform="translate(-4.03 -2.93)"/>
        <circle class="cls-21" cx="414.49" cy="136.31" r="3.71"/>
        <path class="cls-20" d="M424.23,174.22l.1-.15c.08-.12.18-.12.3,0a1.67,1.67,0,0,0,1,.35.71.71,0,0,0,.79-.67c0-.94-2.23-.79-2.23-2.17a1.29,1.29,0,0,1,1.19-1.25v-.39a.19.19,0,0,1,.21-.21h.05c.14,0,.2.06.2.19v.41a1.84,1.84,0,0,1,1,.33.2.2,0,0,1,.06.29l-.08.16a.19.19,0,0,1-.3.06,1.53,1.53,0,0,0-.82-.26.74.74,0,0,0-.82.66c0,.9,2.23.71,2.23,2.16a1.27,1.27,0,0,1-1.22,1.27v.38c0,.14-.06.21-.2.21h-.05c-.13,0-.21-.06-.21-.19V175a2.11,2.11,0,0,1-1.11-.45A.19.19,0,0,1,424.23,174.22Z" transform="translate(-4.03 -2.93)"/>
        <circle class="cls-21" cx="421.56" cy="169.93" r="4.47"/>
        <rect class="cls-17" x="365.52" y="175.53" width="36.68" height="10.51" rx="0.78" ry="0.78"/>
        <rect class="cls-22" x="356.37" y="165.5" width="54.98" height="52.37" rx="6.28" ry="6.28"/>
        <path class="cls-16" d="M405.08,160.42v8h-34.8V134.91a2.89,2.89,0,0,1,2.89-2.89h29a2.91,2.91,0,0,1,2.91,2.91v19.45" transform="translate(-4.03 -2.93)"/>
      </g>
      <g>
        <path class="cls-16" d="M536.18,157.55a35.28,35.28,0,1,1-5.42,10" transform="translate(-4.03 -2.93)"/>
        <path class="cls-16" d="M590.39,171.68a51.38,51.38,0,0,1,.59,7.8c0,19.39-10.65,35.1-23.78,35.1" transform="translate(-4.03 -2.93)"/>
        <path class="cls-16" d="M567.2,144.37c8.45,0,15.87,6.5,20.09,16.31" transform="translate(-4.03 -2.93)"/>
        <path class="cls-16" d="M554.92,194.83c2.48,11.7,7.26,19.75,10.52,19.75" transform="translate(-4.03 -2.93)"/>
        <path class="cls-16" d="M565.44,143.82c-4.57,0-12.14,15.84-12.14,35.38q0,2.25.13,4.43" transform="translate(-4.03 -2.93)"/>
        <path class="cls-16" d="M565.44,214.57c4.57,0,12.14-15.84,12.14-35.38s-7.57-35.38-12.14-35.38" transform="translate(-4.03 -2.93)"/>
        <path class="cls-16" d="M563.47,144.37c-13.13,0-23.78,15.72-23.78,35.1s10.65,35.1,23.78,35.1" transform="translate(-4.03 -2.93)"/>
        <line class="cls-16" x1="524.79" y1="176.27" x2="595.64" y2="176.27"/>
        <path class="cls-16" d="M589.06,153.92c-5.68,3.58-14.42,5.88-24.22,5.88-10.22,0-19.29-2.5-24.94-6.35" transform="translate(-4.03 -2.93)"/>
        <path class="cls-16" d="M589.06,204.33c-5.68-3.58-14.42-5.88-24.22-5.88-10.22,0-19.29,2.5-24.94,6.35" transform="translate(-4.03 -2.93)"/>
        <line class="cls-16" x1="561.41" y1="140.89" x2="561.41" y2="211.23"/>
        <circle class="cls-16" cx="589.06" cy="165.67" r="3.75" transform="translate(-25.14 116.61) rotate(-11.38)"/>
        <circle class="cls-16" cx="554.31" cy="189.26" r="3.75" transform="translate(306.47 718.92) rotate(-84.25)"/>
        <circle class="cls-16" cx="532.91" cy="162.47" r="3.75" transform="translate(313.87 673.51) rotate(-84.25)"/>
        <path class="cls-15" d="M599.42,179.47a35.18,35.18,0,0,1-70.36,0c0-.81,0-1.63.1-2.43a35.17,35.17,0,0,0,70.17,0C599.4,177.84,599.42,178.66,599.42,179.47Z" transform="translate(-4.03 -2.93)"/>
      </g>
      <g>
        <path class="cls-23" d="M93.18,325.45H82.6a2.25,2.25,0,0,1-2.25-2.25v2a2.25,2.25,0,0,0,2.25,2.25H93.18a2.25,2.25,0,0,0,2.25-2.25v-2a2.25,2.25,0,0,1-2.25,2.25Zm-15.77-4.38H29.81a5.19,5.19,0,0,1-5.19-5.19v3a5.19,5.19,0,0,0,5.19,5.18h47.6Z" transform="translate(-4.03 -2.93)"/>
        <g class="cls-24">
          <path class="cls-25" d="M77.48,324.82H29.81a5.94,5.94,0,0,1-5.94-5.93V290.69a5.94,5.94,0,0,1,5.94-5.94H82.56a5.94,5.94,0,0,1,5.94,5.94v8.68a.75.75,0,0,1-1.5,0v-8.68a4.44,4.44,0,0,0-4.44-4.44H29.81a4.44,4.44,0,0,0-4.44,4.44v28.19a4.44,4.44,0,0,0,4.44,4.43H77.48a.75.75,0,1,1,0,1.5" transform="translate(-4.03 -2.93)"/>
        </g>
        <path class="cls-25" d="M82.6,313.12a1.5,1.5,0,0,0-1.5,1.5V325.2a1.5,1.5,0,0,0,1.5,1.5H93.18a1.5,1.5,0,0,0,1.5-1.5V314.62a1.5,1.5,0,0,0-1.5-1.5ZM93.18,328.2H82.6a3,3,0,0,1-3-3V314.62a3,3,0,0,1,3-3H93.18a3,3,0,0,1,3,3V325.2a3,3,0,0,1-3,3Z" transform="translate(-4.03 -2.93)"/>
        <path class="cls-25" d="M84.08,311.62h7.56v-5.71A1.91,1.91,0,0,0,89.73,304H86a1.91,1.91,0,0,0-1.91,1.91Zm8.31,1.5H83.33a.75.75,0,0,1-.75-.75v-6.46A3.41,3.41,0,0,1,86,302.5h3.74a3.41,3.41,0,0,1,3.41,3.41v6.46a.75.75,0,0,1-.75.75Zm-4.68,9.18h.36v-2.71a.75.75,0,0,1,.3-.6.81.81,0,0,0,.35-.68.83.83,0,0,0-.87-.79.81.81,0,0,0-.44,1.48.75.75,0,0,1,.3.6Zm1.11,1.5H87a.75.75,0,0,1-.75-.75v-3.11a2.28,2.28,0,0,1-.65-1.48,2.33,2.33,0,0,1,4.66-.22h0a2.26,2.26,0,0,1-.65,1.69V323a.75.75,0,0,1-.75.75Zm-56.34-31a1.07,1.07,0,0,0-1.07,1.07v6.3a1.07,1.07,0,0,0,1.07,1.07h6.3a1.07,1.07,0,0,0,1.07-1.07v-6.3a1.07,1.07,0,0,0-1.07-1.07Zm6.3,9.94h-6.3a2.57,2.57,0,0,1-2.57-2.57v-6.3a2.57,2.57,0,0,1,2.57-2.57h6.3a2.57,2.57,0,0,1,2.57,2.57v6.3a2.57,2.57,0,0,1-2.57,2.57Z" transform="translate(-4.03 -2.93)"/>
        <g class="cls-26">
          <path class="cls-25" d="M31.42,312.85H75.58v-1.62H31.42Zm44.92,1.5H30.67a.75.75,0,0,1-.75-.75v-3.12a.75.75,0,0,1,.75-.75H76.33a.75.75,0,0,1,.75.75v3.12a.75.75,0,0,1-.75.75Z" transform="translate(-4.03 -2.93)"/>
        </g>
      </g>
      <g>
        <g class="cls-12">
          <path class="cls-27" d="M727.23,150.64a37.74,37.74,0,0,1-20.45-3.38l-.46,1s10.14,4.77,20.91,3.56a7.46,7.46,0,0,0,3.17-.84c.57-.39-.56-.83-1.34-.64A14.56,14.56,0,0,1,727.23,150.64Z" transform="translate(-4.03 -2.93)"/>
        </g>
        <path class="cls-14" d="M748.14,215.12H688.46a2.76,2.76,0,0,1-2.76-2.76V195.84a.81.81,0,1,1,1.62,0v16.52a1.14,1.14,0,0,0,1.14,1.14h59.68a1.14,1.14,0,0,0,1.14-1.14V188.23a7.41,7.41,0,0,0-7.41-7.41H694.73a7.41,7.41,0,0,0-7.41,7.41.81.81,0,0,1-1.62,0,9,9,0,0,1,9-9h47.15a9,9,0,0,1,9,9v24.13A2.76,2.76,0,0,1,748.14,215.12Z" transform="translate(-4.03 -2.93)"/>
        <path class="cls-14" d="M727.8,176.81h-19A3.85,3.85,0,0,1,705,173V149.2a3.85,3.85,0,0,1,3.84-3.84h19.81V147H708.81a2.23,2.23,0,0,0-2.23,2.23V173a2.23,2.23,0,0,0,2.23,2.23h19A2.23,2.23,0,0,0,730,173V150.46h1.62V173A3.85,3.85,0,0,1,727.8,176.81Z" transform="translate(-4.03 -2.93)"/>
        <rect class="cls-28" x="711.9" y="181.23" width="4.9" height="4.9" rx="1.28" ry="1.28"/>
        <path class="cls-28" d="M721.59,202.74l-2.68,3.16a.78.78,0,0,1-1.2,0l-2.62-3.24a1,1,0,0,1-.23-.76l1-10.4a.9.9,0,0,1,.9-.82h3.36a.76.76,0,0,1,.76.69l1,10.4A1.3,1.3,0,0,1,721.59,202.74Z" transform="translate(-4.03 -2.93)"/>
        <path class="cls-27" d="M736.26,192.93l-.14-.2a2.95,2.95,0,0,0-5.39.27,2.2,2.2,0,0,1-1-.27l-.14.2a5.45,5.45,0,0,0-.58,2.45,4.36,4.36,0,1,0,7.86,0A5.45,5.45,0,0,0,736.26,192.93Z" transform="translate(-4.03 -2.93)"/>
        <g class="cls-12">
          <rect class="cls-27" x="736.23" y="195.5" width="1.5" height="15.5"/>
        </g>
        <path class="cls-14" d="M740.26,215.12a.81.81,0,0,1-.81-.81V198.74a.81.81,0,1,1,1.62,0v15.57A.81.81,0,0,1,740.26,215.12Z" transform="translate(-4.03 -2.93)"/>
        <g class="cls-12">
          <rect class="cls-27" x="693.31" y="195.5" width="1.5" height="15.5"/>
        </g>
        <path class="cls-14" d="M697.34,215.12a.81.81,0,0,1-.81-.81V198.74a.81.81,0,1,1,1.62,0v15.57A.81.81,0,0,1,697.34,215.12Z" transform="translate(-4.03 -2.93)"/>
        <g class="cls-12">
          <path class="cls-27" d="M707.85,152.77h8.95a0,0,0,0,1,0,0v3.57a3.52,3.52,0,0,1-3.52,3.52h-1.93a3.5,3.5,0,0,1-3.5-3.5v-3.59a0,0,0,0,1,0,0Z"/>
        </g>
        <g class="cls-12">
          <path class="cls-27" d="M718.48,152.77h8.95a0,0,0,0,1,0,0v3.57a3.52,3.52,0,0,1-3.52,3.52H722a3.5,3.5,0,0,1-3.5-3.5v-3.59A0,0,0,0,1,718.48,152.77Z"/>
        </g>
        <path class="cls-27" d="M731.85,156.51H704.61a.81.81,0,1,1,0-1.62h27.24a.81.81,0,0,1,0,1.62Z" transform="translate(-4.03 -2.93)"/>
        <path class="cls-27" d="M723.71,158.84a.8.8,0,0,1-.57-.24,1.76,1.76,0,0,0-2.49,0,.81.81,0,0,1-1.14-1.14,3.38,3.38,0,0,1,4.77,0,.81.81,0,0,1-.57,1.38Z" transform="translate(-4.03 -2.93)"/>
        <path class="cls-14" d="M707,144.54a.81.81,0,0,1-.79-.66l-.69-3.59a.81.81,0,0,1,.6-.94l19-4.75a.81.81,0,0,1,.68.13l4.25,3.14a.81.81,0,0,1,.31.82l-1,4.9a.81.81,0,0,1-.78.64l-21.57.3Zm.25-3.8.42,2.17,20.24-.28.79-3.76-3.53-2.6Z" transform="translate(-4.03 -2.93)"/>
        <path class="cls-14" d="M724.35,151.78c-10.65,0-17.23-3.86-17.54-4a.81.81,0,0,1,.83-1.39c.08.05,8.58,5,21.62,3.54,2.38-.27,2.71-.71,2.72-.73-.13-.37-2-1.51-3.77-2.24a.81.81,0,0,1,.6-1.5c1.88.75,5,2.28,4.76,4-.19,1.44-2.31,1.86-4.12,2.06A45.36,45.36,0,0,1,724.35,151.78Z" transform="translate(-4.03 -2.93)"/>
      </g>
      <g class="cls-12">
        <path class="cls-29" d="M206.54,324.82V311.08a3.93,3.93,0,0,0-1.52-3.16,20.89,20.89,0,0,1,8.87-37.3,20.08,20.08,0,0,0-2.83-.31,20.88,20.88,0,0,0-13.13,37.6,3.93,3.93,0,0,1,1.52,3.16v13.75a6.73,6.73,0,0,0,6.73,6.73h7.09A6.73,6.73,0,0,1,206.54,324.82Z" transform="translate(-4.03 -2.93)"/>
      </g>
      <path class="cls-30" d="M215.45,332.31h-8.54a7.49,7.49,0,0,1-7.48-7.48V311.08a3.19,3.19,0,0,0-1.21-2.56,21.64,21.64,0,0,1,13.6-39,21.71,21.71,0,0,1,15.69,7.57.75.75,0,1,1-1.13,1,20.2,20.2,0,0,0-14.6-7.05,20.13,20.13,0,0,0-12.66,36.25,4.69,4.69,0,0,1,1.82,3.76v13.75a6,6,0,0,0,6,6h8.54a6,6,0,0,0,5.95-6V311a4.62,4.62,0,0,1,1.8-3.72,19.94,19.94,0,0,0,8.12-16,19.51,19.51,0,0,0-1.27-7.11.75.75,0,1,1,1.4-.53,21,21,0,0,1,1.37,7.65,21.43,21.43,0,0,1-8.73,17.16A3.11,3.11,0,0,0,222.9,311v13.81A7.46,7.46,0,0,1,215.45,332.31Z" transform="translate(-4.03 -2.93)"/>
      <path class="cls-30" d="M211.18,320.51a.75.75,0,0,1-.75-.75V297a.75.75,0,0,1,1.5,0v22.76A.75.75,0,0,1,211.18,320.51Z" transform="translate(-4.03 -2.93)"/>
      <path class="cls-30" d="M222.15,320.51H200.62a.75.75,0,0,1,0-1.5h21.53a.75.75,0,1,1,0,1.5Z" transform="translate(-4.03 -2.93)"/>
      <path class="cls-30" d="M211.18,297.74a6.14,6.14,0,1,1,6.14-6.14A6.14,6.14,0,0,1,211.18,297.74Zm0-10.77a4.64,4.64,0,1,0,4.64,4.64A4.64,4.64,0,0,0,211.18,287Z" transform="translate(-4.03 -2.93)"/>
      <path class="cls-30" d="M211.18,263.8a.75.75,0,0,1-.75-.75v-7.68a.75.75,0,1,1,1.5,0v7.68A.75.75,0,0,1,211.18,263.8Z" transform="translate(-4.03 -2.93)"/>
      <path class="cls-30" d="M223.47,266.48a.75.75,0,0,1-.53-1.28l5.43-5.43a.75.75,0,1,1,1.06,1.06L224,266.26A.75.75,0,0,1,223.47,266.48Z" transform="translate(-4.03 -2.93)"/>
      <path class="cls-30" d="M198.17,267.06a.75.75,0,0,1-.53-.22l-5.43-5.43a.75.75,0,1,1,1.06-1.06l5.43,5.43a.75.75,0,0,1-.53,1.28Z" transform="translate(-4.03 -2.93)"/>
      <path class="cls-31" d="M410.62,273.13h-3.68a5,5,0,0,1,5,5v45.65a5,5,0,0,1-5,5h3.68a5,5,0,0,0,5-5V278.1A5,5,0,0,0,410.62,273.13Z" transform="translate(-4.03 -2.93)"/>
      <path class="cls-31" d="M384.87,324.52V304.17a4.21,4.21,0,0,0-4.21-4.21h4.53a4.21,4.21,0,0,1,4.21,4.21v20.35a4.21,4.21,0,0,1-4.21,4.21h-4.53A4.21,4.21,0,0,0,384.87,324.52Z" transform="translate(-4.03 -2.93)"/>
      <path class="cls-32" d="M385,295.05V278.1a5,5,0,0,1,5-5h20.62a5,5,0,0,1,5,5v45.65a5,5,0,0,1-5,5H393.14" transform="translate(-4.03 -2.93)"/>
      <line class="cls-32" x1="382.02" y1="280.38" x2="411.56" y2="280.38"/>
      <line class="cls-32" x1="389.84" y1="313.9" x2="411.56" y2="313.9"/>
      <circle class="cls-32" cx="396.28" cy="319.86" r="2.55"/>
      <rect class="cls-32" x="354.87" y="297.03" width="29.91" height="28.78" rx="2.55" ry="2.55"/>
      <rect class="cls-32" x="361.05" y="302.12" width="17.55" height="5.47"/>
      <path class="cls-32" d="M367.23,295.47a33.48,33.48,0,0,1,14.4-15.75" transform="translate(-4.03 -2.93)"/>
      <circle class="cls-33" cx="368.96" cy="283.66" r="3.6"/>
      <g class="cls-12">
        <path class="cls-29" d="M590.6,321.76H535.48a3.2,3.2,0,0,1-3.2-3.2v5a3.2,3.2,0,0,0,3.2,3.2H590.6a3.16,3.16,0,0,0,3.16-3.16v-5A3.16,3.16,0,0,1,590.6,321.76Z" transform="translate(-4.03 -2.93)"/>
      </g>
      <path class="cls-30" d="M590.6,327.5H535.48a4,4,0,0,1-4-4V280.87a3.69,3.69,0,0,1,3.68-3.68h18.34a3.64,3.64,0,0,1,3.39,2.35l2,5.37a3,3,0,0,0,2.75,1.9h29a3.79,3.79,0,0,1,3.78,3.78v6a.75.75,0,0,1-1.5,0v-6a2.29,2.29,0,0,0-2.28-2.28h-29a4.46,4.46,0,0,1-4.15-2.88l-2-5.37a2.13,2.13,0,0,0-2-1.38H535.21a2.18,2.18,0,0,0-2.18,2.18v42.68a2.45,2.45,0,0,0,2.45,2.45H590.6a2.41,2.41,0,0,0,2.41-2.41V319a.75.75,0,1,1,1.5,0v4.63A3.92,3.92,0,0,1,590.6,327.5Z" transform="translate(-4.03 -2.93)"/>
      <path class="cls-30" d="M592.57,285.28a.75.75,0,0,1-.75-.75V282.3a1.85,1.85,0,0,0-1.85-1.85H560.53a.75.75,0,0,1,0-1.5H590a3.35,3.35,0,0,1,3.35,3.35v2.23A.75.75,0,0,1,592.57,285.28Z" transform="translate(-4.03 -2.93)"/>
      <path class="cls-30" d="M593.76,314.83a7.29,7.29,0,1,1,7.29-7.29A7.3,7.3,0,0,1,593.76,314.83Zm0-13.09a5.79,5.79,0,1,0,5.79,5.79A5.8,5.8,0,0,0,593.76,301.75Z" transform="translate(-4.03 -2.93)"/>
      <path class="cls-30" d="M593.76,310.95a.5.5,0,0,1-.5-.5v-5.82a.5.5,0,0,1,.85-.35l2.83,2.83a.5.5,0,1,1-.71.71l-2-2v4.61A.5.5,0,0,1,593.76,310.95Z" transform="translate(-4.03 -2.93)"/>
      <path class="cls-30" d="M593.76,310.95a.5.5,0,0,1-.5-.5v-4.61l-2,2a.5.5,0,0,1-.71-.71l2.83-2.83a.5.5,0,0,1,.85.35v5.82A.5.5,0,0,1,593.76,310.95Z" transform="translate(-4.03 -2.93)"/>
      <path class="cls-31" d="M702.59,315.6V292.32a9.3,9.3,0,0,1,9.3-9.3H707.1a9.3,9.3,0,0,0-9.3,9.3V315.6a9.3,9.3,0,0,0,9.3,9.3h4.79A9.3,9.3,0,0,1,702.59,315.6Z" transform="translate(-4.03 -2.93)"/>
      <path class="cls-32" d="M722.67,293.52a3.29,3.29,0,1,1-1.69-2.88" transform="translate(-4.03 -2.93)"/>
      <rect class="cls-32" x="712.1" y="297.79" width="6.54" height="16.98" rx="0.65" ry="0.65"/>
      <rect class="cls-32" x="694.4" y="280.09" width="41.89" height="41.89" rx="7.56" ry="7.56"/>
      <g class="cls-12">
        <path class="cls-29" d="M30.68,454.21V398.71a4.86,4.86,0,0,1,4.86-4.86H32a4.86,4.86,0,0,0-4.86,4.86v55.51A4.86,4.86,0,0,0,32,459.07h3.54A4.86,4.86,0,0,1,30.68,454.21Z" transform="translate(-4.03 -2.93)"/>
      </g>
      <path class="cls-31" d="M544.54,444.36c-1-.41-.8-1.6-.8-2.27V430.23a1.26,1.26,0,1,0-2.51,0v.06h0v14.39a1.75,1.75,0,0,0,1,1.57l22,10.74v-3.26Z" transform="translate(-4.03 -2.93)"/>
      <path class="cls-31" d="M346.31,456.59V446.19a2.48,2.48,0,0,1,2.48-2.48h-3.15a2.48,2.48,0,0,0-2.48,2.48v10.39a2.48,2.48,0,0,0,2.48,2.48h3.15A2.48,2.48,0,0,1,346.31,456.59Z" transform="translate(-4.03 -2.93)"/>
      <path class="cls-31" d="M356.14,424.73V410.59a1.72,1.72,0,0,1,1.72-1.72h-2.4a1.72,1.72,0,0,0-1.72,1.72v14.14a1.72,1.72,0,0,0,1.72,1.72h2.4A1.72,1.72,0,0,1,356.14,424.73Z" transform="translate(-4.03 -2.93)"/>
      <path class="cls-31" d="M195.44,425.69c.54-3.21.78-6,2.57-9.15,3.16-5.53,8.32-8.89,13.7-9.39-.54-.05-1.09-.08-1.65-.08-9.49,0-17.33,8.07-17.6,17.49A15.93,15.93,0,0,1,195.44,425.69Z" transform="translate(-4.03 -2.93)"/>
      <path class="cls-31" d="M179.66,435.9a12.25,12.25,0,0,1,10.55-11.85,12.05,12.05,0,0,0-2.9,0,12.25,12.25,0,0,0-10.76,11.89,12.12,12.12,0,0,0,12.12,12.28h3.1A12.12,12.12,0,0,1,179.66,435.9Z" transform="translate(-4.03 -2.93)"/>
      <path class="cls-31" d="M226.93,439.48a9.07,9.07,0,0,1,5.55-14.79,9.08,9.08,0,1,0,0,17.93A9,9,0,0,1,226.93,439.48Z" transform="translate(-4.03 -2.93)"/>
      <rect class="cls-32" x="388.33" y="447.04" width="18.21" height="9.11" rx="1.52" ry="1.52"/>
      <line class="cls-32" x1="403.04" y1="437.7" x2="403.04" y2="446.93"/>
      <line class="cls-32" x1="399.03" y1="437.7" x2="399.03" y2="446.93"/>
      <g>
        <path class="cls-32" d="M540.73,429.52V445a1.88,1.88,0,0,0,1.06,1.7L565,458V426.3l-11.19-5.21" transform="translate(-4.03 -2.93)"/>
        <path class="cls-32" d="M565.33,458l24.08-11.25a1.87,1.87,0,0,0,1.08-1.69V415L565.33,426.3Z" transform="translate(-4.03 -2.93)"/>
        <path class="cls-32" d="M565.33,426.16,590.49,415l-23.83-10.82a1.87,1.87,0,0,0-1.53,0l-11.31,5" transform="translate(-4.03 -2.93)"/>
      </g>
      <rect class="cls-32" x="339.13" y="440.78" width="47.59" height="15.36" rx="2.37" ry="2.37"/>
      <line class="cls-32" x1="343.63" y1="448.46" x2="374.36" y2="448.46"/>
      <g>
        <line class="cls-32" x1="356.62" y1="423.87" x2="355.45" y2="436.09"/>
        <line class="cls-32" x1="370.39" y1="435.91" x2="369.24" y2="423.91"/>
      </g>
      <rect class="cls-32" x="348.96" y="405.94" width="27.92" height="17.59" rx="1.64" ry="1.64"/>
      <path class="cls-30" d="M76.62,408.28a10.54,10.54,0,1,1,10.54-10.54A10.55,10.55,0,0,1,76.62,408.28Zm0-19.57a9,9,0,1,0,9,9A9,9,0,0,0,76.62,388.71Z" transform="translate(-4.03 -2.93)"/>
      <circle class="cls-32" cx="536.7" cy="412.05" r="9.79"/>
      <circle class="cls-32" cx="397.07" cy="398.29" r="9.79"/>
      <path class="cls-30" d="M233,449.68H188.77a13.61,13.61,0,0,1-13.61-13.79,13.79,13.79,0,0,1,12.08-13.35,13.52,13.52,0,0,1,4.75.3,18.23,18.23,0,0,1,35.57-4.65,15.6,15.6,0,0,1,3.86-.48c8.35,0,15.19,6.83,15.59,15.56a18.8,18.8,0,0,1-.84,6,.75.75,0,1,1-1.44-.44,17,17,0,0,0,.78-5.54c-.37-8.05-6.43-14.13-14.09-14.13a14.08,14.08,0,0,0-4.15.62.75.75,0,0,1-.94-.52,16.73,16.73,0,0,0-32.86,4.45.81.81,0,0,1-.31.64.76.76,0,0,1-.67.14,12.08,12.08,0,0,0-5.08-.51,12.27,12.27,0,0,0-10.75,11.88,12.11,12.11,0,0,0,12.11,12.27H233a.75.75,0,1,1,0,1.5Z" transform="translate(-4.03 -2.93)"/>
      <path class="cls-30" d="M230.94,444.19a10.53,10.53,0,1,1,6.74-2.44A10.52,10.52,0,0,1,230.94,444.19Zm0-19.57a9.06,9.06,0,1,0,.83,0Q231.33,424.62,230.91,424.62Z" transform="translate(-4.03 -2.93)"/>
      <path class="cls-30" d="M245.5,450a.75.75,0,0,1-.55-.24l-7.82-8.5a.75.75,0,0,1,1.1-1l7.82,8.5a.75.75,0,0,1-.55,1.26Z" transform="translate(-4.03 -2.93)"/>
      <rect class="cls-33" x="374.36" y="436.56" width="17.06" height="19.58" rx="1.24" ry="1.24"/>
      <path class="cls-30" d="M538.07,417.5l.28-.39a.47.47,0,0,1,.73-.11,3.2,3.2,0,0,0,1.8.63c.68,0,1.31-.35,1.31-1.08,0-1.51-4.24-1.36-4.24-4.06a2.6,2.6,0,0,1,2.36-2.52v-.67c0-.34.15-.51.5-.51h.09c.33,0,.49.15.49.44v.72a3.61,3.61,0,0,1,1.82.63.47.47,0,0,1,.15.7l-.21.43c-.16.3-.4.34-.72.16a2.93,2.93,0,0,0-1.51-.46c-.75,0-1.36.44-1.36,1.07,0,1.49,4.24,1.23,4.24,4a2.59,2.59,0,0,1-2.42,2.57v.63c0,.34-.16.53-.49.53h-.09c-.35,0-.5-.16-.5-.44v-.72a4.29,4.29,0,0,1-2.13-.85A.48.48,0,0,1,538.07,417.5Z" transform="translate(-4.03 -2.93)"/>
      <line class="cls-32" x1="375.36" y1="443.7" x2="391.42" y2="443.7"/>
      <circle class="cls-30" cx="403.04" cy="451.59" r="0.8"/>
      <circle class="cls-30" cx="399.75" cy="451.59" r="0.8"/>
      <path class="cls-32" d="M406.85,409.12a29.14,29.14,0,0,1,1.9,24.62" transform="translate(-4.03 -2.93)"/>
      <path class="cls-32" d="M365.3,399.35a29.12,29.12,0,0,1,27.21-2.83" transform="translate(-4.03 -2.93)"/>
      <g>
        <line class="cls-32" x1="397.07" y1="393.97" x2="397.07" y2="402.61"/>
        <line class="cls-32" x1="392.74" y1="398.29" x2="401.39" y2="398.29"/>
      </g>
      <path class="cls-30" d="M71.35,459.82H32a5.62,5.62,0,0,1-5.61-5.61V398.71A5.62,5.62,0,0,1,32,393.1H62.33a.75.75,0,0,1,0,1.5H32a4.11,4.11,0,0,0-4.11,4.11v55.51A4.11,4.11,0,0,0,32,458.32H71.35a4.11,4.11,0,0,0,4.11-4.11V413.4a.75.75,0,0,1,1.5,0v40.81A5.62,5.62,0,0,1,71.35,459.82Z" transform="translate(-4.03 -2.93)"/>
      <path class="cls-30" d="M62.93,405.78H28a.75.75,0,0,1,0-1.5H62.93a.75.75,0,1,1,0,1.5Z" transform="translate(-4.03 -2.93)"/>
      <path class="cls-30" d="M75.4,447.55H27.9a.75.75,0,1,1,0-1.5H75.4a.75.75,0,1,1,0,1.5Z" transform="translate(-4.03 -2.93)"/>
      <path class="cls-30" d="M51.67,455.62a2.92,2.92,0,1,1,2.92-2.92A2.92,2.92,0,0,1,51.67,455.62Zm0-4.33a1.42,1.42,0,1,0,1.42,1.42A1.42,1.42,0,0,0,51.67,451.29Z" transform="translate(-4.03 -2.93)"/>
      <g class="cls-12">
        <path class="cls-29" d="M694.79,425.51s-7.65,7.3.73,16.66c0,0-9.4-4.47-9.6-5.9s-1.22-3.63,0-4.78S694.79,425.51,694.79,425.51Z" transform="translate(-4.03 -2.93)"/>
      </g>
      <g class="cls-12">
        <path class="cls-29" d="M740.2,425.51s7.65,7.3-.73,16.66c0,0,9.4-4.47,9.6-5.9s1.22-3.63,0-4.78S740.2,425.51,740.2,425.51Z" transform="translate(-4.03 -2.93)"/>
      </g>
      <path class="cls-30" d="M717.52,449.36c-13.09,0-26.09-7.23-31.65-12.08a4.53,4.53,0,0,1,0-6.84c6.36-5.57,18.94-14.91,31.65-14.91,13.45,0,27,10.74,32.16,15.36h0a4,4,0,0,1,0,5.93C744,441.87,730.78,449.36,717.52,449.36Zm0-32.33c-12.67,0-25.66,10.17-30.66,14.54a3,3,0,0,0,0,4.58c5.38,4.71,18,11.71,30.66,11.71s25.88-7.46,31.16-12.16a2.46,2.46,0,0,0,0-3.69h0C743.62,427.51,730.46,417,717.52,417Z" transform="translate(-4.03 -2.93)"/>
      <path class="cls-30" d="M731.32,432.65a3.95,3.95,0,1,1,3.95-3.95A4,4,0,0,1,731.32,432.65Zm0-6.4a2.45,2.45,0,1,0,2.45,2.45A2.45,2.45,0,0,0,731.32,426.26Z" transform="translate(-4.03 -2.93)"/>
      <path class="cls-30" d="M717,444.12a15.42,15.42,0,0,1-11-26.26.75.75,0,0,1,1.07,1.05A13.92,13.92,0,1,0,729.47,435a.75.75,0,1,1,1.34.68A15.36,15.36,0,0,1,717,444.12Z" transform="translate(-4.03 -2.93)"/>
      <path class="cls-30" d="M730.43,423.44a.75.75,0,0,1-.68-.44,13.89,13.89,0,0,0-3.31-4.56.75.75,0,1,1,1-1.11,15.37,15.37,0,0,1,3.66,5.06.75.75,0,0,1-.68,1.06Z" transform="translate(-4.03 -2.93)"/>
      <circle class="cls-30" cx="712.93" cy="425.22" r="8.28"/>
    </g>
  </g>
</svg>
