<?xml version="1.0" encoding="utf-8"?>
<!-- Generator: Adobe Illustrator 17.1.0, SVG Export Plug-In . SVG Version: 6.00 Build 0)  -->
<!DOCTYPE svg PUBLIC "-//W3C//DTD SVG 1.1//EN" "http://www.w3.org/Graphics/SVG/1.1/DTD/svg11.dtd">
<svg version="1.1" id="Layer_1" xmlns="http://www.w3.org/2000/svg" xmlns:xlink="http://www.w3.org/1999/xlink" x="0px" y="0px"
	 viewBox="0 0 881 230.623" enable-background="new 0 0 881 230.623" xml:space="preserve">
<g>
	<path fill="#F7F7F7" d="M190.981,0H41.943C19.424,0,1.151,18.259,1.151,40.792v149.033c0,22.53,18.272,40.797,40.792,40.797
		h149.038c22.535,0,40.802-18.267,40.802-40.797V40.792C231.783,18.259,213.516,0,190.981,0 M81.344,43.185
		c24.088-24.089,62.244-25.489,87.986-4.274c0.96,0.995,1.572,2.323,1.572,3.815c0,1.476-0.594,2.799-1.538,3.786
		c-12.573,12.588-73.516,73.518-84.719,84.724c-0.988,0.879-2.261,1.442-3.694,1.442c-1.633,0-3.091-0.713-4.104-1.843
		C55.881,105.097,57.373,67.164,81.344,43.185 M153.804,182.46c-23.995,24.005-61.973,25.467-87.715,4.458
		c-1.091-1-1.781-2.433-1.781-4.047c0-1.502,0.61-2.821,1.571-3.821c12.705-12.7,73.238-73.232,84.59-84.576
		c0.986-0.943,2.305-1.542,3.782-1.542c1.509,0,2.872,0.638,3.858,1.616C179.276,120.291,177.878,158.402,153.804,182.46"/>
	<path fill="#F7F7F7" d="M307.287,138.388c-5.616,0-10.729,4.938-10.729,10.336c0,2.166,0.688,4.22,2.031,6.15
		c6.452,9.709,21.076,14.768,32.19,14.768c19.028,0,39.234-11.933,39.234-34.042c0-23.09-18.481-30.353-33.333-36.214
		c-11.583-4.557-18.683-7.69-18.683-14.505c0-5.449,4.356-10.956,14.096-10.956c6.101,0,11.249,2.674,14.878,7.739
		c2.406,3.217,5.191,4.871,8.254,4.871c5.806,0,10.716-4.744,10.716-10.366c0-2.149-0.568-4.137-1.653-5.747
		c-6.41-9.906-19.647-16.8-32.195-16.8c-17.3,0-34.792,10.75-34.792,31.259c0,21.115,17.335,27.865,31.246,33.314
		c11.145,4.33,20.77,8.09,20.77,17.404c0,6.802-6.369,13.714-18.538,13.714c-3.721,0-10.689-0.857-15.285-6.495
		C313.044,139.982,310.128,138.388,307.287,138.388"/>
	<path fill="#F7F7F7" d="M777.922,53.507h-0.587c-20.311,0-36.647,16.511-36.647,36.835v42.679c0,1.227-0.123,2.47,0,3.677v81.151
		c0,5.638,4.579,10.226,10.226,10.226c5.646,0,10.225-4.587,10.225-10.226v-53.101c3.887,3.462,10.374,5.104,16.195,5.104h0.587
		c20.31,0,35.797-17.575,35.797-37.881V89.323C813.719,68.982,798.232,53.507,777.922,53.507 M793.812,133.021
		c0,11.132-7.118,15.877-15.89,15.877h-0.587c-8.773,0-15.898-4.745-15.898-15.877V90.342c0-8.776,7.126-15.876,15.898-15.876h0.587
		c8.772,0,15.89,7.1,15.89,15.876V133.021z"/>
	<path fill="#F7F7F7" d="M719.339,63.4c-0.253-5.433-4.687-9.747-10.177-9.747c-5.498,0-9.919,4.315-10.172,9.747h-0.061v70.29
		c0,8.567-6.96,15.51-15.513,15.51h-0.578c-8.589,0-15.531-6.942-15.531-15.51V64.083c0-0.065,0.027-0.144,0.027-0.207
		c0-0.077-0.027-0.161-0.027-0.222V63.4h-0.017c-0.254-5.433-4.702-9.747-10.182-9.747c-5.48,0-9.918,4.315-10.172,9.747h-0.079
		v70.29c0,19.826,16.135,35.987,35.982,35.987h0.578c19.829,0,35.977-16.161,35.977-35.987V63.4H719.339z"/>
	<path fill="#F7F7F7" d="M460.27,63.4c-0.254-5.433-4.692-9.747-10.182-9.747c-5.479,0-9.919,4.315-10.174,9.747h-0.052v70.29
		c0,8.567-6.956,15.51-15.535,15.51h-0.559c-8.562,0-15.513-6.942-15.513-15.51V64.083c0-0.065,0.009-0.144,0.009-0.207
		c0-0.077-0.009-0.161-0.009-0.222V63.4h-0.027c-0.263-5.433-4.705-9.747-10.168-9.747c-5.498,0-9.937,4.315-10.19,9.747h-0.08
		v70.29c0,19.826,16.144,35.987,35.978,35.987h0.559c19.852,0,35.986-16.161,35.986-35.987V63.4H460.27z"/>
	<path fill="#F7F7F7" d="M570.026,53.652h-0.569c-10.094,0-19.207,4.189-25.751,10.896c-6.54-6.675-15.631-10.829-25.707-10.829
		h-0.561c-19.838,0-35.981,16.125-35.981,35.969v70.286h0.052c0.245,5.436,4.684,9.765,10.174,9.765
		c5.489,0,9.928-4.329,10.173-9.765h0.061V89.687c0-8.584,6.942-15.527,15.521-15.527h0.561c8.359,0,15.145,6.592,15.503,14.861
		c0,0.206-0.036,0.398-0.036,0.603v70.3h0.054c0.091,2.04,0.783,3.935,1.895,5.485c1.847,2.608,4.877,4.329,8.334,4.329
		c5.486,0,9.923-4.329,10.177-9.765h0.071V89.687c0-0.237-0.018-0.46-0.026-0.684c0.323-8.282,7.127-14.905,15.486-14.905h0.569
		c8.58,0,15.522,6.956,15.522,15.526v69.612c0,0.066-0.017,0.131-0.017,0.211c0,0.079,0.017,0.144,0.017,0.223v0.254h0.036
		c0.245,5.419,4.675,9.754,10.173,9.754c5.489,0,9.919-4.335,10.172-9.754h0.088v-70.3
		C606.017,69.783,589.864,53.652,570.026,53.652"/>
	<path fill="#F7F7F7" d="M860.749,53.587c-11.197,0-20.298,9.126-20.298,20.302c0,11.21,9.101,20.306,20.298,20.306
		c11.197,0,20.293-9.096,20.293-20.306C881.042,62.713,871.946,53.587,860.749,53.587 M860.749,89.275
		c-8.466,0-15.377-6.912-15.377-15.386c0-8.467,6.912-15.33,15.377-15.33c8.475,0,15.373,6.863,15.373,15.33
		C876.122,82.363,869.224,89.275,860.749,89.275"/>
	<path fill="#F7F7F7" d="M854.445,66.615c0-1.385,1.051-2.164,2.162-2.164h5.209c3.844,0,6.357,2.354,6.357,5.909
		c0,2.803-1.725,4.824-4.43,5.332l3.765,4.058c0.586,0.64,0.902,1.148,0.902,1.865c0,0.622-0.552,2.004-2.215,2.004
		c-1.112,0-1.506-0.397-2.049-1.063l-5.306-6.706h-0.061v5.463c0,1.527-0.91,2.307-2.171,2.307c-1.243,0-2.162-0.779-2.162-2.307
		V66.615z M858.779,72.653h2.845c1.419,0,2.233-0.945,2.233-2.134c0-1.3-1.007-2.063-2.233-2.063h-2.845V72.653z"/>
</g>
<g>
</g>
</svg>
