<?xml version="1.0" encoding="UTF-8"?>
<svg width="290px" height="290px" viewBox="0 0 290 290" version="1.1" xmlns="http://www.w3.org/2000/svg" xmlns:xlink="http://www.w3.org/1999/xlink">
    <!-- Generator: Sketch 41.2 (35397) - http://www.bohemiancoding.com/sketch -->
    <title>logo-social-clearspace</title>
    <desc>Created with Sketch.</desc>

    <g id="Elements" stroke="none" stroke-width="1" fill="none" fill-rule="evenodd">
        <g id="Logo" transform="translate(-110.000000, -1104.000000)">
            <g id="logo-socialmedia-rect-white" transform="translate(110.000000, 1104.000000)">
                <g id="logo-social-clearspace">
                    <path d="M167.016683,184.597923 C152.867339,198.754033 130.472133,199.616176 115.292381,187.227178 C114.648802,186.637407 114.242162,185.792675 114.242162,184.840276 C114.242162,183.954318 114.602174,183.176629 115.168708,182.586858 C122.660726,175.097544 158.355976,139.401476 165.050124,132.712066 C165.631667,132.155916 166.409125,131.802894 167.280439,131.802894 C168.170364,131.802894 168.974038,132.17893 169.555781,132.756094 C182.037341,147.936648 181.213255,170.411194 167.016683,184.597923 M124.288086,102.466629 C138.492462,88.261288 160.992531,87.4353681 176.172282,99.9460425 C176.738616,100.532812 177.099229,101.315705 177.099229,102.195658 C177.099229,103.066206 176.749023,103.846498 176.192494,104.428464 C168.778322,111.851336 132.84113,147.782351 126.234834,154.390911 C125.652291,154.909237 124.901448,155.241246 124.05675,155.241246 C123.093782,155.241246 122.234075,154.820781 121.636522,154.154562 C109.273232,138.976809 110.153151,116.606929 124.288086,102.466629 M188.939812,77 L101.054385,77 C87.7749541,77 77,87.7673771 77,101.055741 L77,188.941858 C77,202.22782 87.7749541,213 101.054385,213 L188.939812,213 C202.228248,213 213,202.22782 213,188.941858 L213,101.055741 C213,87.7673771 202.228248,77 188.939812,77" id="Fill-1" fill="#323E4D"></path>
                </g>
            </g>
        </g>
    </g>
</svg>
