<svg xmlns="http://www.w3.org/2000/svg" xmlns:xlink="http://www.w3.org/1999/xlink" viewBox="0 0 1280 800" enable-background="new 0 0 1280 800"><g><defs><path id="a" d="M0 0h1280v800h-1280z"/></defs><clipPath id="b"><use xlink:href="#a" overflow="visible"/></clipPath><g clip-path="url(#b)"><linearGradient id="c" gradientUnits="userSpaceOnUse" x1="308.712" y1="1677.458" x2="969.288" y2="-137.458"><stop offset="0" stop-color="#118BBB"/><stop offset="1" stop-color="#004D6C"/></linearGradient><path fill="url(#c)" d="M-14-20h1306v1580h-1306z"/><path stroke="#0080B2" stroke-miterlimit="10" d="M432.4 627.8c-2.9 9.1-12.6 14.1-21.7 11.3l-247.1-78.3c-9.1-2.9-14.1-12.6-11.3-21.7l115.1-363c2.9-9.1 12.6-14.1 21.7-11.3l247.1 78.3c9.1 2.9 14.1 12.6 11.3 21.7l-115.1 363zM421.4 603.9c-.1.5-.6.7-1.1.6l-244.7-77.5c-.5-.1-.7-.6-.6-1.1l103.6-326.9c.1-.5.6-.7 1.1-.6l244.7 77.6c.5.1.7.6.6 1.1l-103.6 326.8z" fill="none"/><path fill="#0080B2" d="M292.1 574.9c1 0 2 .2 2.9.4 2.4.8 4.4 2.4 5.6 4.7 1.2 2.3 1.4 4.9.6 7.3-1.3 4-4.9 6.7-9.1 6.7-1 0-2-.2-2.9-.4-2.4-.8-4.4-2.4-5.6-4.7s-1.4-4.9-.6-7.3c1.2-4 4.9-6.7 9.1-6.7m0-1c-4.5 0-8.6 2.9-10.1 7.4-1.8 5.6 1.3 11.5 6.9 13.3 1.1.3 2.1.5 3.2.5 4.5 0 8.6-2.9 10.1-7.4 1.8-5.6-1.3-11.5-6.9-13.3-1.1-.4-2.2-.5-3.2-.5z"/><circle stroke="#0080B2" stroke-miterlimit="10" cx="406.7" cy="220.1" r="2.6" fill="none"/><path stroke="#0080B2" stroke-miterlimit="10" d="M292.4 1069.5c-2.9 9.1-12.6 14.1-21.7 11.3l-247.1-78.3c-9.1-2.9-14.1-12.6-11.3-21.7l115.1-363c2.9-9.1 12.6-14.1 21.7-11.3l247.1 78.3c9.1 2.9 14.1 12.6 11.3 21.7l-115.1 363zM281.1 1046.5c-.1.5-.6.7-1.1.6l-244.7-77.6c-.5-.1-.7-.6-.6-1.1l103.6-326.8c.1-.5.6-.7 1.1-.6l244.7 77.6c.5.1.7.6.6 1.1l-103.6 326.8z" fill="none"/><path fill="#0080B2" d="M268.2 651.2c1 0 2 .2 2.9.4 2.4.8 4.4 2.4 5.6 4.7 1.2 2.3 1.4 4.9.6 7.3-1.3 4-4.9 6.7-9.1 6.7-1 0-2-.2-2.9-.4-2.4-.8-4.4-2.4-5.6-4.7-1.2-2.3-1.4-4.9-.6-7.3 1.2-4 4.9-6.7 9.1-6.7m0-1c-4.5 0-8.6 2.9-10.1 7.4-1.8 5.6 1.3 11.5 6.9 13.3 1.1.3 2.1.5 3.2.5 4.5 0 8.6-2.9 10.1-7.4 1.8-5.6-1.3-11.5-6.9-13.3-1.1-.3-2.2-.5-3.2-.5z"/><g stroke="#0080B2" stroke-miterlimit="10" fill="none"><path d="M617.4 44.1c-2.9 9.1-12.6 14.1-21.7 11.3l-247.2-78.4c-9.1-2.9-14.1-12.6-11.3-21.7l115.1-363c2.9-9.1 12.6-14.1 21.7-11.3l247.1 78.3c9.1 2.9 14.1 12.6 11.3 21.7l-115 363.1zM606.1 21.1c-.1.5-.6.7-1.1.6l-244.7-77.6c-.5-.1-.7-.6-.6-1.1l103.6-326.8c.1-.5.6-.7 1.1-.6l244.7 77.6c.5.1.7.6.6 1.1l-103.6 326.8z"/><circle cx="478.6" cy="-.4" r="2.6"/></g><path stroke="#0080B2" stroke-miterlimit="10" d="M775.9 562.6c-2.5 8-11.1 12.4-19.1 9.9l-75.8-24c-8-2.5-12.4-11.1-9.9-19.1l62-195.7c2.5-8 11.1-12.4 19.1-9.9l75.8 24c8 2.5 12.4 11.1 9.9 19.1l-62 195.7zM775.5 545.6c-.1.4-.6.6-1 .5l-92.7-29.4c-.4-.1-.6-.6-.5-1l51.7-163.2c.1-.4.6-.6 1-.5l92.7 29.4c.4.1.6.6.5 1l-51.7 163.2z" fill="none"/><path fill="#0080B2" d="M724.7 536c.9 0 1.8.1 2.7.4 2.2.7 4.1 2.3 5.2 4.3 1.1 2.1 1.3 4.5.6 6.7-1.2 3.7-4.5 6.1-8.4 6.1-.9 0-1.8-.1-2.7-.4-4.6-1.5-7.2-6.4-5.7-11 1.1-3.6 4.4-6.1 8.3-6.1m0-1c-4.2 0-8 2.7-9.3 6.8-1.6 5.2 1.2 10.7 6.4 12.3 1 .3 2 .5 3 .5 4.2 0 8-2.7 9.3-6.8 1.6-5.2-1.2-10.7-6.4-12.3-1-.3-2-.5-3-.5z"/><circle stroke="#0080B2" stroke-miterlimit="10" cx="787.9" cy="345.8" r="2.7" fill="none"/><circle stroke="#0080B2" stroke-miterlimit="10" cx="772.1" cy="350.4" r="1.3" fill="none"/><path stroke="#0080B2" stroke-linecap="round" stroke-miterlimit="10" d="M793.9 357.9c-.1.3-.4.5-.7.4l-16.7-5.3c-.3-.1-.5-.4-.4-.7l.1-.3c.1-.3.4-.5.7-.4l16.7 5.3c.3.1.5.4.4.7l-.1.3z" fill="none"/><path stroke="#0080B2" stroke-miterlimit="10" d="M902.1 164.9c-2.5 8-11.1 12.4-19.1 9.9l-75.8-24c-8-2.5-12.4-11.1-9.9-19.1l62-195.7c2.5-8 11.1-12.4 19.1-9.9l75.8 24c8 2.5 12.4 11.1 9.9 19.1l-62 195.7zM901.7 147.9c-.1.4-.6.6-1 .5l-92.7-29.4c-.4-.1-.6-.6-.5-1l51.7-163.2c.1-.4.6-.6 1-.5l92.7 29.4c.4.1.6.6.5 1l-51.7 163.2z" fill="none"/><path fill="#0080B2" d="M850.9 138.3c.9 0 1.8.1 2.7.4 4.6 1.5 7.2 6.4 5.7 11-1.2 3.7-4.5 6.1-8.4 6.1-.9 0-1.8-.1-2.7-.4-2.2-.7-4.1-2.3-5.2-4.3-1.1-2.1-1.3-4.5-.6-6.7 1.3-3.6 4.6-6.1 8.5-6.1m0-1c-4.2 0-8 2.7-9.3 6.8-1.6 5.2 1.2 10.7 6.4 12.3 1 .3 2 .5 3 .5 4.2 0 8-2.7 9.3-6.8 1.6-5.2-1.2-10.7-6.4-12.3-1-.3-2-.5-3-.5z"/><g stroke="#0080B2" stroke-miterlimit="10" fill="none"><path d="M649.3 962.6c-2.5 8-11.1 12.4-19.1 9.9l-75.8-24c-8-2.5-12.4-11.1-9.9-19.1l62-195.7c2.5-8 11.1-12.4 19.1-9.9l75.8 24c8 2.5 12.4 11.1 9.9 19.1l-62 195.7zM648.8 945.6c-.1.4-.6.6-1 .5l-92.7-29.4c-.4-.1-.6-.6-.5-1l51.7-163.2c.1-.4.6-.6 1-.5l92.7 29.4c.4.1.6.6.5 1l-51.7 163.2z"/><circle cx="661.2" cy="745.8" r="2.7"/><circle cx="645.5" cy="750.4" r="1.3"/><path stroke-linecap="round" d="M667.2 758c-.1.3-.4.5-.7.4l-16.7-5.3c-.3-.1-.5-.4-.4-.7l.1-.3c.1-.3.4-.5.7-.4l16.8 5.3c.3.1.5.4.4.7l-.2.3z"/></g><g stroke="#0080B2" stroke-miterlimit="10" fill="none"><path d="M17.8 870.9c-2.5 8-11.1 12.4-19.1 9.9l-75.8-24c-8-2.5-12.4-11.1-9.9-19.1l62-195.7c2.5-8 11.1-12.4 19.1-9.9l75.8 24c8 2.5 12.4 11.1 9.9 19.1l-62 195.7zM17.4 853.9c-.1.4-.6.6-1 .5l-92.6-29.4c-.4-.1-.6-.6-.5-1l51.7-163.2c.1-.4.6-.6 1-.5l92.7 29.4c.4.1.6.6.5 1l-51.8 163.2z"/><circle cx="29.8" cy="654.1" r="2.7"/><circle cx="14" cy="658.7" r="1.3"/><path stroke-linecap="round" d="M35.8 666.2c-.1.3-.4.5-.7.4l-16.7-5.3c-.3-.1-.5-.4-.4-.7l.1-.3c.1-.3.4-.5.7-.4l16.7 5.3c.3.1.5.4.4.7l-.1.3z"/></g><path stroke="#0080B2" stroke-miterlimit="10" d="M143.1 473.7c-2.5 8-11.1 12.4-19.1 9.9l-75.8-24c-8-2.5-12.4-11.1-9.9-19.1l62-195.7c2.5-8 11.1-12.4 19.1-9.9l75.8 24c8 2.5 12.4 11.1 9.9 19.1l-62 195.7zM142.6 456.7c-.1.4-.6.6-1 .5l-92.6-29.4c-.4-.1-.6-.6-.5-1l51.7-163.2c.1-.4.6-.6 1-.5l92.7 29.4c.4.1.6.6.5 1l-51.8 163.2z" fill="none"/><path fill="#0080B2" d="M91.8 447.1c.9 0 1.8.1 2.7.4 4.6 1.5 7.2 6.4 5.7 11-1.2 3.7-4.5 6.1-8.4 6.1-.9 0-1.8-.1-2.7-.4-2.2-.7-4.1-2.3-5.2-4.3-1.1-2.1-1.3-4.5-.6-6.7 1.3-3.7 4.7-6.1 8.5-6.1m0-1c-4.2 0-8 2.7-9.3 6.8-1.6 5.2 1.2 10.7 6.4 12.3 1 .3 2 .5 3 .5 4.2 0 8-2.7 9.3-6.8 1.6-5.2-1.2-10.7-6.4-12.3-1-.4-2-.5-3-.5z"/><circle stroke="#0080B2" stroke-miterlimit="10" cx="155" cy="256.8" r="2.7" fill="none"/><circle stroke="#0080B2" stroke-miterlimit="10" cx="139.3" cy="261.4" r="1.3" fill="none"/><path stroke="#0080B2" stroke-linecap="round" stroke-miterlimit="10" d="M161.1 269c-.1.3-.4.5-.7.4l-16.7-5.3c-.3-.1-.5-.4-.4-.7l.1-.3c.1-.3.4-.5.7-.4l16.7 5.3c.3.1.5.4.4.7l-.1.3z" fill="none"/><path stroke="#0080B2" stroke-miterlimit="10" d="M269.7 74.1c-2.5 8-11.1 12.4-19.1 9.9l-75.8-24c-8-2.5-12.4-11.1-9.9-19.1l62-195.7c2.5-8 11.1-12.4 19.1-9.9l75.8 24c8 2.5 12.4 11.1 9.9 19.1l-62 195.7zM269.3 57.1c-.1.4-.6.6-1 .5l-92.7-29.4c-.4-.1-.6-.6-.5-1l51.7-163.2c.1-.4.6-.6 1-.5l92.7 29.4c.4.1.6.6.5 1l-51.7 163.2z" fill="none"/><path fill="#0080B2" d="M218.5 47.5c.9 0 1.8.1 2.7.4 4.6 1.5 7.2 6.4 5.7 11-1.2 3.7-4.5 6.1-8.4 6.1-.9 0-1.8-.1-2.7-.4-2.2-.7-4.1-2.3-5.2-4.3-1.1-2.1-1.3-4.5-.6-6.7 1.3-3.6 4.7-6.1 8.5-6.1m0-1c-4.2 0-8 2.7-9.3 6.8-1.6 5.2 1.2 10.7 6.4 12.3 1 .3 2 .5 3 .5 4.2 0 8-2.7 9.3-6.8 1.6-5.2-1.2-10.7-6.4-12.3-1-.3-2-.5-3-.5z"/><g stroke="#0080B2" stroke-miterlimit="10" fill="none"><path d="M597.9 434.1c28.7 9.1 50.9 12.7 55.3 13.4 4.4.7 8.6-1.1 9.9-5.2l72.3-228.1c1.5-4.6-2.2-8.2-6.4-10.6-4.4-2.5-25.7-11.6-51.7-19.8l-.4-.1c-25.9-8.2-48.7-13.1-53.7-13.6-4.8-.4-9.9.4-11.3 5l-72.3 228.1c-1.3 4.1 1.1 8 5.1 10 4 2 24.2 11.8 52.9 20.9h.3z"/><circle cx="673.8" cy="194.7" r="3.2"/><circle cx="631.5" cy="181.3" r="1.5"/><path d="M664.6 423.9c-.1.3-.4.5-.7.4l-114.7-36.4c-.3-.1-.5-.4-.4-.7l63.7-200.9c.1-.3.4-.5.7-.4l114.7 36.4c.3.1.5.4.4.7l-63.7 200.9z"/></g><g stroke="#0080B2" stroke-miterlimit="10" fill="none"><path d="M454.5 886.5c28.7 9.1 50.9 12.7 55.3 13.4s8.6-1.1 9.9-5.2l72.3-228.1c1.5-4.6-2.2-8.2-6.4-10.6-4.4-2.5-25.7-11.6-51.7-19.8l-.4-.1c-25.9-8.2-48.7-13.1-53.7-13.6-4.8-.4-9.9.4-11.3 5l-72.3 228.1c-1.3 4.1 1.1 8 5.1 10 4 2 24.2 11.8 52.9 20.9h.3z"/><circle cx="530.4" cy="647.1" r="3.2"/><circle cx="488.1" cy="633.7" r="1.5"/><path d="M521.2 876.2c-.1.3-.4.5-.7.4l-114.7-36.4c-.3-.1-.5-.4-.4-.7l63.6-200.9c.1-.3.4-.5.7-.4l114.7 36.4c.3.1.5.4.4.7l-63.6 200.9z"/></g><g stroke="#0080B2" stroke-miterlimit="10" fill="none"><path d="M2.6 245.5c28.7 9.1 50.9 12.7 55.3 13.4 4.4.7 8.6-1.1 9.9-5.2l72.3-228.1c1.5-4.6-2.2-8.2-6.4-10.6-4.3-2.5-25.7-11.6-51.6-19.9l-.4-.1c-25.9-8.2-48.7-13.1-53.7-13.6-4.8-.4-9.9.4-11.3 5l-72.3 228.1c-1.3 4.1 1.1 8 5.1 10 4 2 24.2 11.8 52.9 20.9l.2.1z"/><circle cx="78.5" cy="6" r="3.2"/><path d="M69.3 235.2c-.1.3-.4.5-.7.4l-114.7-36.4c-.3-.1-.5-.4-.4-.7l63.6-200.9c.1-.3.4-.5.7-.4l114.7 36.4c.3.1.5.4.4.7l-63.6 200.9z"/></g><g stroke="#0080B2" stroke-miterlimit="10" fill="none"><path d="M236.6 108c3.1 1 4.8 4.3 3.8 7.3l-35 111.4c-1 3.1-4.3 4.8-7.3 3.8l-67.1-21.1c-3.1-1-4.8-4.3-3.8-7.3l35-111.4c1-3.1 4.3-4.8 7.3-3.8l67.1 21.1zM223.7 103.7l-38.5 122.5M208.4 98.9l-38.5 122.5"/></g><g stroke="#0080B2" stroke-miterlimit="10" fill="none"><path d="M111.8 504.7c3.1 1 4.8 4.3 3.8 7.3l-35 111.4c-1 3.1-4.3 4.8-7.3 3.8l-67.1-21c-3.1-1-4.8-4.3-3.8-7.3l35-111.4c1-3.1 4.3-4.8 7.3-3.8l67.1 21zM98.9 500.4l-38.6 122.6M83.6 495.6l-38.5 122.6"/></g><g stroke="#0080B2" stroke-miterlimit="10" fill="none"><path d="M573.3 84.7c3.1 1 4.8 4.3 3.8 7.3l-35 111.4c-1 3.1-4.3 4.8-7.3 3.8l-67.1-21.1c-3.1-1-4.8-4.3-3.8-7.3l35-111.4c1-3.1 4.3-4.8 7.3-3.8l67.1 21.1zM560.4 80.4l-38.6 122.6M545.1 75.6l-38.5 122.6"/></g><g stroke="#0080B2" stroke-miterlimit="10" fill="none"><path d="M434.8 144.5c-1 3.1-4.3 4.8-7.3 3.8l-111.4-35c-3.1-1-4.8-4.3-3.8-7.3l21.1-67.1c1-3.1 4.3-4.8 7.3-3.8l111.4 35c3.1 1 4.8 4.3 3.8 7.3l-21.1 67.1zM439.1 131.5l-122.6-38.5M443.9 116.2l-122.6-38.5"/></g><g stroke="#0080B2" stroke-miterlimit="10" fill="none"><path d="M971.4 1034.8c-2.9 9.1-12.6 14.1-21.7 11.3l-247.1-78.3c-9.1-2.9-14.1-12.6-11.3-21.7l115.1-363c2.9-9.1 12.6-14.1 21.7-11.3l247.1 78.3c9.1 2.9 14.1 12.6 11.3 21.7l-115.1 363zM960.4 1010.9c-.1.5-.6.7-1.1.6l-244.7-77.5c-.5-.1-.7-.6-.6-1.1l103.6-326.9c.1-.5.6-.7 1.1-.6l244.7 77.6c.5.1.7.6.6 1.1l-103.6 326.8z"/><circle cx="945.7" cy="627.1" r="2.6"/></g><path stroke="#0080B2" stroke-miterlimit="10" d="M1156.4 451.1c-2.9 9.1-12.6 14.1-21.7 11.3l-247.2-78.4c-9.1-2.9-14.1-12.6-11.3-21.7l115.1-363c2.9-9.1 12.6-14.1 21.7-11.3l247.1 78.3c9.1 2.9 14.1 12.6 11.3 21.7l-115 363.1zM1145.1 428.1c-.1.5-.6.7-1.1.6l-244.7-77.6c-.5-.1-.7-.6-.6-1.1l103.6-326.8c.1-.5.6-.7 1.1-.6l244.7 77.6c.5.1.7.6.6 1.1l-103.6 326.8z" fill="none"/><path fill="#0080B2" d="M1132.2 32.7c1 0 1.9.2 2.9.4 2.4.8 4.4 2.4 5.6 4.7s1.4 4.9.6 7.3c-1.3 4-4.9 6.7-9.1 6.7-1 0-2-.2-2.9-.4-2.4-.8-4.4-2.4-5.6-4.7s-1.4-4.9-.6-7.3c1.3-4 4.9-6.7 9.1-6.7m0-1c-4.5 0-8.6 2.9-10.1 7.4-1.8 5.6 1.3 11.5 6.9 13.3 1.1.3 2.1.5 3.2.5 4.5 0 8.6-2.9 10.1-7.4 1.8-5.6-1.3-11.5-6.9-13.3-1.1-.3-2.1-.5-3.2-.5z"/><circle stroke="#0080B2" stroke-miterlimit="10" cx="1017.6" cy="406.6" r="2.6" fill="none"/><g stroke="#0080B2" stroke-miterlimit="10" fill="none"><path d="M1112.3 491.7c3.1 1 4.8 4.3 3.8 7.3l-35 111.4c-1 3.1-4.3 4.8-7.3 3.8l-67.1-21.1c-3.1-1-4.8-4.3-3.8-7.3l35-111.4c1-3.1 4.3-4.8 7.3-3.8l67.1 21.1zM1099.4 487.4l-38.6 122.6M1084.1 482.6l-38.5 122.6"/></g><g stroke="#0080B2" stroke-miterlimit="10" fill="none"><path d="M973.8 551.5c-1 3.1-4.3 4.8-7.3 3.8l-111.4-35c-3.1-1-4.8-4.3-3.8-7.3l21.1-67.1c1-3.1 4.3-4.8 7.3-3.8l111.4 35c3.1 1 4.8 4.3 3.8 7.3l-21.1 67.1zM978.1 538.5l-122.6-38.5M982.9 523.2l-122.6-38.5"/></g><g stroke="#0080B2" stroke-miterlimit="10" fill="none"><path d="M760.5 33.9c3.1 1 4.8 4.3 3.8 7.3l-35 111.4c-1 3.1-4.3 4.8-7.3 3.8l-67.1-21.1c-3.1-1-4.8-4.3-3.8-7.3l35-111.4c1-3.1 4.3-4.8 7.3-3.8l67.1 21.1zM747.6 29.6l-38.6 122.6M732.3 24.8l-38.5 122.6"/></g><g stroke="#0080B2" stroke-miterlimit="10" fill="none"><path d="M617.1 485.7c3.1 1 4.8 4.3 3.8 7.3l-35 111.4c-1 3.1-4.3 4.8-7.3 3.8l-67.1-21.1c-3.1-1-4.8-4.3-3.8-7.3l35-111.4c1-3.1 4.3-4.8 7.3-3.8l67.1 21.1zM604.1 481.3l-38.5 122.6M588.9 476.5l-38.6 122.6"/></g><g stroke="#0080B2" stroke-miterlimit="10" fill="none"><path d="M1180.9 713.1c28.7 9.1 50.9 12.7 55.3 13.4 4.4.7 8.6-1.1 9.9-5.2l72.3-228.1c1.5-4.6-2.2-8.2-6.4-10.6-4.4-2.5-25.7-11.6-51.7-19.8l-.4-.1c-25.9-8.2-48.7-13.1-53.7-13.6-4.8-.4-9.9.4-11.3 5l-72.3 228.1c-1.3 4.1 1.1 8 5.1 10 4 2 24.2 11.8 52.9 20.9h.3z"/><circle cx="1256.8" cy="473.7" r="3.2"/><circle cx="1214.5" cy="460.3" r="1.5"/><path d="M1247.6 702.9c-.1.3-.4.5-.7.4l-114.7-36.4c-.3-.1-.5-.4-.4-.7l63.7-200.9c.1-.3.4-.5.7-.4l114.7 36.4c.3.1.5.4.4.7l-63.7 200.9z"/></g><g stroke="#0080B2" stroke-miterlimit="10" fill="none"><path d="M1343.5 312.9c3.1 1 4.8 4.3 3.8 7.3l-35 111.4c-1 3.1-4.3 4.8-7.3 3.8l-67.1-21.1c-3.1-1-4.8-4.3-3.8-7.3l35-111.4c1-3.1 4.3-4.8 7.3-3.8l67.1 21.1zM1315.3 303.8l-38.5 122.6"/></g><g stroke="#0080B2" stroke-miterlimit="10" fill="none"><path d="M1200.1 764.7c3.1 1 4.8 4.3 3.8 7.3l-35 111.4c-1 3.1-4.3 4.8-7.3 3.8l-67.1-21.1c-3.1-1-4.8-4.3-3.8-7.3l35-111.4c1-3.1 4.3-4.8 7.3-3.8l67.1 21.1zM1187.1 760.3l-38.5 122.6M1171.9 755.5l-38.6 122.6"/></g><g stroke="#0080B2" stroke-miterlimit="10" fill="none"><path d="M744.2 597.4c3.1 1 4.8 4.3 3.8 7.3l-35 111.4c-1 3.1-4.3 4.8-7.3 3.8l-67.1-21.1c-3.1-1-4.8-4.3-3.8-7.3l35-111.4c1-3.1 4.3-4.8 7.3-3.8l67.1 21.1zM731.3 593.1l-38.6 122.6M716 588.3l-38.5 122.6"/></g><g stroke="#0080B2" stroke-miterlimit="10" fill="none"><path d="M870 197.4c3.1 1 4.8 4.3 3.8 7.3l-35 111.4c-1 3.1-4.3 4.8-7.3 3.8l-67.1-21.1c-3.1-1-4.8-4.3-3.8-7.3l35-111.4c1-3.1 4.3-4.8 7.3-3.8l67.1 21.1zM857 193.1l-38.5 122.6M841.7 188.3l-38.5 122.6"/></g></g></g></svg>