<?xml version="1.0" encoding="utf-8"?>
<!-- Generator: Adobe Illustrator 17.1.0, SVG Export Plug-In . SVG Version: 6.00 Build 0)  -->
<!DOCTYPE svg PUBLIC "-//W3C//DTD SVG 1.1//EN" "http://www.w3.org/Graphics/SVG/1.1/DTD/svg11.dtd">
<svg version="1.1" xmlns="http://www.w3.org/2000/svg" xmlns:xlink="http://www.w3.org/1999/xlink" x="0px" y="0px"
	 viewBox="0 0 3000 2000" enable-background="new 0 0 3000 2000" xml:space="preserve">
<g id="Ebene_1">
	<rect x="-1" y="1" fill="#00A5DF" width="3000" height="2000"/>
</g>
<g id="Ebene_2">
	<path fill="#1099CF" d="M-1.181-19.832L-523.504,94.64c-78.923,17.297-128.937,95.322-111.629,174.294l114.469,522.306
		c17.305,78.959,95.373,128.943,174.296,111.647l522.323-114.472c78.976-17.308,128.965-95.358,111.66-174.317L173.146,91.791
		C155.839,12.819,77.795-37.141-1.181-19.832 M-352.25,215.726c65.917-102.924,198.565-137.139,305.076-82.56
		c4.13,2.75,7.293,6.933,8.439,12.163c1.134,5.173,0.069,10.267-2.481,14.45c-34.397,53.772-201.18,314.118-231.835,361.998
		c-2.787,3.839-6.817,6.79-11.838,7.89c-5.722,1.254-11.38-0.124-15.798-3.306C-393.934,452.262-417.84,318.172-352.25,215.726
		 M8.668,648.176c-65.654,102.56-197.632,136.853-303.985,82.997c-4.593-2.666-8.109-7.158-9.35-12.817
		c-1.154-5.265-0.028-10.356,2.572-14.599c34.772-54.268,200.424-312.903,231.496-361.378c2.732-4.062,6.893-7.172,12.071-8.307
		c5.29-1.159,10.555,0.029,14.764,2.701C50.188,410.734,74.563,545.373,8.668,648.176"/>
	<path fill="#1099CF" d="M956.243-229.662L433.92-115.189C354.997-97.892,304.983-19.867,322.291,59.105L436.76,581.411
		c17.305,78.959,95.373,128.943,174.296,111.647l522.323-114.473c78.976-17.308,128.965-95.358,111.66-174.317L1130.57-118.038
		C1113.262-197.01,1035.219-246.97,956.243-229.662 M605.173,5.896c65.917-102.924,198.565-137.139,305.076-82.56
		c4.13,2.75,7.293,6.933,8.439,12.163c1.134,5.173,0.069,10.267-2.481,14.45C881.811,3.72,715.027,264.066,684.372,311.946
		c-2.787,3.839-6.817,6.79-11.838,7.89c-5.722,1.254-11.38-0.124-15.798-3.306C563.49,242.432,539.583,108.343,605.173,5.896
		 M966.092,438.346C900.437,540.906,768.46,575.2,662.106,521.344c-4.593-2.666-8.109-7.158-9.35-12.817
		c-1.154-5.265-0.028-10.356,2.572-14.599C690.1,439.66,855.752,181.025,886.824,132.55c2.732-4.062,6.893-7.172,12.071-8.307
		c5.29-1.159,10.555,0.029,14.764,2.701C1007.612,200.904,1031.987,335.544,966.092,438.346"/>
	<path fill="#1099CF" d="M1913.666-439.491l-522.323,114.473c-78.923,17.297-128.937,95.322-111.629,174.294l114.469,522.306
		c17.305,78.959,95.373,128.943,174.296,111.647l522.323-114.473c78.976-17.308,128.965-95.358,111.66-174.317l-114.469-522.306
		C2070.686-406.84,1992.642-456.799,1913.666-439.491 M1562.597-203.933c65.917-102.924,198.565-137.139,305.076-82.56
		c4.13,2.75,7.293,6.933,8.439,12.163c1.134,5.173,0.069,10.267-2.481,14.45c-34.397,53.772-201.18,314.118-231.835,361.998
		c-2.787,3.839-6.817,6.79-11.838,7.89c-5.722,1.254-11.38-0.124-15.798-3.306C1520.913,32.603,1497.007-101.486,1562.597-203.933
		 M1923.515,228.517c-65.654,102.56-197.632,136.853-303.985,82.997c-4.593-2.666-8.109-7.158-9.35-12.817
		c-1.154-5.265-0.028-10.356,2.572-14.599c34.772-54.268,200.424-312.903,231.496-361.378c2.732-4.062,6.893-7.172,12.071-8.307
		c5.29-1.159,10.555,0.029,14.764,2.701C1965.036-8.925,1989.41,125.715,1923.515,228.517"/>
	<path fill="#1099CF" d="M2871.09-649.32l-522.323,114.473c-78.923,17.297-128.937,95.322-111.629,174.294l114.469,522.306
		c17.304,78.959,95.373,128.943,174.296,111.647l522.323-114.473c78.976-17.308,128.965-95.358,111.66-174.317l-114.469-522.306
		C3028.109-616.669,2950.066-666.629,2871.09-649.32 M2520.02-413.763c65.917-102.924,198.565-137.139,305.076-82.56
		c4.13,2.75,7.292,6.933,8.439,12.163c1.134,5.173,0.069,10.267-2.481,14.45c-34.397,53.772-201.18,314.118-231.835,361.998
		c-2.787,3.839-6.817,6.79-11.838,7.89c-5.722,1.254-11.38-0.124-15.798-3.306C2478.337-177.227,2454.431-311.316,2520.02-413.763
		 M2880.939,18.688c-65.654,102.56-197.632,136.854-303.985,82.997c-4.593-2.666-8.11-7.158-9.35-12.817
		c-1.154-5.265-0.028-10.356,2.572-14.599c34.772-54.268,200.424-312.903,231.496-361.378c2.732-4.062,6.893-7.172,12.071-8.307
		c5.29-1.159,10.555,0.029,14.763,2.701C2922.459-218.754,2946.834-84.115,2880.939,18.688"/>
	<path fill="#1099CF" d="M251.368,870.891l-522.323,114.473c-78.923,17.297-128.937,95.322-111.629,174.294l114.469,522.306
		c17.305,78.959,95.373,128.943,174.296,111.647l522.323-114.473c78.976-17.308,128.965-95.358,111.66-174.317L425.695,982.515
		C408.388,903.543,330.344,853.583,251.368,870.891 M-99.701,1106.449c65.917-102.924,198.565-137.139,305.076-82.56
		c4.13,2.75,7.293,6.933,8.439,12.163c1.134,5.173,0.069,10.267-2.481,14.45c-34.397,53.772-201.18,314.118-231.835,361.998
		c-2.787,3.839-6.817,6.79-11.838,7.89c-5.722,1.254-11.38-0.124-15.798-3.306C-141.385,1342.985-165.291,1208.896-99.701,1106.449
		 M261.217,1538.899c-65.654,102.56-197.632,136.854-303.985,82.997c-4.593-2.666-8.109-7.158-9.35-12.817
		c-1.154-5.265-0.028-10.356,2.572-14.599c34.772-54.268,200.424-312.903,231.496-361.377c2.732-4.062,6.893-7.173,12.071-8.307
		c5.29-1.159,10.555,0.029,14.764,2.701C302.737,1301.457,327.112,1436.097,261.217,1538.899"/>
	<path fill="#1099CF" d="M1208.792,661.062L686.469,775.534c-78.923,17.297-128.937,95.322-111.629,174.294l114.469,522.306
		c17.305,78.959,95.373,128.943,174.296,111.647l522.323-114.473c78.976-17.308,128.965-95.358,111.66-174.317l-114.469-522.306
		C1365.811,693.713,1287.768,643.753,1208.792,661.062 M857.722,896.62c65.917-102.924,198.565-137.139,305.076-82.56
		c4.13,2.75,7.293,6.933,8.439,12.163c1.134,5.173,0.069,10.267-2.481,14.45c-34.397,53.772-201.18,314.118-231.835,361.998
		c-2.787,3.839-6.817,6.79-11.838,7.891c-5.722,1.254-11.38-0.125-15.798-3.306C816.039,1133.156,792.132,999.066,857.722,896.62
		 M1218.641,1329.07c-65.654,102.56-197.632,136.854-303.985,82.997c-4.593-2.667-8.109-7.158-9.35-12.817
		c-1.154-5.265-0.028-10.356,2.572-14.599c34.772-54.268,200.424-312.903,231.496-361.378c2.732-4.062,6.893-7.173,12.071-8.307
		c5.29-1.159,10.555,0.029,14.764,2.701C1260.161,1091.628,1284.536,1226.268,1218.641,1329.07"/>
	<path fill="#1099CF" d="M2166.215,451.232l-522.323,114.473c-78.923,17.297-128.937,95.322-111.629,174.294l114.469,522.306
		c17.305,78.959,95.373,128.943,174.296,111.647l522.323-114.473c78.976-17.308,128.965-95.358,111.66-174.317l-114.469-522.306
		C2323.235,483.884,2245.191,433.924,2166.215,451.232 M1815.146,686.79c65.917-102.924,198.565-137.139,305.076-82.56
		c4.13,2.75,7.292,6.933,8.438,12.163c1.134,5.173,0.069,10.267-2.48,14.45C2091.783,684.614,1925,944.96,1894.345,992.84
		c-2.787,3.839-6.817,6.79-11.838,7.891c-5.722,1.254-11.38-0.125-15.798-3.306C1773.462,923.326,1749.556,789.237,1815.146,686.79
		 M2176.064,1119.241c-65.654,102.56-197.632,136.853-303.985,82.997c-4.593-2.666-8.109-7.157-9.35-12.817
		c-1.154-5.265-0.028-10.356,2.572-14.599c34.772-54.268,200.424-312.903,231.496-361.378c2.732-4.062,6.893-7.172,12.071-8.307
		c5.29-1.159,10.555,0.029,14.764,2.701C2217.585,881.798,2241.959,1016.438,2176.064,1119.241"/>
	<path fill="#1099CF" d="M3123.639,241.403l-522.323,114.473c-78.923,17.297-128.937,95.322-111.629,174.294l114.469,522.306
		c17.304,78.958,95.373,128.943,174.296,111.647l522.323-114.473c78.976-17.308,128.965-95.358,111.66-174.317l-114.469-522.306
		C3280.658,274.055,3202.615,224.095,3123.639,241.403 M2772.569,476.961c65.917-102.924,198.565-137.139,305.076-82.56
		c4.13,2.75,7.292,6.933,8.439,12.163c1.134,5.173,0.069,10.267-2.481,14.45c-34.397,53.772-201.18,314.118-231.835,361.998
		c-2.787,3.839-6.817,6.79-11.838,7.89c-5.722,1.254-11.38-0.124-15.799-3.306C2730.886,713.497,2706.98,579.408,2772.569,476.961
		 M3133.488,909.411c-65.654,102.56-197.632,136.853-303.985,82.997c-4.593-2.666-8.11-7.158-9.35-12.817
		c-1.154-5.265-0.028-10.356,2.572-14.599c34.772-54.268,200.424-312.903,231.496-361.378c2.732-4.062,6.893-7.173,12.071-8.307
		c5.29-1.159,10.555,0.029,14.764,2.701C3175.008,671.969,3199.383,806.609,3133.488,909.411"/>
	<path fill="#1099CF" d="M503.917,1761.615l-522.323,114.473c-78.923,17.297-128.937,95.322-111.629,174.294l114.469,522.306
		c17.305,78.959,95.373,128.943,174.296,111.647l522.323-114.473c78.976-17.308,128.965-95.358,111.66-174.317l-114.469-522.306
		C660.937,1794.266,582.893,1744.306,503.917,1761.615 M152.848,1997.172c65.917-102.924,198.565-137.139,305.076-82.56
		c4.13,2.75,7.293,6.933,8.439,12.163c1.134,5.173,0.069,10.266-2.481,14.45c-34.397,53.772-201.18,314.118-231.835,361.998
		c-2.787,3.839-6.817,6.79-11.838,7.89c-5.722,1.254-11.38-0.125-15.798-3.306C111.164,2233.708,87.258,2099.619,152.848,1997.172
		 M513.766,2429.623c-65.654,102.56-197.632,136.854-303.985,82.997c-4.593-2.667-8.109-7.157-9.35-12.817
		c-1.154-5.265-0.028-10.356,2.572-14.599c34.772-54.268,200.424-312.903,231.496-361.377c2.732-4.062,6.893-7.173,12.071-8.307
		c5.29-1.159,10.555,0.029,14.764,2.701C555.286,2192.181,579.661,2326.82,513.766,2429.623"/>
	<path fill="#1099CF" d="M1461.341,1551.785l-522.323,114.473c-78.923,17.297-128.937,95.322-111.629,174.294l114.469,522.306
		c17.305,78.959,95.373,128.943,174.296,111.647l522.323-114.473c78.976-17.308,128.965-95.358,111.66-174.317l-114.469-522.306
		C1618.36,1584.437,1540.317,1534.477,1461.341,1551.785 M1110.271,1787.343c65.917-102.924,198.565-137.139,305.076-82.56
		c4.13,2.75,7.293,6.933,8.439,12.162c1.134,5.173,0.069,10.267-2.481,14.45c-34.397,53.772-201.18,314.118-231.835,361.998
		c-2.787,3.839-6.817,6.79-11.838,7.89c-5.722,1.254-11.38-0.125-15.798-3.306
		C1068.588,2023.879,1044.682,1889.79,1110.271,1787.343 M1471.19,2219.793c-65.654,102.56-197.632,136.853-303.985,82.997
		c-4.593-2.667-8.109-7.157-9.35-12.817c-1.154-5.265-0.028-10.356,2.572-14.599c34.772-54.268,200.424-312.903,231.496-361.377
		c2.732-4.062,6.893-7.172,12.071-8.307c5.289-1.159,10.555,0.029,14.764,2.701
		C1512.71,1982.351,1537.085,2116.991,1471.19,2219.793"/>
	<path fill="#1099CF" d="M2418.764,1341.956l-522.323,114.473c-78.923,17.297-128.937,95.322-111.629,174.294l114.469,522.306
		c17.305,78.958,95.373,128.943,174.296,111.647l522.323-114.473c78.976-17.308,128.965-95.358,111.66-174.317l-114.469-522.306
		C2575.784,1374.607,2497.74,1324.648,2418.764,1341.956 M2067.695,1577.514c65.917-102.924,198.565-137.139,305.076-82.56
		c4.13,2.75,7.293,6.933,8.439,12.163c1.134,5.173,0.069,10.267-2.481,14.45c-34.396,53.772-201.18,314.118-231.835,361.998
		c-2.787,3.839-6.817,6.79-11.838,7.89c-5.722,1.254-11.38-0.125-15.799-3.306C2026.011,1814.05,2002.105,1679.96,2067.695,1577.514
		 M2428.613,2009.964c-65.654,102.56-197.632,136.853-303.985,82.997c-4.593-2.667-8.11-7.158-9.35-12.817
		c-1.154-5.265-0.028-10.356,2.572-14.599c34.772-54.268,200.424-312.903,231.496-361.378c2.732-4.062,6.893-7.172,12.071-8.307
		c5.29-1.159,10.555,0.029,14.764,2.701C2470.134,1772.522,2494.508,1907.162,2428.613,2009.964"/>
	<path fill="#1099CF" d="M3376.188,1132.127l-522.323,114.472c-78.923,17.297-128.937,95.322-111.629,174.294l114.469,522.306
		c17.305,78.959,95.373,128.943,174.296,111.647l522.323-114.473c78.976-17.308,128.965-95.358,111.66-174.317l-114.469-522.306
		C3533.207,1164.778,3455.164,1114.818,3376.188,1132.127 M3025.118,1367.684c65.917-102.924,198.565-137.139,305.076-82.56
		c4.13,2.75,7.293,6.933,8.439,12.163c1.134,5.173,0.069,10.267-2.481,14.45c-34.396,53.772-201.18,314.118-231.835,361.998
		c-2.787,3.839-6.817,6.79-11.838,7.891c-5.722,1.254-11.38-0.125-15.799-3.306
		C2983.435,1604.22,2959.529,1470.131,3025.118,1367.684 M3386.037,1800.135c-65.654,102.56-197.632,136.853-303.985,82.997
		c-4.593-2.666-8.11-7.157-9.35-12.817c-1.154-5.265-0.028-10.356,2.572-14.599c34.772-54.268,200.424-312.903,231.496-361.378
		c2.732-4.062,6.893-7.172,12.071-8.307c5.29-1.159,10.555,0.029,14.764,2.701
		C3427.557,1562.693,3451.932,1697.332,3386.037,1800.135"/>
</g>
<g id="Ebene_3">
	<circle fill="none" stroke="#118EBE" stroke-width="2" stroke-miterlimit="10" cx="-492.296" cy="237.356" r="146.169"/>
	<circle fill="none" stroke="#118EBE" stroke-width="2" stroke-miterlimit="10" cx="-154.58" cy="341.882" r="234.676"/>
	<circle fill="none" stroke="#118EBE" stroke-width="2" stroke-miterlimit="10" cx="-189.763" cy="521.534" r="235.024"/>
	<circle fill="none" stroke="#118EBE" stroke-width="2" stroke-miterlimit="10" cx="30.519" cy="122.776" r="146.169"/>
	<circle fill="none" stroke="#118EBE" stroke-width="2" stroke-miterlimit="10" cx="-377.716" cy="760.172" r="146.169"/>
	<circle fill="none" stroke="#118EBE" stroke-width="2" stroke-miterlimit="10" cx="145.099" cy="645.591" r="146.169"/>
	<circle fill="none" stroke="#118EBE" stroke-width="2" stroke-miterlimit="10" cx="-54.473" cy="352.673" r="18.755"/>
	<circle fill="none" stroke="#118EBE" stroke-width="2" stroke-miterlimit="10" cx="-286.497" cy="714.943" r="18.755"/>
	<circle fill="none" stroke="#118EBE" stroke-width="2" stroke-miterlimit="10" cx="-288.907" cy="511.068" r="18.755"/>
	<circle fill="none" stroke="#118EBE" stroke-width="2" stroke-miterlimit="10" cx="-57.281" cy="149.421" r="18.755"/>
	
		<rect x="-587.838" y="27.728" transform="matrix(-0.9768 0.2141 -0.2141 -0.9768 -249.1345 910.3855)" fill="none" stroke="#118EBE" stroke-width="2" stroke-miterlimit="10" width="827.95" height="827.95"/>
	
		<line fill="none" stroke="#118EBE" stroke-width="2" stroke-miterlimit="10" x1="-505.654" y1="1021.306" x2="199.459" y2="-79.619"/>
	
		<line fill="none" stroke="#118EBE" stroke-width="2" stroke-miterlimit="10" x1="-570.69" y1="985.797" x2="134.423" y2="-115.128"/>
	<circle fill="none" stroke="#118EBE" stroke-width="2" stroke-miterlimit="10" cx="465.127" cy="27.527" r="146.169"/>
	<circle fill="none" stroke="#118EBE" stroke-width="2" stroke-miterlimit="10" cx="802.843" cy="132.053" r="234.676"/>
	<circle fill="none" stroke="#118EBE" stroke-width="2" stroke-miterlimit="10" cx="767.661" cy="311.704" r="235.024"/>
	<circle fill="none" stroke="#118EBE" stroke-width="2" stroke-miterlimit="10" cx="987.943" cy="-87.053" r="146.169"/>
	<circle fill="none" stroke="#118EBE" stroke-width="2" stroke-miterlimit="10" cx="579.708" cy="550.342" r="146.169"/>
	<circle fill="none" stroke="#118EBE" stroke-width="2" stroke-miterlimit="10" cx="1102.523" cy="435.762" r="146.169"/>
	<circle fill="none" stroke="#118EBE" stroke-width="2" stroke-miterlimit="10" cx="902.95" cy="142.844" r="18.755"/>
	<circle fill="none" stroke="#118EBE" stroke-width="2" stroke-miterlimit="10" cx="670.926" cy="505.113" r="18.755"/>
	<circle fill="none" stroke="#118EBE" stroke-width="2" stroke-miterlimit="10" cx="668.517" cy="301.239" r="18.755"/>
	<circle fill="none" stroke="#118EBE" stroke-width="2" stroke-miterlimit="10" cx="900.142" cy="-60.408" r="18.755"/>
	
		<rect x="369.586" y="-182.102" transform="matrix(-0.9768 0.2141 -0.2141 -0.9768 1598.5957 290.6266)" fill="none" stroke="#118EBE" stroke-width="2" stroke-miterlimit="10" width="827.95" height="827.95"/>
	
		<line fill="none" stroke="#118EBE" stroke-width="2" stroke-miterlimit="10" x1="451.77" y1="811.477" x2="1156.883" y2="-289.448"/>
	
		<line fill="none" stroke="#118EBE" stroke-width="2" stroke-miterlimit="10" x1="386.734" y1="775.967" x2="1091.846" y2="-324.958"/>
	<circle fill="none" stroke="#118EBE" stroke-width="2" stroke-miterlimit="10" cx="1422.551" cy="-182.302" r="146.169"/>
	<circle fill="none" stroke="#118EBE" stroke-width="2" stroke-miterlimit="10" cx="1760.267" cy="-77.776" r="234.676"/>
	<circle fill="none" stroke="#118EBE" stroke-width="2" stroke-miterlimit="10" cx="1725.084" cy="101.875" r="235.024"/>
	<circle fill="none" stroke="#118EBE" stroke-width="2" stroke-miterlimit="10" cx="1945.366" cy="-296.883" r="146.169"/>
	<circle fill="none" stroke="#118EBE" stroke-width="2" stroke-miterlimit="10" cx="1537.131" cy="340.513" r="146.169"/>
	<circle fill="none" stroke="#118EBE" stroke-width="2" stroke-miterlimit="10" cx="2059.947" cy="225.933" r="146.169"/>
	<circle fill="none" stroke="#118EBE" stroke-width="2" stroke-miterlimit="10" cx="1860.374" cy="-66.986" r="18.755"/>
	<circle fill="none" stroke="#118EBE" stroke-width="2" stroke-miterlimit="10" cx="1628.35" cy="295.284" r="18.755"/>
	<circle fill="none" stroke="#118EBE" stroke-width="2" stroke-miterlimit="10" cx="1625.94" cy="91.41" r="18.755"/>
	<circle fill="none" stroke="#118EBE" stroke-width="2" stroke-miterlimit="10" cx="1857.566" cy="-270.238" r="18.755"/>
	
		<rect x="1327.01" y="-391.931" transform="matrix(-0.9768 0.2141 -0.2141 -0.9768 3446.3262 -329.1323)" fill="none" stroke="#118EBE" stroke-width="2" stroke-miterlimit="10" width="827.95" height="827.95"/>
	
		<line fill="none" stroke="#118EBE" stroke-width="2" stroke-miterlimit="10" x1="1409.193" y1="601.647" x2="2114.306" y2="-499.277"/>
	
		<line fill="none" stroke="#118EBE" stroke-width="2" stroke-miterlimit="10" x1="1344.157" y1="566.138" x2="2049.27" y2="-534.787"/>
	<circle fill="none" stroke="#118EBE" stroke-width="2" stroke-miterlimit="10" cx="2379.975" cy="-392.132" r="146.169"/>
	<circle fill="none" stroke="#118EBE" stroke-width="2" stroke-miterlimit="10" cx="2717.691" cy="-287.606" r="234.676"/>
	<circle fill="none" stroke="#118EBE" stroke-width="2" stroke-miterlimit="10" cx="2682.508" cy="-107.955" r="235.024"/>
	<circle fill="none" stroke="#118EBE" stroke-width="2" stroke-miterlimit="10" cx="2902.79" cy="-506.712" r="146.169"/>
	<circle fill="none" stroke="#118EBE" stroke-width="2" stroke-miterlimit="10" cx="2494.555" cy="130.684" r="146.169"/>
	<circle fill="none" stroke="#118EBE" stroke-width="2" stroke-miterlimit="10" cx="3017.37" cy="16.103" r="146.169"/>
	<circle fill="none" stroke="#118EBE" stroke-width="2" stroke-miterlimit="10" cx="2817.798" cy="-276.815" r="18.755"/>
	<circle fill="none" stroke="#118EBE" stroke-width="2" stroke-miterlimit="10" cx="2585.773" cy="85.455" r="18.755"/>
	<circle fill="none" stroke="#118EBE" stroke-width="2" stroke-miterlimit="10" cx="2583.364" cy="-118.42" r="18.755"/>
	<circle fill="none" stroke="#118EBE" stroke-width="2" stroke-miterlimit="10" cx="2814.99" cy="-480.067" r="18.755"/>
	
		<rect x="2284.433" y="-601.761" transform="matrix(-0.9768 0.2141 -0.2141 -0.9768 5294.0566 -948.8913)" fill="none" stroke="#118EBE" stroke-width="2" stroke-miterlimit="10" width="827.95" height="827.95"/>
	
		<line fill="none" stroke="#118EBE" stroke-width="2" stroke-miterlimit="10" x1="2366.617" y1="391.818" x2="3071.73" y2="-709.107"/>
	
		<line fill="none" stroke="#118EBE" stroke-width="2" stroke-miterlimit="10" x1="2301.581" y1="356.308" x2="3006.694" y2="-744.616"/>
	<circle fill="none" stroke="#118EBE" stroke-width="2" stroke-miterlimit="10" cx="-239.747" cy="1128.08" r="146.169"/>
	<circle fill="none" stroke="#118EBE" stroke-width="2" stroke-miterlimit="10" cx="97.969" cy="1232.606" r="234.676"/>
	<circle fill="none" stroke="#118EBE" stroke-width="2" stroke-miterlimit="10" cx="62.786" cy="1412.257" r="235.024"/>
	<circle fill="none" stroke="#118EBE" stroke-width="2" stroke-miterlimit="10" cx="283.068" cy="1013.499" r="146.169"/>
	<circle fill="none" stroke="#118EBE" stroke-width="2" stroke-miterlimit="10" cx="-125.167" cy="1650.895" r="146.169"/>
	<circle fill="none" stroke="#118EBE" stroke-width="2" stroke-miterlimit="10" cx="397.648" cy="1536.315" r="146.169"/>
	<circle fill="none" stroke="#118EBE" stroke-width="2" stroke-miterlimit="10" cx="198.076" cy="1243.396" r="18.755"/>
	<circle fill="none" stroke="#118EBE" stroke-width="2" stroke-miterlimit="10" cx="-33.948" cy="1605.666" r="18.755"/>
	<circle fill="none" stroke="#118EBE" stroke-width="2" stroke-miterlimit="10" cx="-36.358" cy="1401.792" r="18.755"/>
	<circle fill="none" stroke="#118EBE" stroke-width="2" stroke-miterlimit="10" cx="195.268" cy="1040.145" r="18.755"/>
	
		<rect x="-335.289" y="918.451" transform="matrix(-0.9768 0.2141 -0.2141 -0.9768 440.7942 2617.1165)" fill="none" stroke="#118EBE" stroke-width="2" stroke-miterlimit="10" width="827.95" height="827.95"/>
	
		<line fill="none" stroke="#118EBE" stroke-width="2" stroke-miterlimit="10" x1="-253.105" y1="1912.029" x2="452.008" y2="811.105"/>
	
		<line fill="none" stroke="#118EBE" stroke-width="2" stroke-miterlimit="10" x1="-318.141" y1="1876.52" x2="386.972" y2="775.595"/>
	<circle fill="none" stroke="#118EBE" stroke-width="2" stroke-miterlimit="10" cx="717.676" cy="918.25" r="146.169"/>
	<circle fill="none" stroke="#118EBE" stroke-width="2" stroke-miterlimit="10" cx="1055.392" cy="1022.776" r="234.676"/>
	<circle fill="none" stroke="#118EBE" stroke-width="2" stroke-miterlimit="10" cx="1020.21" cy="1202.428" r="235.024"/>
	<circle fill="none" stroke="#118EBE" stroke-width="2" stroke-miterlimit="10" cx="1240.492" cy="803.67" r="146.169"/>
	<circle fill="none" stroke="#118EBE" stroke-width="2" stroke-miterlimit="10" cx="832.257" cy="1441.066" r="146.169"/>
	<circle fill="none" stroke="#118EBE" stroke-width="2" stroke-miterlimit="10" cx="1355.072" cy="1326.485" r="146.169"/>
	<circle fill="none" stroke="#118EBE" stroke-width="2" stroke-miterlimit="10" cx="1155.499" cy="1033.567" r="18.755"/>
	<circle fill="none" stroke="#118EBE" stroke-width="2" stroke-miterlimit="10" cx="923.475" cy="1395.837" r="18.755"/>
	<circle fill="none" stroke="#118EBE" stroke-width="2" stroke-miterlimit="10" cx="921.066" cy="1191.963" r="18.755"/>
	<circle fill="none" stroke="#118EBE" stroke-width="2" stroke-miterlimit="10" cx="1152.691" cy="830.315" r="18.755"/>
	
		<rect x="622.135" y="708.622" transform="matrix(-0.9768 0.2141 -0.2141 -0.9768 2288.5244 1997.3575)" fill="none" stroke="#118EBE" stroke-width="2" stroke-miterlimit="10" width="827.95" height="827.95"/>
	
		<line fill="none" stroke="#118EBE" stroke-width="2" stroke-miterlimit="10" x1="704.319" y1="1702.2" x2="1409.432" y2="601.275"/>
	
		<line fill="none" stroke="#118EBE" stroke-width="2" stroke-miterlimit="10" x1="639.283" y1="1666.691" x2="1344.395" y2="565.766"/>
	<circle fill="none" stroke="#118EBE" stroke-width="2" stroke-miterlimit="10" cx="1675.1" cy="708.421" r="146.169"/>
	<circle fill="none" stroke="#118EBE" stroke-width="2" stroke-miterlimit="10" cx="2012.816" cy="812.947" r="234.676"/>
	<circle fill="none" stroke="#118EBE" stroke-width="2" stroke-miterlimit="10" cx="1977.633" cy="992.598" r="235.024"/>
	<circle fill="none" stroke="#118EBE" stroke-width="2" stroke-miterlimit="10" cx="2197.915" cy="593.841" r="146.169"/>
	<circle fill="none" stroke="#118EBE" stroke-width="2" stroke-miterlimit="10" cx="1789.68" cy="1231.236" r="146.169"/>
	<circle fill="none" stroke="#118EBE" stroke-width="2" stroke-miterlimit="10" cx="2312.496" cy="1116.656" r="146.169"/>
	<circle fill="none" stroke="#118EBE" stroke-width="2" stroke-miterlimit="10" cx="2112.923" cy="823.738" r="18.755"/>
	<circle fill="none" stroke="#118EBE" stroke-width="2" stroke-miterlimit="10" cx="1880.899" cy="1186.007" r="18.755"/>
	<circle fill="none" stroke="#118EBE" stroke-width="2" stroke-miterlimit="10" cx="1878.489" cy="982.133" r="18.755"/>
	<circle fill="none" stroke="#118EBE" stroke-width="2" stroke-miterlimit="10" cx="2110.115" cy="620.486" r="18.755"/>
	
		<rect x="1579.559" y="498.792" transform="matrix(-0.9768 0.2141 -0.2141 -0.9768 4136.2549 1377.5986)" fill="none" stroke="#118EBE" stroke-width="2" stroke-miterlimit="10" width="827.95" height="827.95"/>
	
		<line fill="none" stroke="#118EBE" stroke-width="2" stroke-miterlimit="10" x1="1661.743" y1="1492.371" x2="2366.855" y2="391.446"/>
	
		<line fill="none" stroke="#118EBE" stroke-width="2" stroke-miterlimit="10" x1="1596.706" y1="1456.861" x2="2301.819" y2="355.936"/>
	<circle fill="none" stroke="#118EBE" stroke-width="2" stroke-miterlimit="10" cx="2632.523" cy="498.592" r="146.169"/>
	<circle fill="none" stroke="#118EBE" stroke-width="2" stroke-miterlimit="10" cx="2970.24" cy="603.118" r="234.676"/>
	<circle fill="none" stroke="#118EBE" stroke-width="2" stroke-miterlimit="10" cx="2935.057" cy="782.769" r="235.024"/>
	<circle fill="none" stroke="#118EBE" stroke-width="2" stroke-miterlimit="10" cx="3155.339" cy="384.011" r="146.169"/>
	<circle fill="none" stroke="#118EBE" stroke-width="2" stroke-miterlimit="10" cx="2747.104" cy="1021.407" r="146.169"/>
	<circle fill="none" stroke="#118EBE" stroke-width="2" stroke-miterlimit="10" cx="3269.919" cy="906.827" r="146.169"/>
	<circle fill="none" stroke="#118EBE" stroke-width="2" stroke-miterlimit="10" cx="3070.347" cy="613.908" r="18.755"/>
	<circle fill="none" stroke="#118EBE" stroke-width="2" stroke-miterlimit="10" cx="2838.323" cy="976.178" r="18.755"/>
	<circle fill="none" stroke="#118EBE" stroke-width="2" stroke-miterlimit="10" cx="2835.913" cy="772.304" r="18.755"/>
	<circle fill="none" stroke="#118EBE" stroke-width="2" stroke-miterlimit="10" cx="3067.539" cy="410.656" r="18.755"/>
	
		<rect x="2536.982" y="288.963" transform="matrix(-0.9768 0.2141 -0.2141 -0.9768 5983.9854 757.8397)" fill="none" stroke="#118EBE" stroke-width="2" stroke-miterlimit="10" width="827.95" height="827.95"/>
	
		<line fill="none" stroke="#118EBE" stroke-width="2" stroke-miterlimit="10" x1="2619.166" y1="1282.541" x2="3324.279" y2="181.617"/>
	
		<line fill="none" stroke="#118EBE" stroke-width="2" stroke-miterlimit="10" x1="2554.13" y1="1247.032" x2="3259.243" y2="146.107"/>
	<circle fill="none" stroke="#118EBE" stroke-width="2" stroke-miterlimit="10" cx="12.802" cy="2018.803" r="146.169"/>
	<circle fill="none" stroke="#118EBE" stroke-width="2" stroke-miterlimit="10" cx="350.518" cy="2123.329" r="234.676"/>
	<circle fill="none" stroke="#118EBE" stroke-width="2" stroke-miterlimit="10" cx="315.335" cy="2302.98" r="235.024"/>
	<circle fill="none" stroke="#118EBE" stroke-width="2" stroke-miterlimit="10" cx="535.617" cy="1904.223" r="146.169"/>
	<circle fill="none" stroke="#118EBE" stroke-width="2" stroke-miterlimit="10" cx="127.382" cy="2541.619" r="146.169"/>
	<circle fill="none" stroke="#118EBE" stroke-width="2" stroke-miterlimit="10" cx="650.198" cy="2427.038" r="146.169"/>
	<circle fill="none" stroke="#118EBE" stroke-width="2" stroke-miterlimit="10" cx="450.625" cy="2134.12" r="18.755"/>
	<circle fill="none" stroke="#118EBE" stroke-width="2" stroke-miterlimit="10" cx="218.601" cy="2496.39" r="18.755"/>
	<circle fill="none" stroke="#118EBE" stroke-width="2" stroke-miterlimit="10" cx="216.191" cy="2292.515" r="18.755"/>
	<circle fill="none" stroke="#118EBE" stroke-width="2" stroke-miterlimit="10" cx="447.817" cy="1930.868" r="18.755"/>
	
		<rect x="-82.739" y="1809.175" transform="matrix(-0.9768 0.2141 -0.2141 -0.9768 1130.7229 4323.8477)" fill="none" stroke="#118EBE" stroke-width="2" stroke-miterlimit="10" width="827.95" height="827.95"/>
	
		<line fill="none" stroke="#118EBE" stroke-width="2" stroke-miterlimit="10" x1="-0.556" y1="2802.753" x2="704.557" y2="1701.828"/>
	
		<line fill="none" stroke="#118EBE" stroke-width="2" stroke-miterlimit="10" x1="-65.592" y1="2767.243" x2="639.521" y2="1666.319"/>
	<circle fill="none" stroke="#118EBE" stroke-width="2" stroke-miterlimit="10" cx="970.225" cy="1808.974" r="146.169"/>
	<circle fill="none" stroke="#118EBE" stroke-width="2" stroke-miterlimit="10" cx="1307.942" cy="1913.5" r="234.676"/>
	<circle fill="none" stroke="#118EBE" stroke-width="2" stroke-miterlimit="10" cx="1272.759" cy="2093.151" r="235.024"/>
	<circle fill="none" stroke="#118EBE" stroke-width="2" stroke-miterlimit="10" cx="1493.041" cy="1694.394" r="146.169"/>
	<circle fill="none" stroke="#118EBE" stroke-width="2" stroke-miterlimit="10" cx="1084.806" cy="2331.789" r="146.169"/>
	<circle fill="none" stroke="#118EBE" stroke-width="2" stroke-miterlimit="10" cx="1607.621" cy="2217.209" r="146.169"/>
	<circle fill="none" stroke="#118EBE" stroke-width="2" stroke-miterlimit="10" cx="1408.048" cy="1924.29" r="18.755"/>
	<circle fill="none" stroke="#118EBE" stroke-width="2" stroke-miterlimit="10" cx="1176.024" cy="2286.56" r="18.755"/>
	<circle fill="none" stroke="#118EBE" stroke-width="2" stroke-miterlimit="10" cx="1173.615" cy="2082.686" r="18.755"/>
	<circle fill="none" stroke="#118EBE" stroke-width="2" stroke-miterlimit="10" cx="1405.24" cy="1721.039" r="18.755"/>
	
		<rect x="874.684" y="1599.345" transform="matrix(-0.9768 0.2141 -0.2141 -0.9768 2978.4534 3704.0884)" fill="none" stroke="#118EBE" stroke-width="2" stroke-miterlimit="10" width="827.95" height="827.95"/>
	
		<line fill="none" stroke="#118EBE" stroke-width="2" stroke-miterlimit="10" x1="956.868" y1="2592.924" x2="1661.981" y2="1491.999"/>
	
		<line fill="none" stroke="#118EBE" stroke-width="2" stroke-miterlimit="10" x1="891.832" y1="2557.414" x2="1596.944" y2="1456.489"/>
	<circle fill="none" stroke="#118EBE" stroke-width="2" stroke-miterlimit="10" cx="1927.649" cy="1599.145" r="146.169"/>
	<circle fill="none" stroke="#118EBE" stroke-width="2" stroke-miterlimit="10" cx="2265.365" cy="1703.67" r="234.676"/>
	<circle fill="none" stroke="#118EBE" stroke-width="2" stroke-miterlimit="10" cx="2230.182" cy="1883.322" r="235.024"/>
	<circle fill="none" stroke="#118EBE" stroke-width="2" stroke-miterlimit="10" cx="2450.464" cy="1484.564" r="146.169"/>
	<circle fill="none" stroke="#118EBE" stroke-width="2" stroke-miterlimit="10" cx="2042.229" cy="2121.96" r="146.169"/>
	<circle fill="none" stroke="#118EBE" stroke-width="2" stroke-miterlimit="10" cx="2565.045" cy="2007.379" r="146.169"/>
	<circle fill="none" stroke="#118EBE" stroke-width="2" stroke-miterlimit="10" cx="2365.472" cy="1714.461" r="18.755"/>
	<circle fill="none" stroke="#118EBE" stroke-width="2" stroke-miterlimit="10" cx="2133.448" cy="2076.731" r="18.755"/>
	<circle fill="none" stroke="#118EBE" stroke-width="2" stroke-miterlimit="10" cx="2131.039" cy="1872.857" r="18.755"/>
	<circle fill="none" stroke="#118EBE" stroke-width="2" stroke-miterlimit="10" cx="2362.664" cy="1511.209" r="18.755"/>
	
		<rect x="1832.108" y="1389.516" transform="matrix(-0.9768 0.2141 -0.2141 -0.9768 4826.1831 3084.3296)" fill="none" stroke="#118EBE" stroke-width="2" stroke-miterlimit="10" width="827.95" height="827.95"/>
	
		<line fill="none" stroke="#118EBE" stroke-width="2" stroke-miterlimit="10" x1="1914.292" y1="2383.094" x2="2619.404" y2="1282.169"/>
	
		<line fill="none" stroke="#118EBE" stroke-width="2" stroke-miterlimit="10" x1="1849.255" y1="2347.585" x2="2554.368" y2="1246.66"/>
	<circle fill="none" stroke="#118EBE" stroke-width="2" stroke-miterlimit="10" cx="2885.073" cy="1389.315" r="146.169"/>
	<circle fill="none" stroke="#118EBE" stroke-width="2" stroke-miterlimit="10" cx="3222.789" cy="1493.841" r="234.676"/>
	<circle fill="none" stroke="#118EBE" stroke-width="2" stroke-miterlimit="10" cx="3187.606" cy="1673.492" r="235.024"/>
	<circle fill="none" stroke="#118EBE" stroke-width="2" stroke-miterlimit="10" cx="3407.888" cy="1274.735" r="146.169"/>
	<circle fill="none" stroke="#118EBE" stroke-width="2" stroke-miterlimit="10" cx="2999.653" cy="1912.13" r="146.169"/>
	<circle fill="none" stroke="#118EBE" stroke-width="2" stroke-miterlimit="10" cx="3522.468" cy="1797.55" r="146.169"/>
	<circle fill="none" stroke="#118EBE" stroke-width="2" stroke-miterlimit="10" cx="3322.896" cy="1504.632" r="18.755"/>
	<circle fill="none" stroke="#118EBE" stroke-width="2" stroke-miterlimit="10" cx="3090.872" cy="1866.901" r="18.755"/>
	<circle fill="none" stroke="#118EBE" stroke-width="2" stroke-miterlimit="10" cx="3088.462" cy="1663.027" r="18.755"/>
	<circle fill="none" stroke="#118EBE" stroke-width="2" stroke-miterlimit="10" cx="3320.087" cy="1301.38" r="18.755"/>
	
		<rect x="2789.531" y="1179.686" transform="matrix(-0.9768 0.2141 -0.2141 -0.9768 6673.9136 2464.5708)" fill="none" stroke="#118EBE" stroke-width="2" stroke-miterlimit="10" width="827.95" height="827.95"/>
	
		<line fill="none" stroke="#118EBE" stroke-width="2" stroke-miterlimit="10" x1="2871.715" y1="2173.265" x2="3576.828" y2="1072.34"/>
	
		<line fill="none" stroke="#118EBE" stroke-width="2" stroke-miterlimit="10" x1="2806.679" y1="2137.755" x2="3511.792" y2="1036.83"/>
	<g>
	</g>
	<g>
	</g>
	<g>
	</g>
	<g>
	</g>
	<g>
	</g>
	<g>
	</g>
	<g>
	</g>
	<g>
	</g>
	<g>
	</g>
	<g>
	</g>
	<g>
	</g>
	<g>
	</g>
	<g>
	</g>
	<g>
	</g>
	<g>
	</g>
</g>
</svg>
