<?xml version="1.0" encoding="UTF-8"?>
<svg width="826px" height="372px" viewBox="0 0 826 372" version="1.1" xmlns="http://www.w3.org/2000/svg" xmlns:xlink="http://www.w3.org/1999/xlink">
    <!-- Generator: Sketch 41.2 (35397) - http://www.bohemiancoding.com/sketch -->
    <title>logo-construction</title>
    <desc>Created with Sketch.</desc>
    <defs></defs>
    <g id="Elements" stroke="none" stroke-width="1" fill="none" fill-rule="evenodd">
        <g id="Logo" transform="translate(-110.000000, -120.000000)">
            <g id="logo-construction" transform="translate(110.000000, 120.000000)">
                <path d="M242.851983,213.526722 C228.728527,227.673464 206.374297,228.535036 191.222319,216.154237 C190.579917,215.564856 190.174021,214.720683 190.174021,213.768914 C190.174021,212.883543 190.533375,212.106368 191.098872,211.516987 C198.577182,204.032629 234.207122,168.360183 240.889021,161.675199 C241.4695,161.119417 242.245536,160.766628 243.115256,160.766628 C244.003552,160.766628 244.805756,161.142416 245.386434,161.719198 C257.845158,176.889707 257.022579,199.34938 242.851983,213.526722 M200.201565,131.449777 C214.379952,117.253836 236.838852,116.428463 251.99083,128.930858 C252.556128,129.517239 252.916081,130.299614 252.916081,131.178986 C252.916081,132.048957 252.566515,132.828732 252.011005,133.410313 C244.610398,140.828273 208.738959,176.735512 202.144751,183.339698 C201.563273,183.857682 200.813804,184.189471 199.970651,184.189471 C199.009445,184.189471 198.151311,183.769284 197.554852,183.103506 C185.214182,167.935797 186.092491,145.58072 200.201565,131.449777 M264.734999,106 L177.010373,106 C163.755239,106 153,116.760252 153,130.039822 L153,217.867781 C153,231.144952 163.755239,241.910004 177.010373,241.910004 L264.734999,241.910004 C277.999122,241.910004 288.751165,231.144952 288.751165,217.867781 L288.751165,130.039822 C288.751165,116.760252 277.999122,106 264.734999,106" id="Fill-1" fill="#323E4D"></path>
                <g id="LOGO" transform="translate(326.000000, 137.000000)" fill="#323E4D">
                    <path d="M6.28008985,49.6822762 C2.99252604,49.6822762 0,52.5764918 0,55.7403184 C0,57.0098346 0.402164591,58.2131203 1.188932,59.3449004 C4.96529848,65.034865 13.5266626,68 20.0327139,68 C31.1715608,68 43,61.0065248 43,48.048199 C43,34.5148984 32.1813627,30.257975 23.4871146,26.822779 C16.7070996,24.1518717 12.550228,22.3155862 12.550228,18.3212405 C12.550228,15.1275222 15.1001974,11.8998095 20.8019195,11.8998095 C24.3733987,11.8998095 27.3869988,13.46707 29.5119733,16.4357217 C30.9204275,18.3212405 32.5507454,19.2906679 34.3438023,19.2906679 C37.7420053,19.2906679 40.6168675,16.5101578 40.6168675,13.2150424 C40.6168675,11.95549 40.2843646,10.7903016 39.6492138,9.84666305 C35.8968484,4.04064851 28.1474236,7.10542736e-15 20.8019195,7.10542736e-15 C10.6746307,7.10542736e-15 0.434946566,6.30069213 0.434946566,18.3212405 C0.434946566,30.696972 10.5827241,34.6532206 18.726118,37.8469389 C25.2497311,40.384799 30.8847185,42.588576 30.8847185,48.048199 C30.8847185,52.0349253 27.1569396,56.0855377 20.0327139,56.0855377 C17.8550541,56.0855377 13.7754544,55.5832407 11.0849908,52.2787474 C9.650194,50.6165369 7.94318971,49.6822762 6.28008985,49.6822762" id="Fill-4"></path>
                    <path d="M292.287543,46.4599927 C292.287543,52.964415 288.099606,55.7369163 282.938523,55.7369163 L282.593157,55.7369163 C277.432074,55.7369163 273.23943,52.964415 273.23943,46.4599927 L273.23943,21.5226731 C273.23943,16.3948605 277.432074,12.2463338 282.593157,12.2463338 L282.938523,12.2463338 C288.099606,12.2463338 292.287543,16.3948605 292.287543,21.5226731 L292.287543,46.4599927 Z M282.938523,-2.84217094e-14 L282.593157,-2.84217094e-14 C270.643003,-2.84217094e-14 261.032164,9.64795381 261.032164,21.5226731 L261.032164,46.4599927 C261.032164,47.1769282 260.959795,47.9032125 261.032164,48.608462 L261.032164,96.024953 C261.032164,99.3192338 263.72567,102 267.04872,102 C270.370593,102 273.064688,99.3192338 273.064688,96.024953 L273.064688,64.9980638 C275.351638,67.0209088 279.168321,67.9803286 282.593157,67.9803286 L282.938523,67.9803286 C294.888089,67.9803286 304,57.7112644 304,45.8464782 L304,20.9272719 C304,9.0420352 294.888089,-2.84217094e-14 282.938523,-2.84217094e-14 L282.938523,-2.84217094e-14 Z" id="Fill-6"></path>
                    <path d="M248.967989,5.71257671 C248.81801,2.52837344 246.189531,-2.13162821e-14 242.935054,-2.13162821e-14 C239.676427,-2.13162821e-14 237.055654,2.52837344 236.905083,5.71257671 L236.868329,5.71257671 L236.868329,46.9085362 C236.868329,51.9295318 232.742435,55.9981383 227.672801,55.9981383 L227.32957,55.9981383 C222.238595,55.9981383 218.122779,51.9295318 218.122779,46.9085362 L218.122779,6.1128732 C218.122779,6.07477763 218.138784,6.02847687 218.138784,5.99155347 C218.138784,5.94642488 218.122779,5.89719368 218.122779,5.86144246 L218.122779,5.71257671 L218.113294,5.71257671 C217.962722,2.52837344 215.325944,-2.13162821e-14 212.076802,-2.13162821e-14 C208.828253,-2.13162821e-14 206.197403,2.52837344 206.046831,5.71257671 L206,5.71257671 L206,46.9085362 C206,58.52827 215.564843,68 227.32957,68 L227.672801,68 C239.426858,68 249,58.52827 249,46.9085362 L249,5.71257671 L248.967989,5.71257671 Z" id="Fill-8"></path>
                    <path d="M95.9745046,5.71257671 C95.8239041,2.52837344 93.1925458,-2.13162821e-14 89.9374405,-2.13162821e-14 C86.6888573,-2.13162821e-14 84.0563132,2.52837344 83.9057127,5.71257671 L83.8748811,5.71257671 L83.8748811,46.9085362 C83.8748811,51.9295318 79.7505619,55.9981383 74.6639411,55.9981383 L74.3319085,55.9981383 C69.2553673,55.9981383 65.1340127,51.9295318 65.1340127,46.9085362 L65.1340127,6.1128732 C65.1340127,6.07477763 65.1393489,6.02847687 65.1393489,5.99155347 C65.1393489,5.94642488 65.1340127,5.89719368 65.1340127,5.86144246 L65.1340127,5.71257671 L65.1180039,5.71257671 C64.9620672,2.52837344 62.3283372,-2.13162821e-14 59.0892407,-2.13162821e-14 C55.8293921,-2.13162821e-14 53.1974408,2.52837344 53.0474332,5.71257671 L53,5.71257671 L53,46.9085362 C53,58.52827 62.5726183,68 74.3319085,68 L74.6639411,68 C86.4339037,68 96,58.52827 96,46.9085362 L96,5.71257671 L95.9745046,5.71257671 Z" id="Fill-10"></path>
                    <path d="M160.907178,-1.42108547e-14 L160.573711,-1.42108547e-14 C154.657453,-1.42108547e-14 149.316704,2.45380149 145.482125,6.38257843 C141.649304,2.47254622 136.320863,0.0386609927 130.416326,0.0386609927 L130.086961,0.0386609927 C118.460738,0.0386609927 109,9.48424444 109,21.1083162 L109,62.2799304 L109.030475,62.2799304 C109.174059,65.4641903 111.774986,68 114.993032,68 C118.209905,68 120.810832,65.4641903 120.955002,62.2799304 L120.990752,62.2799304 L120.990752,21.1083162 C120.990752,16.0800441 125.059754,12.0130248 130.086961,12.0130248 L130.416326,12.0130248 C135.314601,12.0130248 139.292178,15.8744379 139.501987,20.7181917 C139.501987,20.8388608 139.480889,20.9513292 139.480889,21.0719983 L139.480889,62.2512275 L139.512536,62.2512275 C139.565867,63.4467894 139.97142,64.5568286 140.623116,65.4641903 C141.70498,66.9924711 143.481322,68 145.507326,68 C148.722441,68 151.322782,65.4641903 151.47164,62.2799304 L151.513251,62.2799304 L151.513251,21.1083162 C151.513251,20.9694881 151.502701,20.8388608 151.497427,20.7082336 C151.686724,15.856279 155.674264,11.9767069 160.573711,11.9767069 L160.907178,11.9767069 C165.935558,11.9767069 170.003388,16.0513412 170.003388,21.0719983 L170.003388,61.8488018 C170.003388,61.8874627 169.993425,61.925538 169.993425,61.971814 C169.993425,62.01809 170.003388,62.0561653 170.003388,62.1024413 L170.003388,62.2512275 L170.024486,62.2512275 C170.16807,65.4261151 172.764308,67.9648536 175.986456,67.9648536 C179.20333,67.9648536 181.799568,65.4261151 181.948427,62.2512275 L182,62.2512275 L182,21.0719983 C182,9.44909808 172.533401,-1.42108547e-14 160.907178,-1.42108547e-14" id="Fill-12"></path>
                    <path d="M330.482383,10.7074812 L332.112289,10.7074812 C332.925236,10.7074812 333.391578,10.1651711 333.391578,9.48283598 C333.391578,8.73622705 332.814666,8.29836185 332.112289,8.29836185 L330.482383,8.29836185 L330.482383,10.7074812 Z M328,7.24186144 C328,6.44762104 328.601547,6 329.238614,6 L332.222859,6 C334.42452,6 335.864222,7.3514712 335.864222,9.39101628 C335.864222,10.9995826 334.875967,12.1599541 333.326268,12.4509078 L335.48267,14.7796849 C335.818963,15.1469637 336,15.4384912 336,15.8499583 C336,16.2069073 335.683758,17 334.73045,17 C334.093383,17 333.868233,16.7721724 333.557147,16.3899729 L330.51733,12.5415797 L330.482383,12.5415797 L330.482383,15.6766486 C330.482383,16.5529528 329.961043,17 329.238614,17 C328.526497,17 328,16.5529528 328,15.6766486 L328,7.24186144 Z" id="Fill-17"></path>
                    <path d="M332.001182,21.0921986 C326.995664,21.0921986 322.909539,17.0070922 322.909539,11.998818 C322.909539,6.99527187 326.995664,2.93853428 332.001182,2.93853428 C337.012022,2.93853428 341.090461,6.99527187 341.090461,11.998818 C341.090461,17.0070922 337.012022,21.0921986 332.001182,21.0921986 M332.001182,7.10542736e-15 C325.380962,7.10542736e-15 320,5.39361702 320,11.998818 C320,18.6241135 325.380962,24 332.001182,24 C338.621403,24 344,18.6241135 344,11.998818 C344,5.39361702 338.621403,7.10542736e-15 332.001182,7.10542736e-15" id="Fill-14"></path>
                </g>
                <g id="Guides" opacity="0.2" transform="translate(39.000000, 0.000000)" stroke="#CC5252">
                    <g id="Group-Copy-2" transform="translate(665.500000, 173.500000) rotate(90.000000) translate(-665.500000, -173.500000) translate(492.500000, 98.500000)">
                        <path d="M345.93267,75 L0.0745806709,75" id="Line"></path>
                        <path d="M345.93267,149 L0.0745806709,149" id="Line-Copy"></path>
                        <path d="M345.93267,1 L0.0745806709,1" id="Line-Copy-4"></path>
                    </g>
                    <g id="Group-Copy-5" transform="translate(76.500000, 173.500000) rotate(90.000000) translate(-76.500000, -173.500000) translate(-96.500000, 135.500000)">
                        <path d="M345.93267,1 L0.0745806709,1" id="Line"></path>
                        <path d="M345.93267,75 L0.0745806709,75" id="Line-Copy"></path>
                    </g>
                    <path d="M786.15625,106.5 L0,106.5" id="Line-Copy"></path>
                    <g id="Group-Copy" transform="translate(268.500000, 173.500000) rotate(90.000000) translate(-268.500000, -173.500000) translate(95.500000, 153.500000)">
                        <path d="M345.93267,1.5 L0.0745806709,1.5" id="Line"></path>
                        <path d="M285.93267,38.5 L60.0745807,38.5" id="Line-Copy"></path>
                        <path d="M345.93267,38.5 L0.0745806709,38.5" id="Line-Copy-2"></path>
                    </g>
                    <path d="M786.15625,205.5 L0,205.5" id="Line"></path>
                    <path d="M786.15625,242 L0,242" id="Line-Copy"></path>
                    <path d="M786.16,316 L0,316" id="Line-Copy"></path>
                    <path d="M786.16,32.5 L0,32.5" id="Line-Copy-3"></path>
                    <path d="M161.970336,129.66014 C161.970336,142.92034 151.234073,153.66994 137.990325,153.66994 C124.746577,153.66994 114.010314,142.92034 114.010314,129.66014 C114.010314,116.39994 124.746577,105.65034 137.990325,105.65034 C151.234073,105.65034 161.970336,116.39994 161.970336,129.66014 L161.970336,129.66014 Z" id="Stroke-3"></path>
                    <path d="M226.939769,158.30738 C226.939769,179.59698 209.702581,196.85538 188.439595,196.85538 C167.176409,196.85538 149.939221,179.59698 149.939221,158.30738 C149.939221,137.01778 167.176409,119.75938 188.439595,119.75938 C209.702581,119.75938 226.939769,137.01778 226.939769,158.30738 L226.939769,158.30738 Z" id="Stroke-5"></path>
                    <path d="M215.04918,185.89572 C215.04918,207.21692 197.786424,224.50112 176.491677,224.50112 C155.19713,224.50112 137.934374,207.21692 137.934374,185.89572 C137.934374,164.57452 155.19713,147.29052 176.491677,147.29052 C197.786424,147.29052 215.04918,164.57452 215.04918,185.89572 L215.04918,185.89572 Z" id="Stroke-7"></path>
                    <path d="M249.777679,129.66014 C249.777679,142.92034 239.041416,153.66994 225.797667,153.66994 C212.553919,153.66994 201.817656,142.92034 201.817656,129.66014 C201.817656,116.39994 212.553919,105.65034 225.797667,105.65034 C239.041416,105.65034 249.777679,116.39994 249.777679,129.66014 L249.777679,129.66014 Z" id="Stroke-9"></path>
                    <path d="M161.970336,217.57654 C161.970336,230.83674 151.234073,241.58634 137.990325,241.58634 C124.746577,241.58634 114.010314,230.83674 114.010314,217.57654 C114.010314,204.31634 124.746577,193.56674 137.990325,193.56674 C151.234073,193.56674 161.970336,204.31634 161.970336,217.57654 L161.970336,217.57654 Z" id="Stroke-11"></path>
                    <path d="M249.777679,217.57654 C249.777679,230.83674 239.041416,241.58634 225.797667,241.58634 C212.553919,241.58634 201.817656,230.83674 201.817656,217.57654 C201.817656,204.31634 212.553919,193.56674 225.797667,193.56674 C239.041416,193.56674 249.777679,204.31634 249.777679,217.57654 L249.777679,217.57654 Z" id="Stroke-13"></path>
                    <path d="M207.179915,163.559 C207.179915,165.2604 205.802426,166.6396 204.103137,166.6396 C202.403848,166.6396 201.026159,165.2604 201.026159,163.559 C201.026159,161.8576 202.403848,160.4784 204.103137,160.4784 C205.802426,160.4784 207.179915,161.8576 207.179915,163.559 L207.179915,163.559 Z" id="Stroke-15"></path>
                    <path d="M157.27379,213.52714 C157.27379,215.22854 155.896301,216.60774 154.197012,216.60774 C152.497723,216.60774 151.120035,215.22854 151.120035,213.52714 C151.120035,211.82574 152.497723,210.44654 154.197012,210.44654 C155.896301,210.44654 157.27379,211.82574 157.27379,213.52714 L157.27379,213.52714 Z" id="Stroke-17"></path>
                    <path d="M164.047995,180.73018 C164.047995,182.43158 162.670506,183.81078 160.971217,183.81078 C159.271928,183.81078 157.894239,182.43158 157.894239,180.73018 C157.894239,179.02878 159.271928,177.64958 160.971217,177.64958 C162.670506,177.64958 164.047995,179.02878 164.047995,180.73018 L164.047995,180.73018 Z" id="Stroke-19"></path>
                    <path d="M213.868366,130.84792 C213.868366,132.54932 212.490878,133.92852 210.791588,133.92852 C209.092299,133.92852 207.714611,132.54932 207.714611,130.84792 C207.714611,129.14652 209.092299,127.76732 210.791588,127.76732 C212.490878,127.76732 213.868366,129.14652 213.868366,130.84792 L213.868366,130.84792 Z" id="Stroke-21"></path>
                    <path d="M108.316427,254.97738 L259.979426,103.12598" id="Stroke-25"></path>
                    <path d="M99.1412445,246.99278 L250.804243,95.14158" id="Stroke-26"></path>
                </g>
                <g id="Flags" transform="translate(0.000000, 33.000000)">
                    <g id="Group-8" transform="translate(289.000000, 308.000000)">
                        <rect id="ruler-start" fill="#50E3C2" x="0.5" y="0" width="1" height="5"></rect>
                        <rect id="ruler-end" fill="#50E3C2" x="35.5" y="0" width="1" height="5"></rect>
                        <rect id="ruler-line" fill="#50E3C2" x="0.5" y="2" width="36" height="1"></rect>
                        <polygon id="label-arrow" fill="#50E3C2" points="14.5 9 18.5 5 22.5 9 18.5 13"></polygon>
                        <rect id="label-box" fill="#50E3C2" x="0.5" y="9" width="35" height="22" rx="2"></rect>
                        <text id="1x" font-family="HelveticaNeue, Helvetica Neue" font-size="12" font-weight="normal" fill="#FFFFFF">
                            <tspan x="11.556" y="24">1x</tspan>
                        </text>
                    </g>
                    <g id="Group-6" transform="translate(631.000000, 308.000000)">
                        <rect id="ruler-start" fill="#50E3C2" x="0" y="0" width="1" height="5"></rect>
                        <rect id="ruler-end" fill="#50E3C2" x="72" y="0" width="1" height="5"></rect>
                        <rect id="ruler-line" fill="#50E3C2" x="0" y="2" width="73" height="1"></rect>
                        <rect id="label-box" fill="#50E3C2" x="18.5" y="9" width="35" height="22" rx="2"></rect>
                        <polygon id="label-arrow" fill="#50E3C2" points="31.5 9 35.5 5 39.5 9 35.5 13"></polygon>
                        <text id="2x" font-family="HelveticaNeue, Helvetica Neue" font-size="12" font-weight="normal" fill="#FFFFFF">
                            <tspan x="29.556" y="24">2x</tspan>
                        </text>
                    </g>
                    <g id="Group-7" transform="translate(0.000000, 174.000000)">
                        <rect id="ruler-start" fill="#50E3C2" x="39" y="0" width="5" height="1"></rect>
                        <rect id="ruler-end" fill="#50E3C2" x="39" y="34" width="5" height="1"></rect>
                        <rect id="ruler-line" fill="#50E3C2" x="41" y="0" width="1" height="35"></rect>
                        <polygon id="label-arrow" fill="#50E3C2" points="31 18 35 14 39 18 35 22"></polygon>
                        <rect id="label-box" fill="#50E3C2" x="0" y="7" width="35" height="22" rx="2"></rect>
                        <text id="1x" font-family="HelveticaNeue, Helvetica Neue" font-size="12" font-weight="normal" fill="#FFFFFF">
                            <tspan x="11.056" y="22">1x</tspan>
                        </text>
                    </g>
                    <g id="VERTICAL#00B69DB1-7358-4E2D-AD04-135D8ABC0F94#EB85F8C8-5F57-465F-A09E-8E00AD7A2E0C-Copy-3" transform="translate(0.000000, 209.500000)">
                        <rect id="ruler-start" fill="#50E3C2" x="39" y="0" width="5" height="1"></rect>
                        <rect id="ruler-end" fill="#50E3C2" x="39" y="72" width="5" height="1"></rect>
                        <rect id="ruler-line" fill="#50E3C2" x="41" y="0" width="1" height="73"></rect>
                        <g id="Group-10" transform="translate(0.000000, 24.500000)">
                            <polygon id="label-arrow" fill="#50E3C2" points="31 11 35 7 39 11 35 15"></polygon>
                            <rect id="label-box" fill="#50E3C2" x="0" y="0" width="35" height="22" rx="2"></rect>
                            <text id="2x" font-family="HelveticaNeue, Helvetica Neue" font-size="12" font-weight="normal" fill="#FFFFFF">
                                <tspan x="12.056" y="15">2x</tspan>
                            </text>
                        </g>
                    </g>
                    <g id="VERTICAL#00B69DB1-7358-4E2D-AD04-135D8ABC0F94#EB85F8C8-5F57-465F-A09E-8E00AD7A2E0C-Copy-2">
                        <rect id="ruler-start" fill="#50E3C2" x="39" y="0" width="5" height="1"></rect>
                        <rect id="ruler-end" fill="#50E3C2" x="39" y="72" width="5" height="1"></rect>
                        <rect id="ruler-line" fill="#50E3C2" x="41" y="0" width="1" height="73"></rect>
                        <g id="Group-10" transform="translate(0.000000, 24.500000)">
                            <polygon id="label-arrow" fill="#50E3C2" points="31 11 35 7 39 11 35 15"></polygon>
                            <rect id="label-box" fill="#50E3C2" x="0" y="0" width="35" height="22" rx="2"></rect>
                            <text id="2x" font-family="HelveticaNeue, Helvetica Neue" font-size="12" font-weight="normal" fill="#FFFFFF">
                                <tspan x="12.056" y="15">2x</tspan>
                            </text>
                        </g>
                    </g>
                    <g id="Group-6-Copy-3" transform="translate(705.000000, 308.000000)">
                        <rect id="ruler-start" fill="#50E3C2" x="0" y="0" width="1" height="5"></rect>
                        <rect id="ruler-end" fill="#50E3C2" x="72" y="0" width="1" height="5"></rect>
                        <rect id="ruler-line" fill="#50E3C2" x="0" y="2" width="73" height="1"></rect>
                        <rect id="label-box" fill="#50E3C2" x="18.5" y="9" width="35" height="22" rx="2"></rect>
                        <polygon id="label-arrow" fill="#50E3C2" points="31.5 9 35.5 5 39.5 9 35.5 13"></polygon>
                        <text id="2x" font-family="HelveticaNeue, Helvetica Neue" font-size="12" font-weight="normal" fill="#FFFFFF">
                            <tspan x="29.556" y="24">2x</tspan>
                        </text>
                    </g>
                    <g id="Group-6-Copy" transform="translate(79.000000, 308.000000)">
                        <rect id="ruler-start" fill="#50E3C2" x="0" y="0" width="1" height="5"></rect>
                        <rect id="ruler-end" fill="#50E3C2" x="72" y="0" width="1" height="5"></rect>
                        <rect id="ruler-line" fill="#50E3C2" x="0" y="2" width="73" height="1"></rect>
                        <rect id="label-box" fill="#50E3C2" x="18.5" y="9" width="35" height="22" rx="2"></rect>
                        <polygon id="label-arrow" fill="#50E3C2" points="31.5 9 35.5 5 39.5 9 35.5 13"></polygon>
                        <text id="2x" font-family="HelveticaNeue, Helvetica Neue" font-size="12" font-weight="normal" fill="#FFFFFF">
                            <tspan x="29.556" y="24">2x</tspan>
                        </text>
                    </g>
                </g>
            </g>
        </g>
    </g>
</svg>