<?xml version="1.0" encoding="UTF-8"?>
<svg width="290px" height="290px" viewBox="0 0 290 290" version="1.1" xmlns="http://www.w3.org/2000/svg" xmlns:xlink="http://www.w3.org/1999/xlink">
    <!-- Generator: Sketch 41.2 (35397) - http://www.bohemiancoding.com/sketch -->
    <title>logo-social-clearspace</title>
    <desc>Created with Sketch.</desc>
    <defs>
        <path d="M290.000547,144.5 C290.000547,165.76309 272.76336,183 251.500373,183 C230.237187,183 213,165.76309 213,144.5 C213,123.23691 230.237187,106 251.500373,106 C272.76336,106 290.000547,123.23691 290.000547,144.5 L290.000547,144.5 Z" id="path-1"></path>
        <mask id="mask-2" maskContentUnits="userSpaceOnUse" maskUnits="objectBoundingBox" x="0" y="0" width="77.0005471" height="77" fill="white">
            <use xlink:href="#path-1"></use>
        </mask>
        <path d="M183.000547,251.5 C183.000547,272.76309 165.76336,290 144.500373,290 C123.237187,290 106,272.76309 106,251.5 C106,230.23691 123.237187,213 144.500373,213 C165.76336,213 183.000547,230.23691 183.000547,251.5 L183.000547,251.5 Z" id="path-3"></path>
        <mask id="mask-4" maskContentUnits="userSpaceOnUse" maskUnits="objectBoundingBox" x="0" y="0" width="77.0005471" height="77" fill="white">
            <use xlink:href="#path-3"></use>
        </mask>
        <path d="M77.0005471,144.5 C77.0005471,165.76309 59.7633598,183 38.5003734,183 C17.2371873,183 0,165.76309 0,144.5 C0,123.23691 17.2371873,106 38.5003734,106 C59.7633598,106 77.0005471,123.23691 77.0005471,144.5 L77.0005471,144.5 Z" id="path-5"></path>
        <mask id="mask-6" maskContentUnits="userSpaceOnUse" maskUnits="objectBoundingBox" x="0" y="0" width="77.0005471" height="77" fill="white">
            <use xlink:href="#path-5"></use>
        </mask>
        <path d="M183.000547,38.5 C183.000547,59.7630902 165.76336,77 144.500373,77 C123.237187,77 106,59.7630902 106,38.5 C106,17.2369098 123.237187,0 144.500373,0 C165.76336,0 183.000547,17.2369098 183.000547,38.5 L183.000547,38.5 Z" id="path-7"></path>
        <mask id="mask-8" maskContentUnits="userSpaceOnUse" maskUnits="objectBoundingBox" x="0" y="0" width="77.0005471" height="77" fill="white">
            <use xlink:href="#path-7"></use>
        </mask>
    </defs>
    <g id="Elements" stroke="none" stroke-width="1" fill="none" fill-rule="evenodd">
        <g id="Logo" transform="translate(-110.000000, -1104.000000)">
            <g id="logo-socialmedia-rect-white" transform="translate(110.000000, 1104.000000)">
                <g id="logo-social-clearspace">
                    <path d="M167.016683,184.597923 C152.867339,198.754033 130.472133,199.616176 115.292381,187.227178 C114.648802,186.637407 114.242162,185.792675 114.242162,184.840276 C114.242162,183.954318 114.602174,183.176629 115.168708,182.586858 C122.660726,175.097544 158.355976,139.401476 165.050124,132.712066 C165.631667,132.155916 166.409125,131.802894 167.280439,131.802894 C168.170364,131.802894 168.974038,132.17893 169.555781,132.756094 C182.037341,147.936648 181.213255,170.411194 167.016683,184.597923 M124.288086,102.466629 C138.492462,88.261288 160.992531,87.4353681 176.172282,99.9460425 C176.738616,100.532812 177.099229,101.315705 177.099229,102.195658 C177.099229,103.066206 176.749023,103.846498 176.192494,104.428464 C168.778322,111.851336 132.84113,147.782351 126.234834,154.390911 C125.652291,154.909237 124.901448,155.241246 124.05675,155.241246 C123.093782,155.241246 122.234075,154.820781 121.636522,154.154562 C109.273232,138.976809 110.153151,116.606929 124.288086,102.466629 M188.939812,77 L101.054385,77 C87.7749541,77 77,87.7673771 77,101.055741 L77,188.941858 C77,202.22782 87.7749541,213 101.054385,213 L188.939812,213 C202.228248,213 213,202.22782 213,188.941858 L213,101.055741 C213,87.7673771 202.228248,77 188.939812,77" id="Fill-1" fill="#323E4D"></path>
                    <g id="Group" opacity="0.2" stroke="#CC5252">
                        <use id="Stroke-5" mask="url(#mask-2)" stroke-width="2" xlink:href="#path-1"></use>
                        <use id="Stroke-5-Copy" mask="url(#mask-4)" stroke-width="2" xlink:href="#path-3"></use>
                        <use id="Stroke-5-Copy-2" mask="url(#mask-6)" stroke-width="2" xlink:href="#path-5"></use>
                        <use id="Stroke-5-Copy-3" mask="url(#mask-8)" stroke-width="2" xlink:href="#path-7"></use>
                        <path d="M190.200559,129.747997 C190.200559,151.037597 172.963372,168.295997 151.700386,168.295997 C130.4372,168.295997 113.200012,151.037597 113.200012,129.747997 C113.200012,108.458397 130.4372,91.1999969 151.700386,91.1999969 C172.963372,91.1999969 190.200559,108.458397 190.200559,129.747997 L190.200559,129.747997 Z" id="Stroke-5-Copy-4"></path>
                    </g>
                </g>
            </g>
        </g>
    </g>
</svg>