<svg id="Layer_1" data-name="Layer 1" xmlns="http://www.w3.org/2000/svg" width="1141.45" height="437.8" viewBox="0 0 1141.45 437.8">
  <defs>
    <style>
      .cls-1, .cls-2, .cls-5 {
        fill: #8eb6ed;
      }

      .cls-1, .cls-18, .cls-4 {
        opacity: 0.3;
      }

      .cls-2 {
        opacity: 0.2;
      }

      .cls-11, .cls-12, .cls-13, .cls-16, .cls-18, .cls-20, .cls-21, .cls-22, .cls-25, .cls-3, .cls-6 {
        fill: none;
      }

      .cls-3, .cls-6 {
        stroke: #5e8bc8;
      }

      .cls-11, .cls-12, .cls-16, .cls-25, .cls-3, .cls-7 {
        stroke-miterlimit: 10;
      }

      .cls-13, .cls-18, .cls-20, .cls-21, .cls-22, .cls-25, .cls-6, .cls-8, .cls-9 {
        stroke-linecap: round;
      }

      .cls-13, .cls-18, .cls-20, .cls-21, .cls-22, .cls-6, .cls-8, .cls-9 {
        stroke-linejoin: round;
      }

      .cls-14, .cls-7, .cls-8, .cls-9 {
        fill: #416494;
      }

      .cls-7, .cls-8, .cls-9 {
        stroke: #416494;
      }

      .cls-14, .cls-7, .cls-9 {
        opacity: 0.8;
      }

      .cls-10 {
        fill: #698fc9;
      }

      .cls-11 {
        stroke: #4e8fcc;
      }

      .cls-12, .cls-13 {
        stroke: #8eb6ed;
      }

      .cls-13 {
        stroke-width: 2px;
      }

      .cls-15 {
        fill: #d4e1f5;
      }

      .cls-16 {
        stroke: #698fc9;
      }

      .cls-17 {
        fill: #4c6892;
      }

      .cls-18, .cls-20, .cls-21 {
        stroke: #6c89c8;
      }

      .cls-19 {
        fill: #003056;
      }

      .cls-20 {
        stroke-width: 0.5px;
      }

      .cls-22, .cls-25 {
        stroke: #d4e1f5;
      }

      .cls-23 {
        fill: #6c89c8;
      }

      .cls-24 {
        fill: #cad7eb;
      }
    </style>
  </defs>
  <title>illu-devices</title>
  <path class="cls-1" d="M1138.16,219s2-5.63,2.48-7a4.77,4.77,0,0,0,0-2.81l.22-3.12,1.34-2.59a23.87,23.87,0,0,0-10.36-5.77H918.95s-21.19,1.15-21.19,21.46V426.1h7.62V225.65c0-8.28,4.64-17.55,14.57-17.55h200.83a15.82,15.82,0,0,1,11.27,4.72Z" transform="translate(-9.2 -13.16)"/>
  <path class="cls-2" d="M241.84,331.1a15.5,15.5,0,0,1-5.79-11.84L228.91,162.4l-9.71,151a12.63,12.63,0,0,1-12.58,11.49H109.3a12.63,12.63,0,0,1-12.58-11.49L86.94,162.79,79.88,319.26a15.5,15.5,0,0,1-5.79,11.84L34.91,366.5A2,2,0,0,0,34.5,369a19.67,19.67,0,0,0,3.38,4.57c2.54,2.41,7,3.09,8,3.28a2.16,2.16,0,0,0,.4,0H276a2.65,2.65,0,0,0,1-.21,25.91,25.91,0,0,0,6.32-3.63,35.37,35.37,0,0,0,3.56-3.88,2,2,0,0,0-.32-2.88Z" transform="translate(-9.2 -13.16)"/>
  <path class="cls-3" d="M301.06,284.77h-3a3.69,3.69,0,0,0-3.69,3.69l-3,76.67A16.39,16.39,0,0,1,275,381.52H45.52a16,16,0,0,1-16-16l-6.1-76.14a4.58,4.58,0,0,0-4.58-4.58H17.13s-2.65-52,22.37-88.27c20-29,35.45-35.79,42.27-40.47a14.14,14.14,0,0,1,8-2.49H227c2.5,0,4.75,1.07,7,2.06,12.64,5.44,34.72,21.61,48.39,45.94C305.71,243,301.06,284.77,301.06,284.77Z" transform="translate(-9.2 -13.16)"/>
  <path class="cls-3" d="M291.39,366.13c0,9.05-7.34,18.39-16.39,18.39H45.52c-8.86,0-16-9.18-16-18" transform="translate(-9.2 -13.16)"/>
  <path class="cls-3" d="M18.23,442.88H300.06a2.2,2.2,0,0,0,2.19-2.12l4.89-156V271.56s0-.1,0-.15c-3.08-52.39-25.36-93.2-65-118.74a25.87,25.87,0,0,0-14-4.11H88.46a22.45,22.45,0,0,0-12,3.54c-40.14,25.51-62.91,69.13-66.36,119.38h0Q9.7,276.8,9.7,282.2c0,2.93,4.69,120.19,6.34,158.63v0A2.17,2.17,0,0,0,18.23,442.88Z" transform="translate(-9.2 -13.16)"/>
  <path class="cls-2" d="M300.42,442.88h-284l3.11-18.8c.52-2,2.89-3.48,5.64-3.48H290.06c2.58,0,4.85,1.28,5.57,3.13Z" transform="translate(-9.2 -13.16)"/>
  <rect class="cls-2" x="16.18" y="391.79" width="266.41" height="5.84" rx="2.92" ry="2.92"/>
  <g class="cls-4">
    <path class="cls-5" d="M265.11,281.33H54.6A29.32,29.32,0,0,1,25.32,252V42.44A29.32,29.32,0,0,1,54.6,13.16H265.11A29.32,29.32,0,0,1,294.4,42.44V252A29.32,29.32,0,0,1,265.11,281.33ZM54.6,13.73A28.74,28.74,0,0,0,25.89,42.44V252A28.74,28.74,0,0,0,54.6,280.76H265.11A28.74,28.74,0,0,0,293.82,252V42.44a28.74,28.74,0,0,0-28.71-28.71Z" transform="translate(-9.2 -13.16)"/>
    <path class="cls-5" d="M264,278.46H55.75A27.58,27.58,0,0,1,28.2,250.91V43.58A27.58,27.58,0,0,1,55.75,16H264a27.58,27.58,0,0,1,27.55,27.55V250.91A27.58,27.58,0,0,1,264,278.46ZM55.75,16.6a27,27,0,0,0-27,27V250.91a27,27,0,0,0,27,27H264a27,27,0,0,0,27-27V43.58a27,27,0,0,0-27-27Z" transform="translate(-9.2 -13.16)"/>
    <path class="cls-5" d="M240.12,120.23H79.59a10.8,10.8,0,0,1-10.79-10.79V74.76A10.8,10.8,0,0,1,79.59,64H240.12a10.8,10.8,0,0,1,10.79,10.79v34.68A10.8,10.8,0,0,1,240.12,120.23ZM79.59,64.55A10.22,10.22,0,0,0,69.38,74.76v34.68a10.22,10.22,0,0,0,10.21,10.21H240.12a10.22,10.22,0,0,0,10.21-10.21V74.76a10.22,10.22,0,0,0-10.21-10.21Z" transform="translate(-9.2 -13.16)"/>
    <g class="cls-4">
      <path class="cls-5" d="M130.71,162.12c0-5.26,7.22-6,7.22-9.47a2.44,2.44,0,0,0-2.65-2.44,3.38,3.38,0,0,0-2.61,1.36c-.29.31-.63.44-1,.15l-.37-.29a.62.62,0,0,1-.19-.94,5.19,5.19,0,0,1,4.3-2.21c2.69,0,4.65,1.69,4.65,4.23,0,4.84-7.05,5.59-7.11,8.95h6.65a.62.62,0,0,1,.69.69v.42a.62.62,0,0,1-.69.69h-8.18a.66.66,0,0,1-.73-.69Z" transform="translate(-9.2 -13.16)"/>
    </g>
    <g class="cls-4">
      <path class="cls-5" d="M179.68,161l.33-.48a.62.62,0,0,1,1-.13,4.86,4.86,0,0,0,3,1.17,2.8,2.8,0,0,0,3-2.69c0-1.81-1.61-2.71-3.42-2.71h-.46a.76.76,0,0,1-.77-.5l-.06-.12a.77.77,0,0,1,.17-.9l2.84-3.36a11.41,11.41,0,0,1,.92-1v0a9.87,9.87,0,0,1-1.25.06h-4.3a.63.63,0,0,1-.69-.69v-.42a.62.62,0,0,1,.69-.69h7.43c.46,0,.69.23.69.65v.19a1.13,1.13,0,0,1-.31.83l-3.69,4.25c2,.21,4.32,1.46,4.32,4.32a4.77,4.77,0,0,1-5,4.73,7,7,0,0,1-4.3-1.56A.64.64,0,0,1,179.68,161Z" transform="translate(-9.2 -13.16)"/>
    </g>
    <g class="cls-4">
      <path class="cls-5" d="M80.88,192.37v-.12a1.36,1.36,0,0,1,.27-.86l6.26-8.68a.89.89,0,0,1,.81-.44h1.15a.62.62,0,0,1,.69.69v8.34h1.31a.63.63,0,0,1,.69.69v.38c0,.46-.21.69-.58.69H90.06v3.25a.62.62,0,0,1-.69.69H88.7a.62.62,0,0,1-.69-.69v-3.25H81.57A.62.62,0,0,1,80.88,192.37ZM88,191.3v-5.36a12.77,12.77,0,0,1,.1-1.46h0a11.35,11.35,0,0,1-.73,1.21l-4.17,5.57v0Z" transform="translate(-9.2 -13.16)"/>
    </g>
    <g class="cls-4">
      <path class="cls-5" d="M131,194.7l.33-.46a.59.59,0,0,1,.94-.08,3.83,3.83,0,0,0,2.71,1.13,3.06,3.06,0,0,0,3.23-3,3.11,3.11,0,0,0-3.36-3,4.52,4.52,0,0,0-2,.52,1.28,1.28,0,0,1-.92,0l-.19-.06a.74.74,0,0,1-.5-.81l.63-6a.63.63,0,0,1,.71-.65h6.09a.61.61,0,0,1,.69.69v.42a.62.62,0,0,1-.69.69h-4.94l-.35,3.11a4.34,4.34,0,0,1-.1.77h0a4.24,4.24,0,0,1,1.9-.46,4.81,4.81,0,0,1,5.13,4.8,5,5,0,0,1-5.21,5,5.74,5.74,0,0,1-4-1.61A.6.6,0,0,1,131,194.7Z" transform="translate(-9.2 -13.16)"/>
    </g>
    <g class="cls-4">
      <path class="cls-5" d="M186.46,182a6.94,6.94,0,0,1,2.21.35.6.6,0,0,1,.4.88l-.19.52a.59.59,0,0,1-.83.42,4.4,4.4,0,0,0-1.5-.27c-2.75,0-4.15,2.52-4.46,5h0a4.2,4.2,0,0,1,3.4-1.48,4.49,4.49,0,0,1,4.55,4.73,4.74,4.74,0,0,1-4.76,5c-3.13,0-5.49-2.75-5.49-6.9C179.83,186.49,181.92,182,186.46,182Zm-1.15,13.33c1.67,0,2.69-1.27,2.69-3a2.89,2.89,0,0,0-3.09-3.09c-1.65,0-2.94,1-2.94,2.15C182,193.06,183.36,195.35,185.32,195.35Z" transform="translate(-9.2 -13.16)"/>
    </g>
    <g class="cls-4">
      <path class="cls-5" d="M87.77,219.27a12.37,12.37,0,0,1,.81-1.36v0a5.63,5.63,0,0,1-1,.06h-5.9a.62.62,0,0,1-.69-.69v-.42a.61.61,0,0,1,.69-.69h8.47c.46,0,.69.23.69.65v.33a1.63,1.63,0,0,1-.19.83l-6.22,12.41a.79.79,0,0,1-.79.5h-.69c-.52,0-.73-.33-.5-.81Z" transform="translate(-9.2 -13.16)"/>
    </g>
    <g class="cls-4">
      <path class="cls-5" d="M132.77,222.71a3.44,3.44,0,0,1-1.77-3c0-2,1.48-3.86,4.59-3.86,2.75,0,4.67,1.54,4.67,3.88a6.05,6.05,0,0,1-1.75,3.86,3.66,3.66,0,0,1,2.09,3.19c0,2.25-2,4.3-5,4.3s-5.13-1.88-5.13-4.4A5.09,5.09,0,0,1,132.77,222.71Zm2.77,6.59a2.76,2.76,0,0,0,2.94-2.48c0-1.71-1.94-2.19-4.23-3.23a3.76,3.76,0,0,0-1.77,2.92A2.9,2.9,0,0,0,135.55,229.3Zm2.69-9.3c0-1.46-1.08-2.32-2.65-2.32s-2.57.94-2.57,2.09c0,1.69,2,2.25,3.92,3.11A4.53,4.53,0,0,0,138.24,220Z" transform="translate(-9.2 -13.16)"/>
    </g>
    <g class="cls-4">
      <path class="cls-5" d="M130.32,256.24c0-4.23,1.29-7.59,5.21-7.59s5.21,3.36,5.21,7.59-1.27,7.63-5.21,7.63S130.32,260.49,130.32,256.24Zm8.3,0c0-3.19-.67-5.7-3.09-5.7s-3.09,2.5-3.09,5.7.69,5.74,3.09,5.74S138.63,259.45,138.63,256.24Z" transform="translate(-9.2 -13.16)"/>
    </g>
    <g class="cls-4">
      <path class="cls-5" d="M180.83,229.34a.59.59,0,0,1,.83-.4,5.07,5.07,0,0,0,1.5.27c2.75,0,4.15-2.54,4.46-5h0a4.32,4.32,0,0,1-3.42,1.46,4.52,4.52,0,0,1-4.53-4.78,4.69,4.69,0,0,1,4.73-5c3.15,0,5.51,2.75,5.51,6.88,0,3.86-2.07,8.34-6.63,8.34a6.33,6.33,0,0,1-2.21-.37.57.57,0,0,1-.4-.86Zm6.9-7.57c0-1.69-1.38-4-3.34-4-1.67,0-2.69,1.27-2.69,3a2.89,2.89,0,0,0,3.09,3.09C186.44,223.92,187.74,222.9,187.74,221.77Z" transform="translate(-9.2 -13.16)"/>
    </g>
    <path class="cls-1" d="M235.54,156.25l4.29-4.29a1.15,1.15,0,0,0-1.63-1.63l-4.29,4.29-4.29-4.29A1.15,1.15,0,0,0,228,152l4.29,4.29L228,160.54a1.15,1.15,0,1,0,1.63,1.63l4.29-4.29,4.29,4.29a1.15,1.15,0,0,0,1.63-1.63Z" transform="translate(-9.2 -13.16)"/>
    <path class="cls-1" d="M241.83,188.29H230.75l2.82-2.82a1.15,1.15,0,0,0-1.63-1.63l-4.78,4.78,0,0-.1.14a1.13,1.13,0,0,0-.09.15l0,0s0,.07,0,.11a1,1,0,0,0,0,.67s0,.07,0,.11l0,0a1.13,1.13,0,0,0,.09.15l.1.14,0,0,4.78,4.78a1.15,1.15,0,0,0,1.63-1.63l-2.82-2.82h11.08a1.15,1.15,0,0,0,0-2.3Z" transform="translate(-9.2 -13.16)"/>
    <g class="cls-4">
      <path class="cls-5" d="M232.84,229.35a1.15,1.15,0,0,1-.69-.23L226.64,225a1.15,1.15,0,0,1,1.37-1.84l4.62,3.44,7.41-9.43a1.15,1.15,0,0,1,1.81,1.42l-8.1,10.31A1.15,1.15,0,0,1,232.84,229.35Z" transform="translate(-9.2 -13.16)"/>
    </g>
    <path class="cls-1" d="M82.91,152.73a.6.6,0,0,0,1,0l.94-.92a4.13,4.13,0,0,0,.65-.79h0s0,.44,0,.9v6.81h0v4a.47.47,0,0,0,.47.47H87a.47.47,0,0,0,.47-.48V149.2a.61.61,0,0,0-.69-.69h-.67a1.15,1.15,0,0,0-.84.33l-2.67,2.61a.62.62,0,0,0,0,1Z" transform="translate(-9.2 -13.16)"/>
  </g>
  <path class="cls-6" d="M294.5,288.5l5.06.73a3.8,3.8,0,0,1,3.26,3.88l-2.36,77.53" transform="translate(-9.2 -13.16)"/>
  <path class="cls-6" d="M22.82,288.5l-5.06.73a3.8,3.8,0,0,0-3.26,3.88l2.36,77.53" transform="translate(-9.2 -13.16)"/>
  <polygon class="cls-1" points="131.42 336.76 141.25 342.05 157.07 342.05 167.67 336.87 159.55 336.87 159.59 337.86 156.49 340.45 141.97 340.45 139.1 338.09 138.97 337.78 138.97 336.76 131.42 336.76"/>
  <rect class="cls-7" x="142.48" y="326.45" width="13.54" height="13.54"/>
  <polygon class="cls-8" points="156.03 326.45 159.11 324.83 139.45 324.83 142.49 326.45 156.03 326.45"/>
  <polygon class="cls-9" points="159.11 324.83 159.11 337.72 156.3 339.96 155.54 339.99 155.54 326.45 156.03 326.45 159.11 324.83"/>
  <polygon class="cls-9" points="139.45 324.83 139.45 337.72 142.17 339.99 143.04 339.99 143.04 326.45 142.59 326.45 139.45 324.83"/>
  <g>
    <path class="cls-10" d="M1082.22,419.38h-8.64a2.37,2.37,0,0,0-2.37,2.37v8.64a2.37,2.37,0,0,0,2.37,2.37h8.64a2.37,2.37,0,0,0,2.37-2.37v-8.64a2.37,2.37,0,0,0-2.37-2.37m-6.36,2.5a3.8,3.8,0,0,1,5.1-.25.31.31,0,0,1,0,.44l-4.91,4.91a.32.32,0,0,1-.45,0,3.8,3.8,0,0,1,.26-5.08m4.2,8.08a3.8,3.8,0,0,1-5.09.26.32.32,0,0,1,0-.46l4.91-4.9a.31.31,0,0,1,.44,0,3.8,3.8,0,0,1-.25,5.1" transform="translate(-9.2 -13.16)"/>
    <path class="cls-10" d="M1089,427.4a.64.64,0,0,0-.62.6.62.62,0,0,0,.12.36,2.37,2.37,0,0,0,1.87.86,2.11,2.11,0,0,0,2.28-2c0-1.34-1.07-1.76-1.93-2.1-.67-.26-1.08-.45-1.08-.84s.25-.64.82-.64a1,1,0,0,1,.86.45.6.6,0,0,0,.48.28.62.62,0,0,0,.62-.6.59.59,0,0,0-.1-.33,2.32,2.32,0,0,0-1.87-1,1.87,1.87,0,0,0-2,1.81c0,1.22,1,1.62,1.81,1.93.65.25,1.2.47,1.2,1s-.37.8-1.07.8a1.13,1.13,0,0,1-.89-.38.65.65,0,0,0-.48-.26" transform="translate(-9.2 -13.16)"/>
    <path class="cls-10" d="M1116.26,422.48h0a2.13,2.13,0,0,0-2.13,2.14v2.47c0,.07,0,.14,0,.21V432a.59.59,0,0,0,1.19,0v-3.08a1.48,1.48,0,0,0,.94.3h0a2.14,2.14,0,0,0,2.08-2.2v-2.47a2,2,0,0,0-2.08-2.08m.92,4.61a.84.84,0,0,1-.92.92h0a.84.84,0,0,1-.92-.92v-2.47a.92.92,0,0,1,.92-.92h0a.92.92,0,0,1,.92.92Z" transform="translate(-9.2 -13.16)"/>
    <path class="cls-10" d="M1112.86,423.06a.59.59,0,0,0-1.18,0h0v4.08a.9.9,0,0,1-.9.9h0a.9.9,0,0,1-.9-.9v-4h0a.59.59,0,0,0-1.18,0h0v4.08a2.09,2.09,0,0,0,2.09,2.09h0a2.09,2.09,0,0,0,2.09-2.09v-4.08Z" transform="translate(-9.2 -13.16)"/>
    <path class="cls-10" d="M1097.84,423.06a.59.59,0,0,0-1.18,0h0v4.08a.9.9,0,0,1-.9.9h0a.9.9,0,0,1-.9-.9v-4h0a.59.59,0,0,0-1.18,0h0v4.08a2.09,2.09,0,0,0,2.09,2.09h0a2.09,2.09,0,0,0,2.09-2.09v-4.08Z" transform="translate(-9.2 -13.16)"/>
    <path class="cls-10" d="M1104.2,422.49h0a2.08,2.08,0,0,1-3,0h0a2.09,2.09,0,0,0-2.09,2.09v4.08h0a.59.59,0,0,0,1.18,0h0v-4.08a.9.9,0,0,1,.9-.9h0a.9.9,0,0,1,.9.86s0,0,0,0v4.08h0a.59.59,0,0,0,1.18,0h0v-4.08s0,0,0,0a.9.9,0,0,1,.9-.86h0a.9.9,0,0,1,.9.9v4h0a.59.59,0,0,0,1.18,0h0v-4.08a2.09,2.09,0,0,0-2.09-2.09" transform="translate(-9.2 -13.16)"/>
    <path class="cls-10" d="M1121.06,422.49a1.18,1.18,0,1,0,1.18,1.18,1.18,1.18,0,0,0-1.18-1.18m0,2.07a.89.89,0,1,1,.89-.89.89.89,0,0,1-.89.89" transform="translate(-9.2 -13.16)"/>
    <path class="cls-10" d="M1120.7,423.24a.12.12,0,0,1,.13-.13h.3a.34.34,0,0,1,.37.34.3.3,0,0,1-.26.31l.22.24a.15.15,0,0,1,.05.11.12.12,0,0,1-.13.12.13.13,0,0,1-.12-.06l-.31-.39h0v.32a.13.13,0,1,1-.25,0Zm.25.35h.16a.12.12,0,1,0,0-.24h-.16Z" transform="translate(-9.2 -13.16)"/>
  </g>
  <rect class="cls-11" x="888.28" y="184.63" width="252.67" height="252.67" rx="22.22" ry="22.22"/>
  <rect class="cls-12" x="891.41" y="188.26" width="245.74" height="245.74" rx="20.1" ry="20.1"/>
  <rect class="cls-11" x="928.45" y="232.46" width="171.5" height="52.33" rx="8.55" ry="8.55"/>
  <line class="cls-13" x1="1078.79" y1="313.77" x2="1089.52" y2="324.49"/>
  <line class="cls-13" x1="1089.52" y1="313.77" x2="1078.79" y2="324.49"/>
  <polyline class="cls-13" points="1091.34 350.63 1078.59 350.63 1083.28 355.32"/>
  <polyline class="cls-13" points="1091.34 350.63 1078.59 350.63 1083.28 345.94"/>
  <polyline class="cls-13" points="1077.74 383.17 1082.78 387.09 1090.45 377.34"/>
  <path class="cls-5" d="M950.8,337.4a.56.56,0,0,1,.64-.64h2.37V328c0-.42,0-.83,0-.83h0a3.85,3.85,0,0,1-.6.73l-.87.85a.55.55,0,0,1-.89,0l-.27-.27a.57.57,0,0,1,0-.91l2.47-2.41a1.06,1.06,0,0,1,.77-.31H955a.56.56,0,0,1,.64.64v11.33H958a.57.57,0,0,1,.64.64v.39a.57.57,0,0,1-.64.64h-6.58a.56.56,0,0,1-.64-.64Z" transform="translate(-9.2 -13.16)"/>
  <path class="cls-5" d="M995.78,337.39c0-4.86,6.68-5.56,6.68-8.76a2.26,2.26,0,0,0-2.45-2.26,3.12,3.12,0,0,0-2.41,1.25c-.27.29-.58.41-.91.14l-.35-.27a.57.57,0,0,1-.17-.87,4.8,4.8,0,0,1,4-2c2.49,0,4.3,1.56,4.3,3.92,0,4.48-6.52,5.17-6.58,8.28H1004a.57.57,0,0,1,.64.64v.39a.57.57,0,0,1-.64.64h-7.57a.61.61,0,0,1-.68-.64Z" transform="translate(-9.2 -13.16)"/>
  <path class="cls-5" d="M1043.11,336.32l.31-.44a.58.58,0,0,1,.89-.12,4.51,4.51,0,0,0,2.8,1.08,2.59,2.59,0,0,0,2.78-2.49c0-1.68-1.49-2.51-3.17-2.51h-.42a.71.71,0,0,1-.71-.46l-.06-.12a.71.71,0,0,1,.16-.83l2.63-3.11a10.42,10.42,0,0,1,.85-.89v0a9.16,9.16,0,0,1-1.16.06h-4a.58.58,0,0,1-.64-.64v-.39a.57.57,0,0,1,.64-.64h6.87c.42,0,.64.21.64.6v.17a1,1,0,0,1-.29.77l-3.42,3.94c1.81.19,4,1.35,4,4a4.42,4.42,0,0,1-4.63,4.38,6.44,6.44,0,0,1-4-1.45A.59.59,0,0,1,1043.11,336.32Z" transform="translate(-9.2 -13.16)"/>
  <path class="cls-5" d="M949.15,366.39v-.12a1.25,1.25,0,0,1,.25-.79l5.79-8a.82.82,0,0,1,.75-.41H957a.57.57,0,0,1,.64.64v7.72h1.22a.58.58,0,0,1,.64.64v.35c0,.42-.19.64-.54.64h-1.31v3a.57.57,0,0,1-.64.64h-.62a.57.57,0,0,1-.64-.64v-3h-6A.57.57,0,0,1,949.15,366.39Zm6.6-1v-5a11.79,11.79,0,0,1,.1-1.35h0a10.46,10.46,0,0,1-.68,1.12l-3.86,5.15v0Z" transform="translate(-9.2 -13.16)"/>
  <path class="cls-5" d="M996.07,368.56l.31-.42a.54.54,0,0,1,.87-.08,3.55,3.55,0,0,0,2.51,1,2.83,2.83,0,0,0,3-2.76,2.88,2.88,0,0,0-3.11-2.8,4.18,4.18,0,0,0-1.87.48,1.19,1.19,0,0,1-.85,0l-.17-.06a.68.68,0,0,1-.46-.75l.58-5.6a.58.58,0,0,1,.66-.6h5.64a.56.56,0,0,1,.64.64v.39a.57.57,0,0,1-.64.64h-4.57l-.33,2.88a4.16,4.16,0,0,1-.1.71h0a3.93,3.93,0,0,1,1.76-.42,4.45,4.45,0,0,1,4.75,4.44,4.61,4.61,0,0,1-4.83,4.59,5.31,5.31,0,0,1-3.74-1.49A.56.56,0,0,1,996.07,368.56Z" transform="translate(-9.2 -13.16)"/>
  <path class="cls-5" d="M1049,356.82a6.43,6.43,0,0,1,2,.33.55.55,0,0,1,.37.81l-.17.48a.55.55,0,0,1-.77.39,4.06,4.06,0,0,0-1.39-.25c-2.55,0-3.84,2.34-4.13,4.65h0a3.88,3.88,0,0,1,3.15-1.37,4.15,4.15,0,0,1,4.21,4.38,4.39,4.39,0,0,1-4.4,4.67c-2.89,0-5.08-2.55-5.08-6.39C1042.9,361,1044.83,356.82,1049,356.82ZM1048,369.15a2.52,2.52,0,0,0,2.49-2.82,2.67,2.67,0,0,0-2.86-2.86c-1.53,0-2.72.93-2.72,2C1044.89,367,1046.16,369.15,1048,369.15Z" transform="translate(-9.2 -13.16)"/>
  <path class="cls-5" d="M955.52,391.28a11.5,11.5,0,0,1,.75-1.25v0a5.22,5.22,0,0,1-.95.06h-5.46a.57.57,0,0,1-.64-.64V389a.56.56,0,0,1,.64-.64h7.84c.42,0,.64.21.64.6v.31a1.51,1.51,0,0,1-.17.77l-5.75,11.49a.73.73,0,0,1-.73.46H951c-.48,0-.68-.31-.46-.75Z" transform="translate(-9.2 -13.16)"/>
  <path class="cls-5" d="M998.13,394.46a3.19,3.19,0,0,1-1.64-2.74c0-1.81,1.37-3.57,4.25-3.57,2.55,0,4.32,1.43,4.32,3.59a5.6,5.6,0,0,1-1.62,3.57,3.38,3.38,0,0,1,1.93,3c0,2.08-1.81,4-4.67,4s-4.75-1.74-4.75-4.07A4.7,4.7,0,0,1,998.13,394.46Zm2.57,6.1a2.55,2.55,0,0,0,2.72-2.3c0-1.58-1.8-2-3.92-3a3.49,3.49,0,0,0-1.64,2.7A2.68,2.68,0,0,0,1000.7,400.56Zm2.49-8.61a2.16,2.16,0,0,0-2.45-2.14c-1.53,0-2.37.87-2.37,1.93,0,1.56,1.83,2.08,3.63,2.88A4.19,4.19,0,0,0,1003.19,392Z" transform="translate(-9.2 -13.16)"/>
  <path class="cls-5" d="M996.09,427.2c0-3.92,1.2-7,4.83-7s4.83,3.11,4.83,7-1.18,7.06-4.83,7.06S996.09,431.14,996.09,427.2Zm7.68,0c0-3-.62-5.27-2.86-5.27s-2.86,2.32-2.86,5.27.64,5.31,2.86,5.31S1003.77,430.17,1003.77,427.2Z" transform="translate(-9.2 -13.16)"/>
  <path class="cls-5" d="M1043.83,400.6c.15-.41.41-.46.77-.37a4.75,4.75,0,0,0,1.39.25c2.55,0,3.84-2.36,4.13-4.65h0a4,4,0,0,1-3.17,1.35,4.18,4.18,0,0,1-4.19-4.42,4.34,4.34,0,0,1,4.38-4.61c2.92,0,5.1,2.55,5.1,6.37,0,3.57-1.91,7.72-6.14,7.72a5.84,5.84,0,0,1-2-.35.53.53,0,0,1-.37-.79Zm6.39-7c0-1.56-1.27-3.69-3.09-3.69a2.52,2.52,0,0,0-2.49,2.82,2.67,2.67,0,0,0,2.86,2.86C1049,395.58,1050.22,394.64,1050.22,393.6Z" transform="translate(-9.2 -13.16)"/>
  <rect class="cls-14" x="930.78" y="234.84" width="166.85" height="47.58" rx="6.12" ry="6.12"/>
  <path class="cls-14" d="M942,292.55V255a5,5,0,0,1,5-5h156.79a5,5,0,0,1,1.7.32,6.1,6.1,0,0,0-4.79-2.32H946.07a6.12,6.12,0,0,0-6.11,6.12v35.35a6.1,6.1,0,0,0,2.32,4.79A5,5,0,0,1,942,292.55Z" transform="translate(-9.2 -13.16)"/>
  <path class="cls-15" d="M572.36,424.8s-5.45,3.88-11,4.38c-6.92.63-114.17-20.31-121.54-23.09-9.63-3.64-4.82-20.2-3.53-24.1s63.24-174.85,63.24-174.85,6.55-16,21-14.16L516,190.49s-13.92,2.82-19.09,16.65-62.12,172.43-63.22,175.71-11.09,25.57,2.57,33.67C451,425.26,534,436.85,558,441.62c10.36,2.06,19.85-15.58,19.85-15.58Z" transform="translate(-9.2 -13.16)"/>
  <path class="cls-16" d="M497.24,211.45c5.85-15.94,14.24-20,22.95-18.78C534.11,194.68,574,199,574,199L640,206.77s9.4,2.54,4.24,17.67C627.47,273.57,592.86,373,575.77,418.77c-2,5.38-9,16.81-18.4,15.23-14.76-2.48-42.33-8.22-56.49-10.7-16.34-2.87-44.43-7.19-62.52-11.16-7.3-1.6-8.11-11.89-6.74-16.66,2.77-9.59,8.57-27.1,14.79-44.17,9.81-26.94,19.73-54.44,19.73-54.44S489.41,232.78,497.24,211.45Z" transform="translate(-9.2 -13.16)"/>
  <path class="cls-17" d="M588.12,288.67,500.8,276.18a4.2,4.2,0,0,1-3.35-5.6L509.87,235a4.17,4.17,0,0,1,4.44-2.74l89.14,11.19c3.64.48,4.08,4.21,3.51,6.26L595,284.43A6.4,6.4,0,0,1,588.12,288.67Z" transform="translate(-9.2 -13.16)"/>
  <path class="cls-15" d="M648,207.81s14,7.92,4.67,35.39c-12.05,35.51-50.72,146-67.71,189.55-3.45,8.83-19.68,10.44-19.68,10.44l11.88,2,9.42-.65s7.66-2.5,10-3.52c9.26-4,16.24-19.57,16.24-19.57l40.93-116.57-.86-2.08S668.51,264.2,671,250.6C676.16,222.49,648,207.81,648,207.81Z" transform="translate(-9.2 -13.16)"/>
  <path class="cls-18" d="M661.83,257.89,657,254.37a1.31,1.31,0,0,0-2,.6l-9.9,26a1.33,1.33,0,0,0,.52,1.58l5.05,3.26a1.31,1.31,0,0,0,1.93-.64l9.73-25.79A1.33,1.33,0,0,0,661.83,257.89Zm-.75,1.73-9.25,24.71a.9.9,0,0,1-1.31.45l-3.59-2.23a1.57,1.57,0,0,1-.92-2.08c2.37-6.19,9.19-25,9.19-25a.78.78,0,0,1,1.17-.39l4.18,2.83A1.4,1.4,0,0,1,661.08,259.63Z" transform="translate(-9.2 -13.16)"/>
  <path class="cls-19" d="M499.46,271.5l12.07-33.86c1.22-3.65,3.55-4.09,6.31-3.74l86.08,10.25a4.4,4.4,0,0,1,2,.49c-.86-.79-1.58-1.1-3.54-1.35l-86.21-10.73c-2.76-.35-4.86-.07-6.31,3.74l-12.07,33.86c-1,2.72.25,4.71,2.66,6.06C499.22,274.72,498.73,273.51,499.46,271.5Z" transform="translate(-9.2 -13.16)"/>
  <path class="cls-16" d="M521.16,191.25s34.9,3.95,68.8,7.71c20.1,2.23,41.07,4.36,50.4,5.92,17.94,3,35.94,27.42,30.52,47.68-4.59,17.18-17.63,50.06-17.63,50.06l.86,2.08L613.17,421.27s-5,13.25-16.24,19.57c-9.71,5.49-20.91,4-20.91,4s-27.69-5-58.25-10.31c-25.44-4.44-53.44-9.61-67-12.73-4.3-1-12.5-4.56-16.34-6.76-4.15-2.38-7.4-11-4.47-20.44,5.21-16.88,12.08-34.94,19.44-55.31,8.3-23,17.4-49,28.72-80.14,7.63-21,13.53-38,17.9-49.53C504.82,186.58,521.16,191.25,521.16,191.25Z" transform="translate(-9.2 -13.16)"/>
  <path class="cls-20" d="M646.8,282.77l3.59,2.23a.9.9,0,0,0,1.31-.45L661,259.84a1.4,1.4,0,0,0-.54-1.66l-4.18-2.83c-.42-.28-.7,0-.87.5,0,0-7.11,18.66-9.48,24.85A1.57,1.57,0,0,0,646.8,282.77Z" transform="translate(-9.2 -13.16)"/>
  <path class="cls-20" d="M656.82,254.59l4.88,3.52a1.33,1.33,0,0,1,.46,1.54l-9.73,25.79a1.31,1.31,0,0,1-1.93.64l-5.05-3.26a1.33,1.33,0,0,1-.52-1.58l9.9-26A1.31,1.31,0,0,1,656.82,254.59Z" transform="translate(-9.2 -13.16)"/>
  <path class="cls-21" d="M465.53,417.28c16.38,3,32.89,5.91,32.89,5.91s43.35,8.67,59.53,11.31c11.43,1.86,19.75-11.5,21.58-16.79,5.9-17,22.32-63.75,22.32-63.75l19.09-54.52s20.91-57.1,26.78-76.5a28.27,28.27,0,0,0,1.4-11" transform="translate(-9.2 -13.16)"/>
  <path class="cls-16" d="M589.82,290.55,500.52,278a6.2,6.2,0,0,1-4.94-8.23l12.66-35.48a6.15,6.15,0,0,1,6.55-4.05l89.36,11.3a6.19,6.19,0,0,1,5,8.19l-12.72,36.69A6.15,6.15,0,0,1,589.82,290.55Z" transform="translate(-9.2 -13.16)"/>
  <path class="cls-22" d="M647.44,214.62a16.06,16.06,0,0,1-.69,6.09c-1,3.38-48.39,138.36-48.39,138.36l-20.3,58.2s-1.64,5.9-8.1,12.2" transform="translate(-9.2 -13.16)"/>
  <path class="cls-20" d="M655.69,270.49c-.42,1.7-1.66,2.85-2.77,2.57s-1.68-1.88-1.26-3.58,1.66-2.85,2.77-2.57S656.11,268.79,655.69,270.49Z" transform="translate(-9.2 -13.16)"/>
  <path class="cls-18" d="M654.36,267.2c-.94-.24-2,.82-2.39,2.35s.08,3,1,3.21,2-.82,2.39-2.35S655.3,267.43,654.36,267.2Zm.82,3.15c-.33,1.35-1.27,2.27-2.1,2.07s-1.23-1.47-.9-2.81,1.27-2.27,2.1-2.07S655.51,269,655.17,270.35Z" transform="translate(-9.2 -13.16)"/>
  <path class="cls-23" d="M653.76,269.67l-.13.24a.18.18,0,0,1-.24.08l-2.1-1.13a.18.18,0,0,1-.07-.25l.13-.24a.18.18,0,0,1,.24-.08l2.1,1.13A.18.18,0,0,1,653.76,269.67Z" transform="translate(-9.2 -13.16)"/>
  <path class="cls-21" d="M588.43,288.87l-86.18-12a5.81,5.81,0,0,1-4.8-7.68l12.07-33c1.15-3.29,3.55-4.09,6.31-3.74l86.27,10.27c3.75.47,6.72,2.05,4.87,8.24l-12.12,34.09A5.89,5.89,0,0,1,588.43,288.87Z" transform="translate(-9.2 -13.16)"/>
  <g>
    <path class="cls-24" d="M469.56,274.31h-.06l-51.07-6.46a6.55,6.55,0,0,1-5.89-4.08c-1.22-3,.75-8.68.83-8.92l39.21-111.66a31.59,31.59,0,0,1,4.75-8.22A10.44,10.44,0,0,1,467,131.2l88.92,7.14a.5.5,0,1,1-.08,1l-89-7.15a9.47,9.47,0,0,0-8.77,3.42,31.16,31.16,0,0,0-4.58,7.92L414.31,255.18c0,.05-1.93,5.55-.85,8.21a5.46,5.46,0,0,0,5,3.46l51.15,6.46a.5.5,0,0,1-.06,1Z" transform="translate(-9.2 -13.16)"/>
    <path class="cls-24" d="M469.92,273.73l-52.65-6.6.8.54,51.54,6.53C469.76,274,469.81,274,469.92,273.73Z" transform="translate(-9.2 -13.16)"/>
    <rect class="cls-24" x="458.6" y="183.94" width="1" height="59.72" transform="translate(189.76 635.16) rotate(-84.06)"/>
    <path class="cls-24" d="M539.19,183.42h-.05c-23.8-2.49-47.83-4.77-58.08-5.75l-4.51-.43a.5.5,0,0,1-.43-.62c1.35-5.25,5.19-16.41,5.23-16.53a.53.53,0,0,1,.52-.33c.33,0,32.94,3.21,63.46,6.55a.5.5,0,1,1-.11,1c-28.71-3.14-59.25-6.14-63.06-6.51-.65,1.91-3.63,10.69-4.93,15.51l3.92.37c10.26,1,34.29,3.26,58.1,5.75a.5.5,0,0,1-.05,1Z" transform="translate(-9.2 -13.16)"/>
    <rect class="cls-24" x="451.68" y="205.18" width="1" height="60.31" transform="translate(162.14 647.58) rotate(-84.06)"/>
    <g>
      <path class="cls-24" d="M515.91,187.92c.11,0,.15.06.12.15s0,0-.12.1c-.73.15-1.11.26-1.14.35s.13.12.46.21.69.16,1.11.24l1.2.19.73.1q.71.07,2,.13c.85,0,1.79,0,2.82,0a31.82,31.82,0,0,0,3.21-.31,16.17,16.17,0,0,0,3.12-.78,8.86,8.86,0,0,0,2.58-1.44,4.9,4.9,0,0,0,1.57-2.29,2.62,2.62,0,0,0,.08-1.64,3.25,3.25,0,0,0-.78-1.3,5.68,5.68,0,0,0-1.33-1,12.16,12.16,0,0,0-1.6-.76,20.68,20.68,0,0,0-2-.63l-2-.53-2-.53q-1-.27-2-.63-.58-.22-1.18-.5a7.13,7.13,0,0,1-1.11-.66,3.93,3.93,0,0,1-.87-.86,2.49,2.49,0,0,1-.45-1.15,1.14,1.14,0,0,1,.06-.51,2.31,2.31,0,0,1,.58-.87,8.58,8.58,0,0,1,1-.82,8.44,8.44,0,0,1,1.06-.68,7.09,7.09,0,0,1,.89-.41,27.36,27.36,0,0,1,4.16-1.25,12.71,12.71,0,0,1,3.78-.21,11.91,11.91,0,0,1,1.47.23q.73.16,1.5.4a4.14,4.14,0,0,1,1.09.78,1,1,0,0,1,.28,1.08,1.64,1.64,0,0,1-.56.76,1.72,1.72,0,0,1-.68.2c-.31,0-.63.07-1,.08l-1,0h-.77q-1.87,0-3.71-.19-1.4-.13-2.74-.37T521,172s0,0-.07-.06a9.41,9.41,0,0,0-1.24.88,2.42,2.42,0,0,0-.79,1.06A1.25,1.25,0,0,0,519,175a3.24,3.24,0,0,0,.91.89,7.32,7.32,0,0,0,1.22.67l1,.45q.63.25,1.27.43l1.3.35,1.87.47q1.09.27,2.25.62a19.16,19.16,0,0,1,2.23.83,7.1,7.1,0,0,1,1.84,1.16,3.71,3.71,0,0,1,1.08,1.57,3.2,3.2,0,0,1-.09,2.09,5.41,5.41,0,0,1-1.4,2.22,8.42,8.42,0,0,1-2.24,1.52,12.87,12.87,0,0,1-2.79.93,22.67,22.67,0,0,1-3.08.45q-1.57.12-3.1.08t-2.82-.16l-1-.14c-.47-.07-.93-.15-1.39-.25s-.86-.2-1.2-.3-.5-.2-.47-.29a.51.51,0,0,1,.24-.25,3.09,3.09,0,0,1,.44-.21l.48-.17ZM522,171.5a1.49,1.49,0,0,0-.33.13,2.27,2.27,0,0,1-.36.15,22.93,22.93,0,0,0,2.4.53q1.21.19,2.48.31,1,.1,2.12.15t2.18,0H530q.35,0,1,0t1.22,0a6.11,6.11,0,0,0,1.09-.18q.48-.13.58-.42a.7.7,0,0,0-.25-.78,3.39,3.39,0,0,0-1-.62,8.63,8.63,0,0,0-1.42-.43,12,12,0,0,0-1.4-.23,13.82,13.82,0,0,0-2.41,0,15.13,15.13,0,0,0-2.27.35,11.85,11.85,0,0,0-1.55.49Z" transform="translate(-9.2 -13.16)"/>
      <path class="cls-24" d="M517.07,174.19a1.51,1.51,0,0,1,.37,1.15,6.66,6.66,0,0,1-.31,1.3l0,.05a.17.17,0,0,1-.21.11c-.06,0-.09-.05-.09-.14.07-.33.14-.69.19-1.06a1.2,1.2,0,0,0-.27-1,1.16,1.16,0,0,0-.57.53,9.93,9.93,0,0,0-.54.93l-.45.87c-.13.26-.24.38-.31.37s-.11-.12,0-.34.13-.42.19-.61a7.3,7.3,0,0,1,.29-.73,4.63,4.63,0,0,1,.39-.69,2.71,2.71,0,0,1,.52-.57,1.46,1.46,0,0,1,.66-.31h.05A.27.27,0,0,1,517.07,174.19Z" transform="translate(-9.2 -13.16)"/>
      <path class="cls-24" d="M514.41,177.33a0,0,0,0,0,0,0s0,0,0,.07-.09.1-.2.09a.09.09,0,0,1-.07,0,3.28,3.28,0,0,1-.35-1,4.16,4.16,0,0,1-.05-1,3.44,3.44,0,0,1-.44.46,7.15,7.15,0,0,1-.6.48,3.88,3.88,0,0,1-.63.37,1.13,1.13,0,0,1-.57.12.44.44,0,0,1-.41-.24,1.05,1.05,0,0,1-.06-.5,2.68,2.68,0,0,1,.13-.61,2.56,2.56,0,0,0,.13-.55l-1.09.56a1.18,1.18,0,0,1-.57.17q-.14,0-.14-.38a4,4,0,0,1,.26-1.17c0-.07.08-.1.17-.09s.08.06.08.17a1.38,1.38,0,0,1-.05.37q-.06.21-.1.42a1.33,1.33,0,0,0,0,.35l.45-.27.41-.24a4.45,4.45,0,0,1,.58-.31.74.74,0,0,1,.33-.06c.15,0,.21.1.2.26a3.92,3.92,0,0,1-.1.54q-.07.3-.12.59a.56.56,0,0,0,.08.44,1.22,1.22,0,0,0,.75-.24,3.88,3.88,0,0,0,.67-.61,6.58,6.58,0,0,0,.58-.75c.17-.26.31-.49.41-.68l0-.08h.06a.31.31,0,0,1,.23-.09c.13,0,.18.08.16.2l0,.05a8.93,8.93,0,0,0-.39,1.63A2.44,2.44,0,0,0,514.41,177.33Z" transform="translate(-9.2 -13.16)"/>
      <path class="cls-24" d="M508.47,173.37a1.52,1.52,0,0,1,.37,1.15,6.73,6.73,0,0,1-.31,1.3l0,.05a.17.17,0,0,1-.21.11c-.06,0-.09-.05-.09-.14.07-.33.14-.69.18-1.06a1.19,1.19,0,0,0-.27-1,1.16,1.16,0,0,0-.57.53,9.93,9.93,0,0,0-.54.93l-.45.87c-.13.26-.24.38-.31.37s-.11-.12,0-.34.13-.42.19-.62a7.21,7.21,0,0,1,.29-.73,4.63,4.63,0,0,1,.39-.69,2.68,2.68,0,0,1,.52-.57,1.46,1.46,0,0,1,.66-.31h.06A.27.27,0,0,1,508.47,173.37Z" transform="translate(-9.2 -13.16)"/>
      <path class="cls-24" d="M505.59,175.79a.12.12,0,0,1,0,.11c0,.09-.08.13-.15.12a.35.35,0,0,1-.29-.24,1.63,1.63,0,0,1-.1-.58,6.35,6.35,0,0,1,0-.75c0-.27,0-.52.06-.75a6.77,6.77,0,0,1-1.06,1.49,6.1,6.1,0,0,1-.73.6,6.28,6.28,0,0,1-.92.55,5.91,5.91,0,0,1-1,.38,2.67,2.67,0,0,1-1,.1l-.59-.09a.83.83,0,0,1-.56-.28A4,4,0,0,1,499,176a.6.6,0,0,1-.07-.52,2.23,2.23,0,0,1,.39-.52,1.84,1.84,0,0,1,.67-.51l.69-.3.72-.29a4.41,4.41,0,0,1,1.13-.32,11.27,11.27,0,0,0,1.18-.24c.09,0,.12.06.09.14a.23.23,0,0,1-.1.12l-.8.19q-.65.15-1.38.39a9,9,0,0,0-1.37.57,1.44,1.44,0,0,0-.77.72.49.49,0,0,0,.15.62,1.31,1.31,0,0,0,.64.24,2.84,2.84,0,0,0,.7,0,6.11,6.11,0,0,0,.72-.16,7,7,0,0,0,.66-.23,3.41,3.41,0,0,0,.49-.25,4.55,4.55,0,0,0,1-.82,7.29,7.29,0,0,0,.76-1,7.49,7.49,0,0,0,.57-1.12q.24-.58.44-1.18t.3-.94c.09-.3.18-.59.28-.89l.18-.55.08-.34a.19.19,0,0,0,.14.09h.11c.11,0,.16.05.16.12v.06l-.44,1.49q-.23.78-.44,1.53t-.36,1.42a8.36,8.36,0,0,0-.19,1.13v0s0,.05,0,.15,0,.21,0,.35a1.71,1.71,0,0,0,0,.39A.42.42,0,0,0,505.59,175.79Z" transform="translate(-9.2 -13.16)"/>
    </g>
    <path class="cls-24" d="M449.16,277.84h-.06l-36.43-4.64a.5.5,0,1,1,.13-1l36.43,4.64a.5.5,0,0,1-.06,1Z" transform="translate(-9.2 -13.16)"/>
    <path class="cls-24" d="M462.46,279.69h-.06l-2.2-.28a.5.5,0,1,1,.13-1l2.2.28a.5.5,0,0,1-.06,1Z" transform="translate(-9.2 -13.16)"/>
    <path class="cls-24" d="M456.8,278.93h-.06l-4.1-.52a.5.5,0,0,1-.43-.56.51.51,0,0,1,.56-.43l4.1.52a.5.5,0,0,1-.06,1Z" transform="translate(-9.2 -13.16)"/>
  </g>
  <g>
    <path class="cls-24" d="M648.27,206.21l-.51-.24s-2.55-1.21-3.44-1.48l-1.39-.44L540.16,191.89l46-132.23c.09-.33,2.49-8.67,7-13.3,4.32-4.41,12.43-3,12.78-3,.57,0,62.92,4.13,83.92,6.1,2.84.27,5.93,1.11,7.3,5.33s-1.38,12.62-1.5,13ZM541.52,191l101.63,12,1.47.46c.71.22,2.26.92,3.07,1.29l47.1-137.37c0-.08,2.78-8.4,1.49-12.34-1.19-3.66-3.8-4.39-6.45-4.64-21-2-83.32-6.06-83.95-6.1-.13,0-8-1.35-11.94,2.68-4.35,4.45-6.76,12.82-6.78,12.9Z" transform="translate(-9.2 -13.16)"/>
    <path class="cls-24" d="M649.45,206.61l47-138.48s2.28-6.75,2-10.6c-.3-3.51-3.54-5.65-3.54-5.65a9.6,9.6,0,0,1,2.22,5.37c.23,2.84-.85,7.44-1.86,10.37-11.91,34.44-47.43,138.31-47.43,138.31Z" transform="translate(-9.2 -13.16)"/>
    <g>
      <path class="cls-24" d="M620.86,188.5a.65.65,0,0,1,.62.43,1.36,1.36,0,0,1,0,1l-2.14,6.87c-.07.22-.19.33-.37.33s-.23-.13-.16-.37l2.34-7.49-3.58-.11a1.58,1.58,0,0,0-1,.44,2.37,2.37,0,0,0-.76,1.14l-1.23,3.95a.34.34,0,0,1-.36.28q-.28,0-.19-.32l1.23-3.95a1.5,1.5,0,0,0,0-1.17.82.82,0,0,0-.74-.49l-3.52-.11-2.37,7.61c-.07.22-.2.33-.39.33s-.23-.13-.16-.36l2.16-6.92a2,2,0,0,1,.59-.92,1.26,1.26,0,0,1,.88-.36l2.91.09a1.48,1.48,0,0,1,.74.2,1.71,1.71,0,0,1,.56.84,5.82,5.82,0,0,1,1.18-.82,1.74,1.74,0,0,1,.75-.18Z" transform="translate(-9.2 -13.16)"/>
      <path class="cls-24" d="M628,168.1a.17.17,0,0,1,.15.11.29.29,0,0,1,0,.23l-2.44,7.82q-.11.36-.4.35l-10.75-.32a.17.17,0,0,1-.15-.1.37.37,0,0,1,0-.29l.3-1a.43.43,0,0,1,.22-.27.58.58,0,0,1,.25-.08c.05,0,.08,0,.09.13a2,2,0,0,1-.13.61l-.08.26,6.16.19,2.34-7.51a.47.47,0,0,1,.15-.2.38.38,0,0,1,.27-.1Zm-.47.66-3.5-.1-2.24,7.18,3.5.1Z" transform="translate(-9.2 -13.16)"/>
      <path class="cls-24" d="M631.08,158.28c.18,0,.23.12.16.34a.36.36,0,0,1-.36.3l-3.79-.11-1.84,5.9-7-.21a.17.17,0,0,1-.16-.14.43.43,0,0,1,.15-.49.4.4,0,0,1,.27-.09l6.37.19,1.62-5.18-5.06-.15c-.18,0-.23-.11-.17-.32a.51.51,0,0,1,.15-.22.3.3,0,0,1,.22-.1l5.06.15a5.86,5.86,0,0,1,.22-.62,1.2,1.2,0,0,1,.17-.3c0-.05.09-.08.12-.08h.07c.11,0,.18,0,.19.13a1,1,0,0,1-.07.41l-.15.48Z" transform="translate(-9.2 -13.16)"/>
      <path class="cls-24" d="M633.52,150.39c.19,0,.25.12.18.34a.59.59,0,0,1-.17.27.35.35,0,0,1-.23.1l-3.92-.12c-.14,0-.23-.05-.26-.15l-1.39-3.9-3.65-.11-2.19,7a1.78,1.78,0,0,1,.44.25.22.22,0,0,1,.06.24c-.07.24-.2.35-.38.35l-.65,0a.17.17,0,0,1-.16-.12.38.38,0,0,1,0-.26l2.54-8.15,4.28.13a.27.27,0,0,1,.22.15l1.4,3.88Z" transform="translate(-9.2 -13.16)"/>
      <path class="cls-24" d="M638.24,134.45a.51.51,0,0,1,.14-.2.33.33,0,0,1,.24-.1c.17,0,.21.11.15.32l-2.57,8.25-4.89-.15a.68.68,0,0,1-.63-.42,1.27,1.27,0,0,1,0-.95l2-6.56-4.79-.14-2.37,7.61c-.07.24-.21.35-.4.35s-.1,0-.14-.11a.35.35,0,0,1,0-.28l2.17-6.94a2,2,0,0,1,.6-.92,1.28,1.28,0,0,1,.87-.36l3.77.11a.7.7,0,0,1,.65.4,1.24,1.24,0,0,1,0,.94l-2,6.56,4.85.15Z" transform="translate(-9.2 -13.16)"/>
      <path class="cls-24" d="M644.27,113.66a.64.64,0,0,1,.57.38,1.16,1.16,0,0,1,0,.91L643,121a1.83,1.83,0,0,1-.6.89,1.25,1.25,0,0,1-.81.33l-9.3-.28a.62.62,0,0,1-.57-.4,1.18,1.18,0,0,1,0-.89l1.9-6.09a1.82,1.82,0,0,1,.56-.82,1.2,1.2,0,0,1,.8-.36Zm.26.66L634.33,114l-2.26,7.23,10.19.31Z" transform="translate(-9.2 -13.16)"/>
      <path class="cls-24" d="M648.24,100.77a.65.65,0,0,1,.62.43,1.36,1.36,0,0,1,0,1L646.72,109c-.07.22-.19.33-.37.33s-.23-.13-.16-.37l2.34-7.49-3.58-.11a1.58,1.58,0,0,0-1,.44,2.37,2.37,0,0,0-.76,1.14l-1.23,3.95a.34.34,0,0,1-.36.28q-.28,0-.19-.32l1.23-3.95a1.5,1.5,0,0,0,0-1.16.82.82,0,0,0-.74-.49l-3.52-.11-2.37,7.61q-.1.33-.39.33t-.16-.37l2.16-6.92a2,2,0,0,1,.59-.92,1.26,1.26,0,0,1,.88-.36l2.91.09a1.47,1.47,0,0,1,.74.2,1.7,1.7,0,0,1,.56.84,5.84,5.84,0,0,1,1.18-.82,1.74,1.74,0,0,1,.75-.18Z" transform="translate(-9.2 -13.16)"/>
      <path class="cls-24" d="M652.67,88.21a.51.51,0,0,1,.14-.2.33.33,0,0,1,.24-.1q.25,0,.15.32l-2.57,8.25-4.89-.15a.67.67,0,0,1-.63-.41,1.28,1.28,0,0,1,0-.95l2-6.56-4.79-.14L640,95.87q-.11.36-.4.35c-.05,0-.1,0-.14-.11a.35.35,0,0,1,0-.28l2.17-6.94a2,2,0,0,1,.6-.92,1.28,1.28,0,0,1,.87-.36l3.77.11a.7.7,0,0,1,.65.4,1.23,1.23,0,0,1,0,.94l-2,6.56,4.85.15Z" transform="translate(-9.2 -13.16)"/>
      <path class="cls-24" d="M656.15,75.4a.67.67,0,0,1,.62.4,1.26,1.26,0,0,1,0,.94l-1.41,4.52a3.45,3.45,0,0,1-.52,1l-.95,1.44a.36.36,0,0,1-.33.21c-.18,0-.24-.1-.18-.29a1.53,1.53,0,0,1,.25-.42l.8-1.2a3.72,3.72,0,0,0,.4-.78l1.61-5.16-4.85-.15-1.84,5.9-5.92-.18,1.94-6.23a.46.46,0,0,1,.17-.24.38.38,0,0,1,.22-.09.23.23,0,0,1,.15.08s.05.14,0,.26L644.61,81l4.81.14,1.43-4.59a2,2,0,0,1,.6-.89,1.26,1.26,0,0,1,.88-.38Z" transform="translate(-9.2 -13.16)"/>
    </g>
    <g>
      <path class="cls-24" d="M635.72,186a.44.44,0,0,1,.39.26.81.81,0,0,1,0,.63L634.88,191a1.25,1.25,0,0,1-.4.61.85.85,0,0,1-.55.23l-6.34-.19a.43.43,0,0,1-.39-.27.82.82,0,0,1,0-.61l1.26-4.17a1.25,1.25,0,0,1,.38-.57.81.81,0,0,1,.55-.25Zm.18.45-7-.2-1.5,5,7,.2Z" transform="translate(-9.2 -13.16)"/>
      <path class="cls-24" d="M638.38,178.84c.12,0,.16.08.11.23s-.12.21-.25.21l-2.58-.08-1.22,4-4.75-.14a.12.12,0,0,1-.11-.09.31.31,0,0,1,0-.19.3.3,0,0,1,.1-.14.27.27,0,0,1,.18-.06l4.35.13,1.08-3.55-3.45-.1c-.12,0-.16-.08-.12-.22a.36.36,0,0,1,.1-.15.21.21,0,0,1,.15-.07l3.45.1a3.8,3.8,0,0,1,.15-.42.78.78,0,0,1,.11-.2s.06-.06.08-.06h0c.08,0,.12,0,.13.08a.69.69,0,0,1,0,.28l-.1.33Z" transform="translate(-9.2 -13.16)"/>
      <path class="cls-24" d="M639.56,175.64v0a.65.65,0,0,1-.09.15.2.2,0,0,1-.17.1.25.25,0,0,1-.2-.1l-5.69-5.63v0a.62.62,0,0,1,.1-.17c.05-.07.1-.1.14-.1a.29.29,0,0,1,.21.12Z" transform="translate(-9.2 -13.16)"/>
      <path class="cls-24" d="M643.31,162a.34.34,0,0,1,.09-.14.22.22,0,0,1,.17-.07c.11,0,.15.08.1.22L642,167.63l-3.33-.1a.46.46,0,0,1-.43-.29.88.88,0,0,1,0-.65l1.36-4.5-3.27-.1-1.58,5.22c0,.16-.14.24-.27.24s-.07,0-.09-.08a.24.24,0,0,1,0-.19l1.44-4.76a1.32,1.32,0,0,1,.41-.63.86.86,0,0,1,.59-.25l2.57.07a.48.48,0,0,1,.45.28.85.85,0,0,1,0,.64l-1.36,4.5,3.31.1Z" transform="translate(-9.2 -13.16)"/>
      <path class="cls-24" d="M645.73,152.92a.44.44,0,0,1,.39.26.81.81,0,0,1,0,.63l-1.25,4.14a1.25,1.25,0,0,1-.4.61.85.85,0,0,1-.55.23l-6.34-.19a.43.43,0,0,1-.39-.27.82.82,0,0,1,0-.61l1.26-4.17a1.25,1.25,0,0,1,.38-.57.81.81,0,0,1,.55-.25Zm.18.45-7-.2-1.5,5,7,.2Z" transform="translate(-9.2 -13.16)"/>
    </g>
  </g>
  <g>
    <path class="cls-10" d="M515,318.6c1.46-3.73,6.22-3.51,7.34-6.38.45-1.16.07-2.15-1.06-2.33a3,3,0,0,0-2.26.87c-.2.16-.37.2-.48,0l-.09-.16c-.1-.16-.07-.33.12-.51a4,4,0,0,1,3.15-1.21c1.7.26,2.22,1.74,1.57,3.4-1.39,3.57-6.11,3.36-7.24,6.19l4.37.68c.2,0,.26.19.17.43l-.07.18a.43.43,0,0,1-.47.33l-5-.77c-.2,0-.29-.19-.2-.43Z" transform="translate(-9.2 -13.16)"/>
    <path class="cls-10" d="M545.68,322.43l.24-.2c.2-.16.34-.14.44,0a2.26,2.26,0,0,0,1.65,1.31,3,3,0,0,0,2.94-2,1.74,1.74,0,0,0-1.36-2.62l-.36-.06c-.16,0-.25-.12-.24-.33v-.08a.64.64,0,0,1,.27-.49l3.2-2.57a8.12,8.12,0,0,1,.7-.52v0a4.75,4.75,0,0,1-.74-.07l-3-.47c-.2,0-.26-.19-.17-.43l.07-.18a.43.43,0,0,1,.46-.33l4.58.71c.2,0,.27.17.18.4l0,.08a1,1,0,0,1-.32.45l-3.88,3.07c1.09.25,2.47,1.26,1.57,3.56a4.26,4.26,0,0,1-4.23,2.87,2.91,2.91,0,0,1-2.14-1.61C545.41,322.77,545.47,322.61,545.68,322.43Z" transform="translate(-9.2 -13.16)"/>
    <path class="cls-10" d="M476.6,335l0-.06a1,1,0,0,1,.29-.44l6.71-5.93a.55.55,0,0,1,.47-.17l.39.06c.2,0,.25.18.16.42l-2.5,6.39,1,.15q.3,0,.16.41l-.07.18c-.09.24-.23.35-.42.32l-1-.15-1,2.57c-.09.24-.25.36-.45.33l-.25,0c-.2,0-.26-.19-.17-.43l1-2.57-4.15-.64Q476.46,335.34,476.6,335Zm4.67.15,1.74-4.46c.18-.45.45-1,.45-1h0s-.39.4-.76.75l-4.79,4.16v0Z" transform="translate(-9.2 -13.16)"/>
    <path class="cls-10" d="M506.21,341.41l.23-.19c.2-.14.36-.12.43.07a1.73,1.73,0,0,0,1.43,1.25,3.17,3.17,0,0,0,3.2-2.15c.57-1.45,0-2.66-1.28-2.86a3.31,3.31,0,0,0-1.6.23.44.44,0,0,1-.44,0l-.08,0c-.14-.1-.15-.26-.06-.47l2.17-4.42c.11-.22.26-.33.47-.3l3.71.58c.2,0,.26.19.17.43l-.07.18a.43.43,0,0,1-.46.33l-3.24-.5-1.32,2.68c-.19.37-.33.59-.33.59h0a3,3,0,0,1,1.52-.2c1.79.28,2.47,2,1.72,3.94a4.47,4.47,0,0,1-4.46,3,2.39,2.39,0,0,1-1.94-1.62A.43.43,0,0,1,506.21,341.41Z" transform="translate(-9.2 -13.16)"/>
    <path class="cls-10" d="M544.07,337.49a2.81,2.81,0,0,1,1.23.5c.17.12.15.3,0,.51l-.18.23c-.18.23-.32.24-.49.15a1.93,1.93,0,0,0-.92-.4c-1.88-.29-3.68,1.77-4.66,3.83h0a3.43,3.43,0,0,1,2.79-.91c1.61.25,2.21,1.82,1.43,3.83-.86,2.21-2.64,3.39-4.21,3.15-1.94-.3-2.39-2.63-1.28-5.47C538.85,340.21,541.32,337.06,544.07,337.49Zm-4.62,9.9c1.21.19,2.35-.77,2.93-2.27s.17-2.62-1.07-2.81a2.84,2.84,0,0,0-2.87,1.51C537.93,345.16,538.09,347.18,539.45,347.39Z" transform="translate(-9.2 -13.16)"/>
    <path class="cls-10" d="M473.48,354.85c.47-.54.87-.91.87-.91v0a5.46,5.46,0,0,1-.67-.07l-3.86-.6c-.2,0-.26-.19-.17-.43l.07-.18a.43.43,0,0,1,.46-.33l5.17.8c.2,0,.27.17.18.4l-.05.14a1.51,1.51,0,0,1-.27.45l-7.61,8.79a.5.5,0,0,1-.47.22l-.25,0c-.24,0-.26-.23-.06-.47Z" transform="translate(-9.2 -13.16)"/>
    <path class="cls-10" d="M499.76,361.85a2.22,2.22,0,0,1-.29-2.34,3.46,3.46,0,0,1,3.76-2.27c1.65.26,2.3,1.53,1.66,3.16a6.72,6.72,0,0,1-2.24,2.73,2.2,2.2,0,0,1,.41,2.5,4,4,0,0,1-4.15,2.59c-1.63-.25-2.54-1.73-1.79-3.65A5.29,5.29,0,0,1,499.76,361.85Zm-.49,5.42a2.87,2.87,0,0,0,2.88-1.75c.57-1.45-.7-2-1.87-3.1a4.44,4.44,0,0,0-2.23,2.22A1.77,1.77,0,0,0,499.28,367.27Zm4.7-6.9c.47-1.19,0-2-1.12-2.18a2.28,2.28,0,0,0-2.49,1.46c-.55,1.41.7,2.08,1.73,3A5.6,5.6,0,0,0,504,360.37Z" transform="translate(-9.2 -13.16)"/>
    <path class="cls-10" d="M489,385.75c1.19-3.05,2.91-5.37,5.23-5s2.13,2.91.94,6-2.91,5.38-5.24,5S487.75,388.84,489,385.75Zm5.26.82c1-2.52,1.28-4.58-.41-4.84s-2.94,1.64-3.93,4.17-1.28,4.59.41,4.86S493.22,389.12,494.21,386.57Z" transform="translate(-9.2 -13.16)"/>
    <path class="cls-10" d="M527.21,371.52a.32.32,0,0,1,.47-.14,2,2,0,0,0,.92.4c1.89.29,3.69-1.77,4.66-3.83h0a3.47,3.47,0,0,1-2.81.91c-1.59-.25-2.19-1.83-1.41-3.84.86-2.21,2.64-3.37,4.2-3.13,1.94.3,2.39,2.63,1.28,5.47-1,2.68-3.52,5.83-6.27,5.41a2.86,2.86,0,0,1-1.23-.5c-.17-.12-.16-.28,0-.49Zm6.64-5.08c.53-1.35.36-3.36-1-3.57-1.21-.19-2.34.78-2.92,2.27s-.19,2.62,1.07,2.81A2.83,2.83,0,0,0,533.85,366.45Z" transform="translate(-9.2 -13.16)"/>
    <polygon class="cls-10" points="575.8 307.75 575.22 306.31 571.23 309.13 569.77 305.46 568.2 306.57 569.65 310.24 565.66 313.06 566.24 314.51 570.23 311.69 571.69 315.36 573.27 314.24 571.81 310.58 575.8 307.75"/>
    <polygon class="cls-10" points="559.78 333.21 563.09 330.88 562.51 329.43 557.62 332.88 556.47 333.69 556.89 334.75 558.68 339.24 560.26 338.12 559.05 335.08 565.55 336.09 565.57 336.04 566.25 334.28 566.28 334.22 559.78 333.21"/>
    <polygon class="cls-10" points="549.38 363.24 546.5 358.79 547.97 357.47 550.05 360.68 557.48 354.24 558.25 355.53 549.38 363.24"/>
    <path class="cls-10" d="M489.26,307c.07.19.22.23.43.07l1.09-.76a4.41,4.41,0,0,0,.67-.55h0s-.12.29-.24.59l-3.36,8.58c0,.09,0,.17.07.18l.6.09a.2.2,0,0,0,.19-.14l.31-.78,3.64-9.31c.09-.24,0-.39-.16-.42l-.29,0a.6.6,0,0,0-.46.14l-2.39,1.68c-.2.14-.29.32-.19.52Z" transform="translate(-9.2 -13.16)"/>
    <g>
      <path class="cls-10" d="M536.57,387.43l-6.33-1a2.63,2.63,0,0,0-2.54,1.79l-2.94,7.53c-.44,1.14,0,2.18.93,2.33l6.33,1a2.63,2.63,0,0,0,2.54-1.79l2.94-7.53c.44-1.14,0-2.18-.93-2.33m-5.51,1.46c1.5-1.06,3.15-.88,3.82.36a.28.28,0,0,1,0,.2.41.41,0,0,1-.14.18l-5.27,3.72a.27.27,0,0,1-.19,0,.17.17,0,0,1-.14-.12,4.44,4.44,0,0,1,1.92-4.4m.33,7.51c-1.49,1.06-3.13.88-3.81-.35a.28.28,0,0,1,0-.22.42.42,0,0,1,.14-.18l5.26-3.72a.27.27,0,0,1,.19-.05.17.17,0,0,1,.13.11,4.44,4.44,0,0,1-1.92,4.41" transform="translate(-9.2 -13.16)"/>
      <path class="cls-10" d="M538.78,395.19a.71.71,0,0,0-.66.45.59.59,0,0,0,0,.32,1.26,1.26,0,0,0,1.07,1,2.25,2.25,0,0,0,2.34-1.46,1.54,1.54,0,0,0-.7-2c-.4-.31-.64-.51-.51-.86a.74.74,0,0,1,.81-.46.56.56,0,0,1,.48.49c0,.18.12.28.25.3a.69.69,0,0,0,.66-.45.59.59,0,0,0,0-.3,1.25,1.25,0,0,0-1-1.06,2,2,0,0,0-2.09,1.35,1.42,1.42,0,0,0,.67,1.89c.39.29.72.55.54,1a1,1,0,0,1-1.06.57.6.6,0,0,1-.52-.43.35.35,0,0,0-.26-.28" transform="translate(-9.2 -13.16)"/>
      <path class="cls-10" d="M560.43,394h0a2.37,2.37,0,0,0-2.28,1.62l-.84,2.16c0,.06-.05.12-.07.19l-1.6,4.1c-.11.28,0,.55.23.58a.66.66,0,0,0,.64-.45l1-2.68a.77.77,0,0,0,.59.36h0a2.41,2.41,0,0,0,2.27-1.68l.84-2.16c.4-1,0-1.91-.81-2m-.9,4.12a.92.92,0,0,1-1,.7h0c-.37-.06-.58-.34-.36-.91l.84-2.16a1,1,0,0,1,1-.7h0c.37.06.53.46.36.91Z" transform="translate(-9.2 -13.16)"/>
      <path class="cls-10" d="M557.75,394.11c.1-.28,0-.52-.24-.56a.65.65,0,0,0-.62.43h0l-1.39,3.55a1,1,0,0,1-1,.68h0c-.36-.06-.52-.45-.35-.89l1.37-3.52h0c.1-.28,0-.52-.24-.56a.65.65,0,0,0-.62.43h0l-1.39,3.55c-.39,1,0,1.92.82,2.06h0a2.32,2.32,0,0,0,2.24-1.58l1.39-3.55Z" transform="translate(-9.2 -13.16)"/>
      <path class="cls-10" d="M546.75,392.41c.1-.28,0-.52-.24-.56a.65.65,0,0,0-.62.43h0l-1.39,3.55a1,1,0,0,1-1,.68h0c-.36-.06-.52-.45-.35-.89l1.37-3.52h0c.1-.28,0-.52-.24-.56a.65.65,0,0,0-.62.43h0l-1.39,3.55c-.39,1,0,1.92.82,2.06h0a2.32,2.32,0,0,0,2.24-1.58l1.39-3.55Z" transform="translate(-9.2 -13.16)"/>
      <path class="cls-10" d="M551.6,392.64h0a1.82,1.82,0,0,0-1.31.38,1.09,1.09,0,0,0-.88-.72h0a2.32,2.32,0,0,0-2.24,1.58l-1.39,3.55h0c-.1.28,0,.52.24.56a.65.65,0,0,0,.62-.43h0L548,394a1,1,0,0,1,1-.68h0c.35.06.51.43.36.85v0L548,397.77h0a.56.56,0,0,0,0,.29.32.32,0,0,0,.27.27.65.65,0,0,0,.62-.43h0l1.39-3.55v0a1,1,0,0,1,1-.65h0c.36.06.52.45.35.89l-1.37,3.52h0c-.1.28,0,.52.24.56a.65.65,0,0,0,.62-.43h0l1.39-3.55c.39-1,0-1.92-.82-2.05" transform="translate(-9.2 -13.16)"/>
      <path class="cls-10" d="M563.94,394.55a1.31,1.31,0,0,0-1.26.89c-.22.57,0,1.09.46,1.16a1.31,1.31,0,0,0,1.26-.89c.22-.56,0-1.09-.46-1.16m-.7,1.8c-.36-.06-.52-.45-.35-.88a1,1,0,0,1,1-.67c.36.06.52.45.35.88a1,1,0,0,1-1,.68" transform="translate(-9.2 -13.16)"/>
      <path class="cls-10" d="M563.42,395.16a.13.13,0,0,1,.13-.1l.22,0c.16,0,.22.16.15.34a.35.35,0,0,1-.29.24l.08.23a.13.13,0,0,1,0,.1.14.14,0,0,1-.13.09s-.06,0-.07-.07l-.09-.37h0l-.11.28c0,.08-.08.11-.14.1s-.08-.05,0-.13Zm.06.33.12,0a.13.13,0,0,0,.14-.09c0-.07,0-.11-.05-.12l-.12,0Z" transform="translate(-9.2 -13.16)"/>
    </g>
  </g>
  <line class="cls-25" x1="558.56" y1="87.31" x2="549.73" y2="111.39"/>
  <line class="cls-25" x1="559.13" y1="77.05" x2="553.41" y2="92.66"/>
  <line class="cls-25" x1="562.32" y1="67.94" x2="560.01" y2="74.26"/>
  <line class="cls-25" x1="563.86" y1="64.08" x2="562.98" y2="66.47"/>
  <line class="cls-25" x1="547.07" y1="119.21" x2="546.31" y2="121.29"/>
  <line class="cls-25" x1="549.15" y1="113.54" x2="547.81" y2="117.2"/>
  <g>
    <g>
      <path class="cls-24" d="M718.71,360.28l-111.3-15.82a.5.5,0,0,1-.42-.57.51.51,0,0,1,.57-.42l111.22,15.81s4.5-.18,6.75-3a29,29,0,0,0,4.27-7.72l40.95-118.75s1.32-5,.49-7.32c-.94-2.57-4.24-3.1-4.27-3.11L654.21,208.54a.5.5,0,0,1-.45-.55.51.51,0,0,1,.55-.45l112.78,10.84c.19,0,4,.64,5.08,3.76.94,2.58-.42,7.74-.47,8l-41,118.78a29.53,29.53,0,0,1-4.44,8C723.76,360.1,718.92,360.27,718.71,360.28Z" transform="translate(-9.2 -13.16)"/>
      <path class="cls-24" d="M599.79,343.37h-.07l-11.31-1.61a6.72,6.72,0,0,1-5.9-4.17c-1.22-3,.75-8.67.84-8.9l39.35-111a26.69,26.69,0,0,1,4.78-8.16,12.82,12.82,0,0,1,1.78-1.66.5.5,0,1,1,.61.79,11.85,11.85,0,0,0-1.64,1.53,26.16,26.16,0,0,0-4.58,7.82L584.29,329c0,.05-1.93,5.52-.85,8.2a5.67,5.67,0,0,0,5,3.55h0l11.38,1.61a.5.5,0,0,1-.07,1Z" transform="translate(-9.2 -13.16)"/>
      <path class="cls-24" d="M600,343a1.11,1.11,0,0,1,.07-.12L587.26,341l.81.56,11.8,1.68C599.9,343.17,599.94,343.06,600,343Z" transform="translate(-9.2 -13.16)"/>
      <path class="cls-24" d="M773.12,223.38a6.9,6.9,0,0,0-2.88-3.51c3.61,2.55,1.24,9.91,1.24,9.91L729.81,350.11c-4.35,10.33-11.57,9.39-11.57,9.39L607.49,343.88s0,.06,0,.1a3.37,3.37,0,0,1-.06.37c34.5,4.91,103.66,14.76,110.63,15.68,9.33,1.24,12.65-8.68,12.65-8.68s40.64-115.82,42-121.28C773.35,227.61,773.62,224.86,773.12,223.38Z" transform="translate(-9.2 -13.16)"/>
      <g>
        <path class="cls-24" d="M609.48,298.12a1.64,1.64,0,0,1-.47.72.8.8,0,0,1-.62.24l-2.54-.31a.78.78,0,0,1-.52-.26l-.65-.6c-.07,0-.08-.14,0-.28s.14-.26.25-.25a.34.34,0,0,1,.2.14l.54.51a.83.83,0,0,0,.39.21l2.9.36,1.65-4.9-3.32-.41,2-6,3.5.43c.05,0,.09,0,.1.11a.38.38,0,0,1,0,.2.59.59,0,0,1-.1.17.19.19,0,0,1-.18.08l-3.13-.39-1.64,4.86,2.58.32a.49.49,0,0,1,.4.38,1.19,1.19,0,0,1,0,.79Z" transform="translate(-9.2 -13.16)"/>
        <path class="cls-24" d="M615.07,299.63c-.06.18-.15.26-.28.25s-.14-.11-.08-.29l1.29-3.82-3.32-.41,2.37-7a.4.4,0,0,1,.14-.19.27.27,0,0,1,.18-.07s.08,0,.09.1a.44.44,0,0,1,0,.25l-2.17,6.43,2.92.36,1.72-5.11c.06-.18.15-.26.26-.25a.13.13,0,0,1,.1.09.28.28,0,0,1,0,.2l-1.72,5.11a1.52,1.52,0,0,1,.34.07.29.29,0,0,1,.14.1.13.13,0,0,1,0,.1l0,.07a.39.39,0,0,1-.15.22.39.39,0,0,1-.25,0l-.27,0Z" transform="translate(-9.2 -13.16)"/>
        <path class="cls-24" d="M626.09,300.71s.06,0,.09.09a.31.31,0,0,1,0,.22c-.06.17-.14.24-.26.23l-4.64-.57,1.66-4.93a1.67,1.67,0,0,1,.48-.73.81.81,0,0,1,.63-.25l3.69.46,1.63-4.84-4.28-.53q-.2,0-.1-.31a.44.44,0,0,1,.12-.17.23.23,0,0,1,.19-.08l3.9.48a.48.48,0,0,1,.42.38,1.26,1.26,0,0,1,0,.78l-1.28,3.8a1.74,1.74,0,0,1-.48.75.8.8,0,0,1-.63.25l-3.69-.46-1.65,4.9Z" transform="translate(-9.2 -13.16)"/>
        <path class="cls-24" d="M633.46,301.09a1.65,1.65,0,0,1-.47.72.8.8,0,0,1-.62.24l-2.54-.31a.78.78,0,0,1-.52-.26l-.65-.6c-.07,0-.08-.14,0-.28s.14-.26.25-.25a.34.34,0,0,1,.2.14l.54.51a.81.81,0,0,0,.39.21l2.9.36,1.65-4.9-3.32-.41,2-6,3.5.43c.05,0,.09,0,.1.11a.38.38,0,0,1,0,.2.59.59,0,0,1-.1.17.19.19,0,0,1-.18.08l-3.13-.39-1.64,4.86,2.58.32a.49.49,0,0,1,.4.38,1.19,1.19,0,0,1,0,.79Z" transform="translate(-9.2 -13.16)"/>
        <path class="cls-24" d="M644.85,302.5a1.58,1.58,0,0,1-.48.72.83.83,0,0,1-.62.24l-3.32-.41a.5.5,0,0,1-.42-.37,1.18,1.18,0,0,1,0-.78l1.31-3.88a2.45,2.45,0,0,1,.15-.35,1.19,1.19,0,0,1,.26-.33,1.12,1.12,0,0,1,.42-.23,1.55,1.55,0,0,1,.64,0l1.73-5.12c.06-.18.16-.26.29-.25l2.21.27c.05,0,.09,0,.11.11a.37.37,0,0,1,0,.22l-1.72,5.11a1.22,1.22,0,0,1,.53.17.64.64,0,0,1,.25.29.67.67,0,0,1,0,.37,2.42,2.42,0,0,1-.1.39Zm-.55.47,1.65-4.9-4.05-.5-1.65,4.89Zm.73-5.59,1.64-4.86-1.85-.23-1.64,4.86Z" transform="translate(-9.2 -13.16)"/>
        <path class="cls-24" d="M651.65,303.88s.06,0,.09.09a.31.31,0,0,1,0,.22c-.06.17-.14.24-.26.23l-4.64-.58,1.66-4.93a1.67,1.67,0,0,1,.48-.73.82.82,0,0,1,.63-.25l3.69.46,1.63-4.84-4.28-.53c-.13,0-.17-.12-.1-.31a.44.44,0,0,1,.12-.17.23.23,0,0,1,.19-.08l3.9.48a.48.48,0,0,1,.42.38,1.26,1.26,0,0,1,0,.78l-1.28,3.8a1.73,1.73,0,0,1-.48.75.8.8,0,0,1-.63.25l-3.69-.46-1.65,4.9Z" transform="translate(-9.2 -13.16)"/>
        <path class="cls-24" d="M658.92,305.06c-.06.18-.16.26-.29.24l-4.41-.55c-.12,0-.15-.12-.09-.31s.15-.24.27-.23l2,.25,3.47-10.31-2-.25c-.13,0-.17-.12-.1-.31s.16-.26.3-.24l2.38.29-3.66,10.87,1.82.23,1.28-3.8a.36.36,0,0,1,.12-.17.21.21,0,0,1,.15-.06s.08,0,.1.1a.32.32,0,0,1,0,.21Z" transform="translate(-9.2 -13.16)"/>
        <path class="cls-24" d="M666.24,305.15a1.58,1.58,0,0,1-.48.72.84.84,0,0,1-.64.24l-3.87-.48c-.12,0-.16-.11-.1-.29s.16-.26.29-.24l4.21.52,1.22-3.61a1.54,1.54,0,0,0,0-.93.59.59,0,0,0-.51-.48l-2.22-.28c-.11,0-.13-.11-.07-.29s.16-.28.27-.27l2.22.27a1,1,0,0,0,.78-.31,2,2,0,0,0,.56-.86l1.2-3.55-4.28-.53c-.12,0-.15-.12-.09-.31s.16-.26.29-.24l3.89.48a.49.49,0,0,1,.42.37,1.25,1.25,0,0,1,0,.79l-1,2.94a3.65,3.65,0,0,1-.37.79,3.37,3.37,0,0,1-.74.77,3.37,3.37,0,0,1,.16,1,2.39,2.39,0,0,1-.12.71Z" transform="translate(-9.2 -13.16)"/>
        <path class="cls-24" d="M677.46,307.35a.41.41,0,0,1-.12.17.21.21,0,0,1-.16.07l-4.4-.54c-.13,0-.17-.12-.1-.31l3.65-10.85a.45.45,0,0,1,.11-.18.22.22,0,0,1,.19-.07l.54.07c.07,0,.11.06.11.15a.75.75,0,0,1,0,.24.23.23,0,0,1-.12.13.71.71,0,0,1-.36,0l-.15,0-2.1,6.22,4.23.52s.06,0,.08.1a.42.42,0,0,1,0,.25Zm-.28-.31,1.19-3.53-4-.5-1.19,3.53Z" transform="translate(-9.2 -13.16)"/>
        <path class="cls-24" d="M683,308c-.06.18-.15.26-.28.25s-.14-.11-.08-.29l1.29-3.82-3.32-.41,2.37-7a.4.4,0,0,1,.14-.19.27.27,0,0,1,.18-.07s.07,0,.09.1a.44.44,0,0,1,0,.25l-2.17,6.43,2.92.36,1.72-5.11c.06-.18.15-.26.26-.25a.13.13,0,0,1,.1.09.28.28,0,0,1,0,.2l-1.72,5.11a1.56,1.56,0,0,1,.34.07.29.29,0,0,1,.14.1.13.13,0,0,1,0,.1l0,.07a.39.39,0,0,1-.15.22.39.39,0,0,1-.25,0l-.27,0Z" transform="translate(-9.2 -13.16)"/>
        <path class="cls-24" d="M687.43,308.57c-.06.19-.16.28-.28.26a.14.14,0,0,1-.12-.11.32.32,0,0,1,0-.21l1.33-4a.6.6,0,0,1,.18-.3l3-2.34,1.24-3.69-3.95-.49a4.93,4.93,0,0,1-.31.5c-.07.08-.13.12-.18.12s-.17-.11-.11-.29l.22-.65a.41.41,0,0,1,.13-.19.24.24,0,0,1,.18-.07l4.59.57L691.94,302a.67.67,0,0,1-.17.26l-3,2.35Z" transform="translate(-9.2 -13.16)"/>
        <path class="cls-24" d="M696.48,309.43s.07,0,.09.09a.31.31,0,0,1,0,.22c-.06.17-.14.24-.26.23l-4.64-.58,1.66-4.93a1.67,1.67,0,0,1,.48-.73.82.82,0,0,1,.63-.25l3.69.46,1.63-4.84-4.28-.53c-.13,0-.17-.12-.1-.31a.44.44,0,0,1,.12-.17.23.23,0,0,1,.19-.08l3.91.48a.49.49,0,0,1,.42.38,1.27,1.27,0,0,1,0,.78l-1.28,3.8a1.75,1.75,0,0,1-.48.75.8.8,0,0,1-.63.25l-3.69-.46-1.65,4.9Z" transform="translate(-9.2 -13.16)"/>
        <path class="cls-24" d="M708.32,310.42a1.6,1.6,0,0,1-.43.67.76.76,0,0,1-.61.24l-3.4-.42a.46.46,0,0,1-.4-.38,1.22,1.22,0,0,1,0-.72l3.16-9.39a1.52,1.52,0,0,1,.45-.67.77.77,0,0,1,.6-.25l3.42.42q.25,0,.37.37a1.12,1.12,0,0,1,0,.72Zm-.52.42,3.47-10.29-4.07-.5-3.47,10.29Z" transform="translate(-9.2 -13.16)"/>
        <path class="cls-24" d="M715.59,311.26a1.58,1.58,0,0,1-.48.72.84.84,0,0,1-.64.24l-3.87-.48c-.12,0-.16-.11-.1-.29s.16-.26.29-.24l4.21.52,1.22-3.61a1.54,1.54,0,0,0,0-.93.59.59,0,0,0-.51-.48l-2.22-.28c-.11,0-.13-.11-.07-.29s.16-.28.27-.27l2.22.27a1,1,0,0,0,.78-.31,2,2,0,0,0,.56-.86l1.2-3.55-4.28-.53c-.12,0-.15-.12-.09-.31s.16-.26.29-.25l3.89.48a.49.49,0,0,1,.42.37,1.25,1.25,0,0,1,0,.79l-1,2.94a3.66,3.66,0,0,1-.37.79,3.37,3.37,0,0,1-.74.77,3.37,3.37,0,0,1,.16,1,2.39,2.39,0,0,1-.12.71Z" transform="translate(-9.2 -13.16)"/>
        <path class="cls-24" d="M722.49,312.65s.06,0,.09.09a.31.31,0,0,1,0,.22c-.06.17-.14.24-.26.23l-4.64-.58,1.66-4.93a1.68,1.68,0,0,1,.48-.73.82.82,0,0,1,.63-.25l3.69.46,1.63-4.84-4.28-.53c-.13,0-.17-.12-.1-.31a.44.44,0,0,1,.12-.17.23.23,0,0,1,.19-.08l3.9.48a.48.48,0,0,1,.42.38,1.26,1.26,0,0,1,0,.78l-1.28,3.8a1.74,1.74,0,0,1-.48.75.8.8,0,0,1-.63.25l-3.69-.46-1.65,4.9Z" transform="translate(-9.2 -13.16)"/>
        <path class="cls-24" d="M729.86,313a1.65,1.65,0,0,1-.47.72.8.8,0,0,1-.62.24l-2.54-.31a.78.78,0,0,1-.52-.26l-.65-.6c-.07,0-.08-.14,0-.28s.14-.26.25-.25a.34.34,0,0,1,.2.14l.54.51a.81.81,0,0,0,.39.21l2.9.36,1.65-4.9-3.32-.41,2-6,3.5.43c.05,0,.09,0,.1.11a.38.38,0,0,1,0,.2.59.59,0,0,1-.1.17.19.19,0,0,1-.18.08l-3.13-.39-1.64,4.86,2.58.32a.49.49,0,0,1,.4.38,1.19,1.19,0,0,1,0,.79Z" transform="translate(-9.2 -13.16)"/>
      </g>
      <g>
        <path class="cls-24" d="M672.14,329.72a1.36,1.36,0,0,1-.32.54.55.55,0,0,1-.45.21l-2.48-.26a.33.33,0,0,1-.29-.29,1,1,0,0,1,0-.57l2.39-7.49a1.29,1.29,0,0,1,.33-.54.57.57,0,0,1,.44-.21l2.5.26c.12,0,.21.11.26.28a1,1,0,0,1,0,.57Zm-.38.34,2.62-8.21-3-.31-2.62,8.21Z" transform="translate(-9.2 -13.16)"/>
        <path class="cls-24" d="M676.23,330.74c0,.14-.11.21-.21.2s-.1-.08-.06-.23l1-3-2.42-.25,1.79-5.61a.33.33,0,0,1,.1-.16.19.19,0,0,1,.13-.06s.05,0,.07.08a.39.39,0,0,1,0,.2L675,327l2.13.22,1.3-4.08c0-.14.11-.21.19-.2s.06,0,.07.07a.23.23,0,0,1,0,.16l-1.3,4.07a.94.94,0,0,1,.25.05.18.18,0,0,1,.1.07.1.1,0,0,1,0,.08l0,.05a.33.33,0,0,1-.11.18.27.27,0,0,1-.18,0l-.19,0Z" transform="translate(-9.2 -13.16)"/>
        <path class="cls-24" d="M678.07,331.19h0s0,0-.08-.06,0-.09,0-.17a.8.8,0,0,1,.15-.27l6-8.32h0a.15.15,0,0,1,.08.06.14.14,0,0,1,0,.14.87.87,0,0,1-.16.28Z" transform="translate(-9.2 -13.16)"/>
        <path class="cls-24" d="M686.39,331.58s0,0,.06.07a.26.26,0,0,1,0,.17c0,.13-.11.19-.19.19l-3.38-.35,1.25-3.94a1.39,1.39,0,0,1,.35-.59.6.6,0,0,1,.47-.21l2.69.28,1.23-3.86-3.12-.32c-.1,0-.12-.09-.07-.25a.36.36,0,0,1,.09-.13.16.16,0,0,1,.14-.06l2.85.29a.35.35,0,0,1,.3.29,1.07,1.07,0,0,1,0,.62l-1,3a1.46,1.46,0,0,1-.35.6.58.58,0,0,1-.46.21l-2.69-.28-1.24,3.91Z" transform="translate(-9.2 -13.16)"/>
        <path class="cls-24" d="M691.91,331.77a1.34,1.34,0,0,1-.32.54.55.55,0,0,1-.45.21l-2.48-.26a.33.33,0,0,1-.29-.29,1,1,0,0,1,0-.57l2.39-7.49a1.28,1.28,0,0,1,.33-.54.57.57,0,0,1,.44-.21l2.5.26c.12,0,.21.11.26.28a.94.94,0,0,1,0,.57Zm-.38.34,2.62-8.21-3-.31-2.62,8.21Z" transform="translate(-9.2 -13.16)"/>
      </g>
      <g>
        <path class="cls-24" d="M657.44,324.17l.06-3.27.33,0,0,1.61c0,.44,0,.84-.06,1.22h0c.16-.36.36-.75.58-1.15l.81-1.52.33,0-1.67,3.07Z" transform="translate(-9.2 -13.16)"/>
        <path class="cls-24" d="M659.31,323.37l-.51,1-.31,0,1.63-3.08.37,0,0,3.27-.33,0v-1Zm.86-.22v-.94c0-.21,0-.41,0-.59h0c-.08.18-.17.37-.27.56l-.47.89Z" transform="translate(-9.2 -13.16)"/>
        <path class="cls-24" d="M661.63,321.41l.31,0-.74,2.83,1,.12-.09.34-1.32-.16Z" transform="translate(-9.2 -13.16)"/>
        <path class="cls-24" d="M663.59,321.65l-.83,3.17-.31,0,.83-3.17Z" transform="translate(-9.2 -13.16)"/>
        <path class="cls-24" d="M664.1,321.76a3.07,3.07,0,0,1,.67,0,1,1,0,0,1,.85.51,1.64,1.64,0,0,1,0,1.18,2.41,2.41,0,0,1-.66,1.19,1.44,1.44,0,0,1-1.17.33,3.56,3.56,0,0,1-.54-.11Zm-.43,2.84a1.78,1.78,0,0,0,.3.06c.65.08,1.13-.37,1.36-1.22s0-1.26-.64-1.34a1.35,1.35,0,0,0-.37,0Z" transform="translate(-9.2 -13.16)"/>
        <path class="cls-24" d="M657.12,325.1l-.72-.09.09-.35,1.75.21-.09.35-.72-.09-.74,2.83-.31,0Z" transform="translate(-9.2 -13.16)"/>
        <path class="cls-24" d="M658.8,325l-.35,1.33,1.14.14.35-1.33.31,0-.83,3.17-.31,0,.39-1.49-1.14-.14-.39,1.49-.31,0,.83-3.17Z" transform="translate(-9.2 -13.16)"/>
        <path class="cls-24" d="M660.76,325.23a2.84,2.84,0,0,1,.6,0,.71.71,0,0,1,.61.34.91.91,0,0,1,0,.63,1,1,0,0,1-.65.75h0c.16.11.21.35.18.68a6.38,6.38,0,0,0,0,.89l-.32,0a5.19,5.19,0,0,1,0-.78c0-.45,0-.63-.31-.68l-.29,0-.36,1.38-.3,0Zm-.07,1.48.31,0a.64.64,0,0,0,.69-.54c.11-.41-.07-.62-.39-.66a1.07,1.07,0,0,0-.31,0Z" transform="translate(-9.2 -13.16)"/>
        <path class="cls-24" d="M663,325.46l-.49,1.88c-.18.71,0,1,.29,1.08s.65-.24.84-.94l.49-1.88.31,0-.48,1.86c-.26,1-.74,1.32-1.25,1.26s-.75-.47-.49-1.46l.49-1.87Z" transform="translate(-9.2 -13.16)"/>
      </g>
      <path class="cls-24" d="M621,282.56h0l-8.13-.7a3.14,3.14,0,0,1-2.37-1.41,3.19,3.19,0,0,1-.36-2.77l6.69-20.21a3.28,3.28,0,0,1,3.39-2.25l9.76.84a.5.5,0,0,1-.09,1l-9.76-.84a2.33,2.33,0,0,0-2.36,1.57L611.05,278a2.19,2.19,0,0,0,.24,1.91,2.15,2.15,0,0,0,1.62,1l8.13.7a.5.5,0,0,1,0,1Z" transform="translate(-9.2 -13.16)"/>
      <path class="cls-24" d="M615.29,281.82a.5.5,0,0,1-.47-.67l9-25.34a.5.5,0,1,1,.94.33l-9,25.34A.5.5,0,0,1,615.29,281.82Z" transform="translate(-9.2 -13.16)"/>
      <path class="cls-24" d="M617.81,274.44h0l-5.35-.39a.5.5,0,0,1,.07-1l5.35.39a.5.5,0,0,1,0,1Z" transform="translate(-9.2 -13.16)"/>
      <path class="cls-24" d="M619.68,269.15h0l-5.55-.4a.5.5,0,0,1,.07-1l5.55.4a.5.5,0,0,1,0,1Z" transform="translate(-9.2 -13.16)"/>
      <path class="cls-24" d="M621.49,263.92h0l-6-.43A.5.5,0,0,1,615,263a.49.49,0,0,1,.53-.46l6,.43a.5.5,0,0,1,0,1Z" transform="translate(-9.2 -13.16)"/>
      <path class="cls-24" d="M621,282.46l-.15,0a.5.5,0,0,1-.32-.63l5.64-17.54a.5.5,0,0,1,1,.31l-5.64,17.54A.5.5,0,0,1,621,282.46Z" transform="translate(-9.2 -13.16)"/>
      <path class="cls-24" d="M626.85,270.16h0l-1.27-.07a.5.5,0,0,1-.47-.52.48.48,0,0,1,.53-.47l1.27.07a.5.5,0,0,1,0,1Z" transform="translate(-9.2 -13.16)"/>
      <path class="cls-24" d="M624.77,275.62h0l-1.37-.07a.5.5,0,0,1-.47-.52.48.48,0,0,1,.53-.47l1.37.07a.5.5,0,0,1,0,1Z" transform="translate(-9.2 -13.16)"/>
      <g>
        <path class="cls-24" d="M630.26,228.46a2.42,2.42,0,0,1,.5-.79,6,6,0,0,0,1-2,6.23,6.23,0,0,0,.44-2.28,4.13,4.13,0,0,1,.1-.95c.18-.52.61-.94.91-.82s.39.35.36,1.13a10.73,10.73,0,0,1-2.28,6.66c-.38.44-.67.62-.92.52A1.64,1.64,0,0,1,630.26,228.46Z" transform="translate(-9.2 -13.16)"/>
        <path class="cls-24" d="M631.72,231.21a3.15,3.15,0,0,1,.61-.94,13.46,13.46,0,0,0,1.92-3.76,13.83,13.83,0,0,0,.78-4.11,3.72,3.72,0,0,1,.13-1.23c.09-.26.5-.79.85-.65s.41.46.36,1.62a15.77,15.77,0,0,1-.92,4.85,15.51,15.51,0,0,1-2.39,4.65c-.39.63-.74,1-1.09.84S631.51,231.81,631.72,231.21Z" transform="translate(-9.2 -13.16)"/>
        <path class="cls-24" d="M633.3,234.1a4.69,4.69,0,0,1,.75-1.18,22.19,22.19,0,0,0,3.86-11.44,5.06,5.06,0,0,1,.19-1.4c.12-.35.55-.77.9-.63s.32.72.34,1.51a25.37,25.37,0,0,1-4.4,13.19c-.61.94-1,1.36-1.34,1.24S633.09,234.7,633.3,234.1Z" transform="translate(-9.2 -13.16)"/>
        <path class="cls-24" d="M634.8,237.06a3.49,3.49,0,0,1,.64-1,26,26,0,0,0,3.8-7.43,28.51,28.51,0,0,0,1.61-8.21,6.76,6.76,0,0,1,.16-1.31c.18-.52.58-.85.88-.73s.38.55.31,1.6a32.57,32.57,0,0,1-6,17.37c-.36.55-.75,1.18-1.2,1A1.27,1.27,0,0,1,634.8,237.06Z" transform="translate(-9.2 -13.16)"/>
      </g>
    </g>
    <g class="cls-4">
      <path class="cls-24" d="M578,333.81H578l-11.6-1.71a.5.5,0,0,1,.15-1l11.6,1.71a.5.5,0,0,1-.07,1Z" transform="translate(-9.2 -13.16)"/>
    </g>
    <g class="cls-4">
      <path class="cls-24" d="M564.59,331.74h-.07l-2.34-.34a.5.5,0,0,1,.15-1l2.34.34a.5.5,0,0,1-.07,1Z" transform="translate(-9.2 -13.16)"/>
    </g>
    <g class="cls-4">
      <path class="cls-24" d="M565.91,341.09a.5.5,0,0,1-.12-1l13-3.33a.5.5,0,0,1,.25,1l-13,3.33Z" transform="translate(-9.2 -13.16)"/>
    </g>
    <g class="cls-4">
      <path class="cls-24" d="M578.95,349.09a.49.49,0,0,1-.17,0,.5.5,0,0,1-.29-.64l2.54-6.83a.5.5,0,0,1,.94.35l-2.54,6.83A.5.5,0,0,1,578.95,349.09Z" transform="translate(-9.2 -13.16)"/>
    </g>
    <g class="cls-4">
      <path class="cls-24" d="M562.2,342.13a.5.5,0,0,1-.12-1l2.35-.6a.5.5,0,1,1,.25,1l-2.35.6Z" transform="translate(-9.2 -13.16)"/>
    </g>
    <g class="cls-4">
      <path class="cls-24" d="M577.75,352a.48.48,0,0,1-.17,0,.5.5,0,0,1-.3-.64l.59-1.65a.49.49,0,0,1,.64-.3.5.5,0,0,1,.3.64l-.59,1.65A.5.5,0,0,1,577.75,352Z" transform="translate(-9.2 -13.16)"/>
    </g>
  </g>
</svg>
